<ttFont>
<head>
    <!-- Most of this table will be recalculated by the compiler -->
    <tableVersion value="1.0"/>
    <fontRevision value="0.005"/>
    <checkSumAdjustment value="0x3723848"/>
    <magicNumber value="0x5f0f3cf5"/>
    <flags value="00000000 00000011"/>
    <unitsPerEm value="1000"/>
    <created value="Fri Feb 14 10:32:43 2025"/>
    <modified value="Fri Feb 14 10:50:29 2025"/>
    <xMin value="-30"/>
    <yMin value="-155"/>
    <xMax value="1390"/>
    <yMax value="820"/>
    <macStyle value="00000000 00000000"/>
    <lowestRecPPEM value="6"/>
    <fontDirectionHint value="2"/>
    <indexToLocFormat value="0"/>
    <glyphDataFormat value="0"/>
  </head>
    <TTGlyph name=".notdef" xMin="50" yMin="-50" xMax="450" yMax="50">
      <contour>
        <pt x="50" y="0" on="1"/>
        <pt x="50" y="0" on="1"/>
        <pt x="450" y="0" on="1"/>
        <pt x="450" y="0" on="1"/>
      </contour>
      <contour>
        <pt x="100" y="50" on="1"/>
        <pt x="400" y="50" on="1"/>
        <pt x="400" y="-50" on="1"/>
        <pt x="100" y="-50" on="1"/>
      </contour>
    </TTGlyph>
    <TTGlyph name="A" xMin="-30" yMin="-7" xMax="944" yMax="820">
      <contour>
        <pt x="579" y="80" on="1"/>
        <pt x="519" y="288" on="1"/>
        <pt x="321" y="288" on="1"/>
        <pt x="255" y="80" on="1"/>
        <pt x="254" y="-7" on="1"/>
        <pt x="65" y="-5" on="1"/>
        <pt x="65" y="82" on="1"/>
        <pt x="63" y="152" on="1"/>
        <pt x="147" y="82" on="1"/>
        <pt x="184" y="82" on="1"/>
        <pt x="389" y="721" on="1"/>
        <pt x="-30" y="721" on="1"/>
        <pt x="35" y="820" on="1"/>
        <pt x="944" y="820" on="1"/>
        <pt x="879" y="721" on="1"/>
        <pt x="531" y="721" on="1"/>
        <pt x="717" y="82" on="1"/>
        <pt x="754" y="82" on="1"/>
        <pt x="838" y="152" on="1"/>
        <pt x="836" y="82" on="1"/>
        <pt x="836" y="-5" on="1"/>
        <pt x="580" y="-7" on="1"/>
      </contour>
      <contour>
        <pt x="421" y="596" on="1"/>
        <pt x="341" y="349" on="1"/>
        <pt x="501" y="349" on="1"/>
      </contour>
    </TTGlyph>
    <TTGlyph name="A.0" xMin="-30" yMin="-7" xMax="944" yMax="820">
      <component glyphName="A" x="0" y="0" flags="0x204"/>
    </TTGlyph>
    <TTGlyph name="A.1" xMin="307" yMin="769" xMax="322" yMax="785">
      <contour>
        <pt x="316" y="778" on="1"/>
        <pt x="316" y="777" on="0"/>
        <pt x="318" y="776" on="0"/>
        <pt x="320" y="775" on="0"/>
        <pt x="321" y="774" on="0"/>
        <pt x="321" y="773" on="1"/>
        <pt x="320" y="773" on="0"/>
        <pt x="319" y="773" on="0"/>
        <pt x="318" y="774" on="0"/>
        <pt x="316" y="776" on="0"/>
        <pt x="315" y="777" on="0"/>
        <pt x="315" y="776" on="1"/>
        <pt x="315" y="776" on="0"/>
        <pt x="315" y="774" on="0"/>
        <pt x="315" y="772" on="0"/>
        <pt x="315" y="770" on="0"/>
        <pt x="315" y="769" on="0"/>
        <pt x="314" y="769" on="1"/>
        <pt x="314" y="769" on="0"/>
        <pt x="313" y="770" on="0"/>
        <pt x="314" y="772" on="0"/>
        <pt x="314" y="775" on="0"/>
        <pt x="314" y="777" on="0"/>
        <pt x="313" y="777" on="1"/>
        <pt x="313" y="778" on="0"/>
        <pt x="311" y="777" on="0"/>
        <pt x="309" y="775" on="0"/>
        <pt x="307" y="774" on="0"/>
        <pt x="307" y="775" on="1"/>
        <pt x="307" y="775" on="0"/>
        <pt x="308" y="776" on="0"/>
        <pt x="310" y="777" on="0"/>
        <pt x="312" y="779" on="0"/>
        <pt x="312" y="779" on="1"/>
        <pt x="312" y="780" on="0"/>
        <pt x="311" y="781" on="0"/>
        <pt x="309" y="781" on="0"/>
        <pt x="307" y="782" on="0"/>
        <pt x="307" y="783" on="1"/>
        <pt x="308" y="783" on="0"/>
        <pt x="309" y="782" on="0"/>
        <pt x="311" y="781" on="0"/>
        <pt x="313" y="780" on="0"/>
        <pt x="314" y="781" on="1"/>
        <pt x="314" y="781" on="0"/>
        <pt x="314" y="782" on="0"/>
        <pt x="314" y="784" on="0"/>
        <pt x="314" y="785" on="0"/>
        <pt x="314" y="785" on="1"/>
        <pt x="315" y="785" on="0"/>
        <pt x="316" y="784" on="0"/>
        <pt x="315" y="783" on="0"/>
        <pt x="315" y="781" on="0"/>
        <pt x="316" y="780" on="1"/>
        <pt x="316" y="780" on="0"/>
        <pt x="318" y="780" on="0"/>
        <pt x="320" y="781" on="0"/>
        <pt x="321" y="782" on="0"/>
        <pt x="321" y="782" on="1"/>
        <pt x="322" y="781" on="0"/>
        <pt x="320" y="780" on="0"/>
        <pt x="318" y="779" on="0"/>
        <pt x="316" y="778" on="0"/>
      </contour>
    </TTGlyph>
    <TTGlyph name="A.2" xMin="807" yMin="744" xMax="822" yMax="760">
      <contour>
        <pt x="816" y="753" on="1"/>
        <pt x="816" y="752" on="0"/>
        <pt x="818" y="751" on="0"/>
        <pt x="820" y="750" on="0"/>
        <pt x="821" y="749" on="0"/>
        <pt x="821" y="748" on="1"/>
        <pt x="820" y="748" on="0"/>
        <pt x="819" y="748" on="0"/>
        <pt x="818" y="749" on="0"/>
        <pt x="816" y="751" on="0"/>
        <pt x="815" y="752" on="0"/>
        <pt x="815" y="751" on="1"/>
        <pt x="815" y="751" on="0"/>
        <pt x="815" y="749" on="0"/>
        <pt x="815" y="747" on="0"/>
        <pt x="815" y="745" on="0"/>
        <pt x="815" y="744" on="0"/>
        <pt x="814" y="744" on="1"/>
        <pt x="814" y="744" on="0"/>
        <pt x="813" y="745" on="0"/>
        <pt x="814" y="747" on="0"/>
        <pt x="814" y="750" on="0"/>
        <pt x="814" y="752" on="0"/>
        <pt x="813" y="752" on="1"/>
        <pt x="813" y="753" on="0"/>
        <pt x="811" y="752" on="0"/>
        <pt x="809" y="750" on="0"/>
        <pt x="807" y="749" on="0"/>
        <pt x="807" y="750" on="1"/>
        <pt x="807" y="750" on="0"/>
        <pt x="808" y="751" on="0"/>
        <pt x="810" y="752" on="0"/>
        <pt x="812" y="754" on="0"/>
        <pt x="812" y="754" on="1"/>
        <pt x="812" y="755" on="0"/>
        <pt x="811" y="756" on="0"/>
        <pt x="809" y="756" on="0"/>
        <pt x="807" y="757" on="0"/>
        <pt x="807" y="758" on="1"/>
        <pt x="808" y="758" on="0"/>
        <pt x="809" y="757" on="0"/>
        <pt x="811" y="756" on="0"/>
        <pt x="813" y="755" on="0"/>
        <pt x="814" y="756" on="1"/>
        <pt x="814" y="756" on="0"/>
        <pt x="814" y="757" on="0"/>
        <pt x="814" y="759" on="0"/>
        <pt x="814" y="760" on="0"/>
        <pt x="814" y="760" on="1"/>
        <pt x="815" y="760" on="0"/>
        <pt x="816" y="759" on="0"/>
        <pt x="815" y="758" on="0"/>
        <pt x="815" y="756" on="0"/>
        <pt x="816" y="755" on="1"/>
        <pt x="816" y="755" on="0"/>
        <pt x="818" y="755" on="0"/>
        <pt x="820" y="756" on="0"/>
        <pt x="821" y="757" on="0"/>
        <pt x="821" y="757" on="1"/>
        <pt x="822" y="756" on="0"/>
        <pt x="820" y="755" on="0"/>
        <pt x="818" y="754" on="0"/>
        <pt x="816" y="753" on="0"/>
      </contour>
    </TTGlyph>
    <TTGlyph name="A.3" xMin="673" yMin="51" xMax="688" yMax="67">
      <contour>
        <pt x="682" y="60" on="1"/>
        <pt x="682" y="59" on="0"/>
        <pt x="684" y="58" on="0"/>
        <pt x="686" y="57" on="0"/>
        <pt x="687" y="56" on="0"/>
        <pt x="687" y="55" on="1"/>
        <pt x="686" y="55" on="0"/>
        <pt x="685" y="55" on="0"/>
        <pt x="684" y="56" on="0"/>
        <pt x="682" y="58" on="0"/>
        <pt x="681" y="59" on="0"/>
        <pt x="681" y="58" on="1"/>
        <pt x="681" y="58" on="0"/>
        <pt x="681" y="56" on="0"/>
        <pt x="681" y="54" on="0"/>
        <pt x="681" y="52" on="0"/>
        <pt x="681" y="51" on="0"/>
        <pt x="680" y="51" on="1"/>
        <pt x="680" y="51" on="0"/>
        <pt x="679" y="52" on="0"/>
        <pt x="680" y="54" on="0"/>
        <pt x="680" y="57" on="0"/>
        <pt x="680" y="59" on="0"/>
        <pt x="679" y="59" on="1"/>
        <pt x="679" y="60" on="0"/>
        <pt x="677" y="59" on="0"/>
        <pt x="675" y="57" on="0"/>
        <pt x="673" y="56" on="0"/>
        <pt x="673" y="57" on="1"/>
        <pt x="673" y="57" on="0"/>
        <pt x="674" y="58" on="0"/>
        <pt x="676" y="59" on="0"/>
        <pt x="678" y="61" on="0"/>
        <pt x="678" y="61" on="1"/>
        <pt x="678" y="62" on="0"/>
        <pt x="677" y="63" on="0"/>
        <pt x="675" y="63" on="0"/>
        <pt x="673" y="64" on="0"/>
        <pt x="673" y="65" on="1"/>
        <pt x="674" y="65" on="0"/>
        <pt x="675" y="64" on="0"/>
        <pt x="677" y="63" on="0"/>
        <pt x="679" y="62" on="0"/>
        <pt x="680" y="63" on="1"/>
        <pt x="680" y="63" on="0"/>
        <pt x="680" y="64" on="0"/>
        <pt x="680" y="66" on="0"/>
        <pt x="680" y="67" on="0"/>
        <pt x="680" y="67" on="1"/>
        <pt x="681" y="67" on="0"/>
        <pt x="682" y="66" on="0"/>
        <pt x="681" y="65" on="0"/>
        <pt x="681" y="63" on="0"/>
        <pt x="682" y="62" on="1"/>
        <pt x="682" y="62" on="0"/>
        <pt x="684" y="62" on="0"/>
        <pt x="686" y="63" on="0"/>
        <pt x="687" y="64" on="0"/>
        <pt x="687" y="64" on="1"/>
        <pt x="688" y="63" on="0"/>
        <pt x="686" y="62" on="0"/>
        <pt x="684" y="61" on="0"/>
        <pt x="682" y="60" on="0"/>
      </contour>
    </TTGlyph>
    <TTGlyph name="B" xMin="-30" yMin="-7" xMax="844" yMax="820">
      <contour>
        <pt x="193" y="80" on="1"/>
        <pt x="194" y="721" on="1"/>
        <pt x="-30" y="721" on="1"/>
        <pt x="35" y="820" on="1"/>
        <pt x="844" y="820" on="1"/>
        <pt x="779" y="721" on="1"/>
        <pt x="564" y="721" on="1"/>
        <pt x="620" y="707" on="0"/>
        <pt x="692" y="636" on="0"/>
        <pt x="692" y="584" on="1"/>
        <pt x="692" y="557" on="0"/>
        <pt x="653" y="506" on="0"/>
        <pt x="596" y="463" on="0"/>
        <pt x="538" y="431" on="0"/>
        <pt x="498" y="413" on="0"/>
        <pt x="496" y="413" on="1"/>
        <pt x="468" y="413" on="0"/>
        <pt x="479" y="419" on="0"/>
        <pt x="517" y="409" on="1"/>
        <pt x="519" y="408" on="0"/>
        <pt x="569" y="390" on="0"/>
        <pt x="639" y="357" on="0"/>
        <pt x="708" y="312" on="0"/>
        <pt x="755" y="258" on="0"/>
        <pt x="755" y="228" on="1"/>
        <pt x="755" y="191" on="0"/>
        <pt x="722" y="111" on="0"/>
        <pt x="662" y="43" on="0"/>
        <pt x="580" y="1" on="0"/>
        <pt x="531" y="1" on="1"/>
        <pt x="519" y="1" on="0"/>
        <pt x="482" y="-1" on="0"/>
        <pt x="480" y="-1" on="1"/>
        <pt x="450" y="-5" on="1"/>
        <pt x="194" y="-7" on="1"/>
        <pt x="65" y="-5" on="1"/>
        <pt x="65" y="82" on="1"/>
        <pt x="63" y="152" on="1"/>
        <pt x="147" y="82" on="1"/>
      </contour>
      <contour>
        <pt x="559" y="584" on="1"/>
        <pt x="559" y="621" on="0"/>
        <pt x="514" y="685" on="0"/>
        <pt x="445" y="724" on="0"/>
        <pt x="409" y="724" on="1"/>
        <pt x="388" y="724" on="0"/>
        <pt x="342" y="723" on="0"/>
        <pt x="311" y="718" on="0"/>
        <pt x="310" y="713" on="1"/>
        <pt x="309" y="705" on="0"/>
        <pt x="308" y="649" on="0"/>
        <pt x="306" y="575" on="0"/>
        <pt x="304" y="500" on="0"/>
        <pt x="302" y="443" on="0"/>
        <pt x="300" y="434" on="1"/>
        <pt x="299" y="428" on="0"/>
        <pt x="334" y="433" on="0"/>
        <pt x="394" y="439" on="0"/>
        <pt x="431" y="434" on="1"/>
        <pt x="467" y="430" on="0"/>
        <pt x="525" y="474" on="0"/>
        <pt x="559" y="546" on="0"/>
      </contour>
      <contour>
        <pt x="619" y="208" on="1"/>
        <pt x="619" y="281" on="0"/>
        <pt x="533" y="371" on="0"/>
        <pt x="467" y="371" on="1"/>
        <pt x="449" y="371" on="0"/>
        <pt x="405" y="380" on="0"/>
        <pt x="359" y="388" on="0"/>
        <pt x="321" y="384" on="0"/>
        <pt x="310" y="371" on="1"/>
        <pt x="297" y="356" on="0"/>
        <pt x="292" y="296" on="0"/>
        <pt x="297" y="231" on="0"/>
        <pt x="297" y="208" on="1"/>
        <pt x="297" y="189" on="0"/>
        <pt x="300" y="138" on="0"/>
        <pt x="310" y="92" on="0"/>
        <pt x="320" y="77" on="1"/>
        <pt x="335" y="55" on="0"/>
        <pt x="380" y="43" on="0"/>
        <pt x="435" y="46" on="0"/>
        <pt x="461" y="46" on="1"/>
        <pt x="506" y="46" on="0"/>
        <pt x="577" y="86" on="0"/>
        <pt x="619" y="159" on="0"/>
      </contour>
    </TTGlyph>
    <TTGlyph name="B.0" xMin="-30" yMin="-7" xMax="844" yMax="820">
      <component glyphName="B" x="0" y="0" flags="0x204"/>
    </TTGlyph>
    <TTGlyph name="B.1" xMin="199" yMin="772" xMax="214" yMax="788">
      <contour>
        <pt x="208" y="781" on="1"/>
        <pt x="208" y="780" on="0"/>
        <pt x="210" y="779" on="0"/>
        <pt x="212" y="778" on="0"/>
        <pt x="213" y="777" on="0"/>
        <pt x="213" y="776" on="1"/>
        <pt x="212" y="776" on="0"/>
        <pt x="211" y="776" on="0"/>
        <pt x="210" y="777" on="0"/>
        <pt x="208" y="779" on="0"/>
        <pt x="207" y="780" on="0"/>
        <pt x="207" y="779" on="1"/>
        <pt x="207" y="779" on="0"/>
        <pt x="207" y="777" on="0"/>
        <pt x="207" y="775" on="0"/>
        <pt x="207" y="773" on="0"/>
        <pt x="207" y="772" on="0"/>
        <pt x="206" y="772" on="1"/>
        <pt x="206" y="772" on="0"/>
        <pt x="205" y="773" on="0"/>
        <pt x="206" y="775" on="0"/>
        <pt x="206" y="778" on="0"/>
        <pt x="206" y="780" on="0"/>
        <pt x="205" y="780" on="1"/>
        <pt x="205" y="781" on="0"/>
        <pt x="203" y="780" on="0"/>
        <pt x="201" y="778" on="0"/>
        <pt x="199" y="777" on="0"/>
        <pt x="199" y="778" on="1"/>
        <pt x="199" y="778" on="0"/>
        <pt x="200" y="779" on="0"/>
        <pt x="202" y="780" on="0"/>
        <pt x="204" y="782" on="0"/>
        <pt x="204" y="782" on="1"/>
        <pt x="204" y="783" on="0"/>
        <pt x="203" y="784" on="0"/>
        <pt x="201" y="784" on="0"/>
        <pt x="199" y="785" on="0"/>
        <pt x="199" y="786" on="1"/>
        <pt x="200" y="786" on="0"/>
        <pt x="201" y="785" on="0"/>
        <pt x="203" y="784" on="0"/>
        <pt x="205" y="783" on="0"/>
        <pt x="206" y="784" on="1"/>
        <pt x="206" y="784" on="0"/>
        <pt x="206" y="785" on="0"/>
        <pt x="206" y="787" on="0"/>
        <pt x="206" y="788" on="0"/>
        <pt x="206" y="788" on="1"/>
        <pt x="207" y="788" on="0"/>
        <pt x="208" y="787" on="0"/>
        <pt x="207" y="786" on="0"/>
        <pt x="207" y="784" on="0"/>
        <pt x="208" y="783" on="1"/>
        <pt x="208" y="783" on="0"/>
        <pt x="210" y="783" on="0"/>
        <pt x="212" y="784" on="0"/>
        <pt x="213" y="785" on="0"/>
        <pt x="213" y="785" on="1"/>
        <pt x="214" y="784" on="0"/>
        <pt x="212" y="783" on="0"/>
        <pt x="210" y="782" on="0"/>
        <pt x="208" y="781" on="0"/>
      </contour>
    </TTGlyph>
    <TTGlyph name="B.2" xMin="630" yMin="382" xMax="645" yMax="398">
      <contour>
        <pt x="639" y="391" on="1"/>
        <pt x="639" y="390" on="0"/>
        <pt x="641" y="389" on="0"/>
        <pt x="643" y="388" on="0"/>
        <pt x="644" y="387" on="0"/>
        <pt x="644" y="386" on="1"/>
        <pt x="643" y="386" on="0"/>
        <pt x="642" y="386" on="0"/>
        <pt x="641" y="387" on="0"/>
        <pt x="639" y="389" on="0"/>
        <pt x="638" y="390" on="0"/>
        <pt x="638" y="389" on="1"/>
        <pt x="638" y="389" on="0"/>
        <pt x="638" y="387" on="0"/>
        <pt x="638" y="385" on="0"/>
        <pt x="638" y="383" on="0"/>
        <pt x="638" y="382" on="0"/>
        <pt x="637" y="382" on="1"/>
        <pt x="637" y="382" on="0"/>
        <pt x="636" y="383" on="0"/>
        <pt x="637" y="385" on="0"/>
        <pt x="637" y="388" on="0"/>
        <pt x="637" y="390" on="0"/>
        <pt x="636" y="390" on="1"/>
        <pt x="636" y="391" on="0"/>
        <pt x="634" y="390" on="0"/>
        <pt x="632" y="388" on="0"/>
        <pt x="630" y="387" on="0"/>
        <pt x="630" y="388" on="1"/>
        <pt x="630" y="388" on="0"/>
        <pt x="631" y="389" on="0"/>
        <pt x="633" y="390" on="0"/>
        <pt x="635" y="392" on="0"/>
        <pt x="635" y="392" on="1"/>
        <pt x="635" y="393" on="0"/>
        <pt x="634" y="394" on="0"/>
        <pt x="632" y="394" on="0"/>
        <pt x="630" y="395" on="0"/>
        <pt x="630" y="396" on="1"/>
        <pt x="631" y="396" on="0"/>
        <pt x="632" y="395" on="0"/>
        <pt x="634" y="394" on="0"/>
        <pt x="636" y="393" on="0"/>
        <pt x="637" y="394" on="1"/>
        <pt x="637" y="394" on="0"/>
        <pt x="637" y="395" on="0"/>
        <pt x="637" y="397" on="0"/>
        <pt x="637" y="398" on="0"/>
        <pt x="637" y="398" on="1"/>
        <pt x="638" y="398" on="0"/>
        <pt x="639" y="397" on="0"/>
        <pt x="638" y="396" on="0"/>
        <pt x="638" y="394" on="0"/>
        <pt x="639" y="393" on="1"/>
        <pt x="639" y="393" on="0"/>
        <pt x="641" y="393" on="0"/>
        <pt x="643" y="394" on="0"/>
        <pt x="644" y="395" on="0"/>
        <pt x="644" y="395" on="1"/>
        <pt x="645" y="394" on="0"/>
        <pt x="643" y="393" on="0"/>
        <pt x="641" y="392" on="0"/>
        <pt x="639" y="391" on="0"/>
      </contour>
    </TTGlyph>
    <TTGlyph name="B.3" xMin="248" yMin="131" xMax="263" yMax="147">
      <contour>
        <pt x="257" y="140" on="1"/>
        <pt x="257" y="139" on="0"/>
        <pt x="259" y="138" on="0"/>
        <pt x="261" y="137" on="0"/>
        <pt x="262" y="136" on="0"/>
        <pt x="262" y="135" on="1"/>
        <pt x="261" y="135" on="0"/>
        <pt x="260" y="135" on="0"/>
        <pt x="259" y="136" on="0"/>
        <pt x="257" y="138" on="0"/>
        <pt x="256" y="139" on="0"/>
        <pt x="256" y="138" on="1"/>
        <pt x="256" y="138" on="0"/>
        <pt x="256" y="136" on="0"/>
        <pt x="256" y="134" on="0"/>
        <pt x="256" y="132" on="0"/>
        <pt x="256" y="131" on="0"/>
        <pt x="255" y="131" on="1"/>
        <pt x="255" y="131" on="0"/>
        <pt x="254" y="132" on="0"/>
        <pt x="255" y="134" on="0"/>
        <pt x="255" y="137" on="0"/>
        <pt x="255" y="139" on="0"/>
        <pt x="254" y="139" on="1"/>
        <pt x="254" y="140" on="0"/>
        <pt x="252" y="139" on="0"/>
        <pt x="250" y="137" on="0"/>
        <pt x="248" y="136" on="0"/>
        <pt x="248" y="137" on="1"/>
        <pt x="248" y="137" on="0"/>
        <pt x="249" y="138" on="0"/>
        <pt x="251" y="139" on="0"/>
        <pt x="253" y="141" on="0"/>
        <pt x="253" y="141" on="1"/>
        <pt x="253" y="142" on="0"/>
        <pt x="252" y="143" on="0"/>
        <pt x="250" y="143" on="0"/>
        <pt x="248" y="144" on="0"/>
        <pt x="248" y="145" on="1"/>
        <pt x="249" y="145" on="0"/>
        <pt x="250" y="144" on="0"/>
        <pt x="252" y="143" on="0"/>
        <pt x="254" y="142" on="0"/>
        <pt x="255" y="143" on="1"/>
        <pt x="255" y="143" on="0"/>
        <pt x="255" y="144" on="0"/>
        <pt x="255" y="146" on="0"/>
        <pt x="255" y="147" on="0"/>
        <pt x="255" y="147" on="1"/>
        <pt x="256" y="147" on="0"/>
        <pt x="257" y="146" on="0"/>
        <pt x="256" y="145" on="0"/>
        <pt x="256" y="143" on="0"/>
        <pt x="257" y="142" on="1"/>
        <pt x="257" y="142" on="0"/>
        <pt x="259" y="142" on="0"/>
        <pt x="261" y="143" on="0"/>
        <pt x="262" y="144" on="0"/>
        <pt x="262" y="144" on="1"/>
        <pt x="263" y="143" on="0"/>
        <pt x="261" y="142" on="0"/>
        <pt x="259" y="141" on="0"/>
        <pt x="257" y="140" on="0"/>
      </contour>
    </TTGlyph>
    <TTGlyph name="C" xMin="-30" yMin="-4" xMax="843" yMax="820">
      <contour>
        <pt x="727" y="207" on="1"/>
        <pt x="726" y="3" on="1"/>
        <pt x="659" y="0" on="0"/>
        <pt x="551" y="-4" on="0"/>
        <pt x="492" y="-4" on="1"/>
        <pt x="435" y="-4" on="0"/>
        <pt x="309" y="34" on="0"/>
        <pt x="189" y="104" on="0"/>
        <pt x="91" y="199" on="0"/>
        <pt x="33" y="314" on="0"/>
        <pt x="33" y="378" on="1"/>
        <pt x="33" y="450" on="0"/>
        <pt x="106" y="581" on="0"/>
        <pt x="224" y="686" on="0"/>
        <pt x="293" y="721" on="1"/>
        <pt x="-30" y="721" on="1"/>
        <pt x="35" y="820" on="1"/>
        <pt x="843" y="820" on="1"/>
        <pt x="778" y="721" on="1"/>
        <pt x="682" y="721" on="1"/>
        <pt x="689" y="717" on="0"/>
        <pt x="696" y="713" on="1"/>
        <pt x="706" y="581" on="1"/>
        <pt x="680" y="621" on="0"/>
        <pt x="604" y="678" on="0"/>
        <pt x="522" y="708" on="0"/>
        <pt x="486" y="708" on="1"/>
        <pt x="448" y="708" on="0"/>
        <pt x="360" y="671" on="0"/>
        <pt x="275" y="606" on="0"/>
        <pt x="206" y="520" on="0"/>
        <pt x="164" y="422" on="0"/>
        <pt x="164" y="370" on="1"/>
        <pt x="164" y="318" on="0"/>
        <pt x="205" y="220" on="0"/>
        <pt x="274" y="135" on="0"/>
        <pt x="359" y="71" on="0"/>
        <pt x="446" y="35" on="0"/>
        <pt x="484" y="35" on="1"/>
        <pt x="526" y="35" on="0"/>
        <pt x="618" y="83" on="0"/>
        <pt x="700" y="161" on="0"/>
      </contour>
    </TTGlyph>
    <TTGlyph name="C.0" xMin="-30" yMin="-4" xMax="843" yMax="820">
      <component glyphName="C" x="0" y="0" flags="0x4"/>
    </TTGlyph>
    <TTGlyph name="C.1" xMin="615" yMin="645" xMax="630" yMax="661">
      <contour>
        <pt x="624" y="654" on="1"/>
        <pt x="624" y="653" on="0"/>
        <pt x="626" y="652" on="0"/>
        <pt x="628" y="651" on="0"/>
        <pt x="629" y="650" on="0"/>
        <pt x="629" y="649" on="1"/>
        <pt x="628" y="649" on="0"/>
        <pt x="627" y="649" on="0"/>
        <pt x="626" y="650" on="0"/>
        <pt x="624" y="652" on="0"/>
        <pt x="623" y="653" on="0"/>
        <pt x="623" y="652" on="1"/>
        <pt x="623" y="652" on="0"/>
        <pt x="623" y="650" on="0"/>
        <pt x="623" y="648" on="0"/>
        <pt x="623" y="646" on="0"/>
        <pt x="623" y="645" on="0"/>
        <pt x="622" y="645" on="1"/>
        <pt x="622" y="645" on="0"/>
        <pt x="621" y="646" on="0"/>
        <pt x="622" y="648" on="0"/>
        <pt x="622" y="651" on="0"/>
        <pt x="622" y="653" on="0"/>
        <pt x="621" y="653" on="1"/>
        <pt x="621" y="654" on="0"/>
        <pt x="619" y="653" on="0"/>
        <pt x="617" y="651" on="0"/>
        <pt x="615" y="650" on="0"/>
        <pt x="615" y="651" on="1"/>
        <pt x="615" y="651" on="0"/>
        <pt x="616" y="652" on="0"/>
        <pt x="618" y="653" on="0"/>
        <pt x="620" y="655" on="0"/>
        <pt x="620" y="655" on="1"/>
        <pt x="620" y="656" on="0"/>
        <pt x="619" y="657" on="0"/>
        <pt x="617" y="657" on="0"/>
        <pt x="615" y="658" on="0"/>
        <pt x="615" y="659" on="1"/>
        <pt x="616" y="659" on="0"/>
        <pt x="617" y="658" on="0"/>
        <pt x="619" y="657" on="0"/>
        <pt x="621" y="656" on="0"/>
        <pt x="622" y="657" on="1"/>
        <pt x="622" y="657" on="0"/>
        <pt x="622" y="658" on="0"/>
        <pt x="622" y="660" on="0"/>
        <pt x="622" y="661" on="0"/>
        <pt x="622" y="661" on="1"/>
        <pt x="623" y="661" on="0"/>
        <pt x="624" y="660" on="0"/>
        <pt x="623" y="659" on="0"/>
        <pt x="623" y="657" on="0"/>
        <pt x="624" y="656" on="1"/>
        <pt x="624" y="656" on="0"/>
        <pt x="626" y="656" on="0"/>
        <pt x="628" y="657" on="0"/>
        <pt x="629" y="658" on="0"/>
        <pt x="629" y="658" on="1"/>
        <pt x="630" y="657" on="0"/>
        <pt x="628" y="656" on="0"/>
        <pt x="626" y="655" on="0"/>
        <pt x="624" y="654" on="0"/>
      </contour>
    </TTGlyph>
    <TTGlyph name="C.2" xMin="103" yMin="305" xMax="118" yMax="321">
      <contour>
        <pt x="112" y="314" on="1"/>
        <pt x="112" y="313" on="0"/>
        <pt x="114" y="312" on="0"/>
        <pt x="116" y="311" on="0"/>
        <pt x="117" y="310" on="0"/>
        <pt x="117" y="309" on="1"/>
        <pt x="116" y="309" on="0"/>
        <pt x="115" y="309" on="0"/>
        <pt x="114" y="310" on="0"/>
        <pt x="112" y="312" on="0"/>
        <pt x="111" y="313" on="0"/>
        <pt x="111" y="312" on="1"/>
        <pt x="111" y="312" on="0"/>
        <pt x="111" y="310" on="0"/>
        <pt x="111" y="308" on="0"/>
        <pt x="111" y="306" on="0"/>
        <pt x="111" y="305" on="0"/>
        <pt x="110" y="305" on="1"/>
        <pt x="110" y="305" on="0"/>
        <pt x="109" y="306" on="0"/>
        <pt x="110" y="308" on="0"/>
        <pt x="110" y="311" on="0"/>
        <pt x="110" y="313" on="0"/>
        <pt x="109" y="313" on="1"/>
        <pt x="109" y="314" on="0"/>
        <pt x="107" y="313" on="0"/>
        <pt x="105" y="311" on="0"/>
        <pt x="103" y="310" on="0"/>
        <pt x="103" y="311" on="1"/>
        <pt x="103" y="311" on="0"/>
        <pt x="104" y="312" on="0"/>
        <pt x="106" y="313" on="0"/>
        <pt x="108" y="315" on="0"/>
        <pt x="108" y="315" on="1"/>
        <pt x="108" y="316" on="0"/>
        <pt x="107" y="317" on="0"/>
        <pt x="105" y="317" on="0"/>
        <pt x="103" y="318" on="0"/>
        <pt x="103" y="319" on="1"/>
        <pt x="104" y="319" on="0"/>
        <pt x="105" y="318" on="0"/>
        <pt x="107" y="317" on="0"/>
        <pt x="109" y="316" on="0"/>
        <pt x="110" y="317" on="1"/>
        <pt x="110" y="317" on="0"/>
        <pt x="110" y="318" on="0"/>
        <pt x="110" y="320" on="0"/>
        <pt x="110" y="321" on="0"/>
        <pt x="110" y="321" on="1"/>
        <pt x="111" y="321" on="0"/>
        <pt x="112" y="320" on="0"/>
        <pt x="111" y="319" on="0"/>
        <pt x="111" y="317" on="0"/>
        <pt x="112" y="316" on="1"/>
        <pt x="112" y="316" on="0"/>
        <pt x="114" y="316" on="0"/>
        <pt x="116" y="317" on="0"/>
        <pt x="117" y="318" on="0"/>
        <pt x="117" y="318" on="1"/>
        <pt x="118" y="317" on="0"/>
        <pt x="116" y="316" on="0"/>
        <pt x="114" y="315" on="0"/>
        <pt x="112" y="314" on="0"/>
      </contour>
    </TTGlyph>
    <TTGlyph name="C.3" xMin="643" yMin="59" xMax="658" yMax="75">
      <contour>
        <pt x="652" y="68" on="1"/>
        <pt x="652" y="67" on="0"/>
        <pt x="654" y="66" on="0"/>
        <pt x="656" y="65" on="0"/>
        <pt x="657" y="64" on="0"/>
        <pt x="657" y="63" on="1"/>
        <pt x="656" y="63" on="0"/>
        <pt x="655" y="63" on="0"/>
        <pt x="654" y="64" on="0"/>
        <pt x="652" y="66" on="0"/>
        <pt x="651" y="67" on="0"/>
        <pt x="651" y="66" on="1"/>
        <pt x="651" y="66" on="0"/>
        <pt x="651" y="64" on="0"/>
        <pt x="651" y="62" on="0"/>
        <pt x="651" y="60" on="0"/>
        <pt x="651" y="59" on="0"/>
        <pt x="650" y="59" on="1"/>
        <pt x="650" y="59" on="0"/>
        <pt x="649" y="60" on="0"/>
        <pt x="650" y="62" on="0"/>
        <pt x="650" y="65" on="0"/>
        <pt x="650" y="67" on="0"/>
        <pt x="649" y="67" on="1"/>
        <pt x="649" y="68" on="0"/>
        <pt x="647" y="67" on="0"/>
        <pt x="645" y="65" on="0"/>
        <pt x="643" y="64" on="0"/>
        <pt x="643" y="65" on="1"/>
        <pt x="643" y="65" on="0"/>
        <pt x="644" y="66" on="0"/>
        <pt x="646" y="67" on="0"/>
        <pt x="648" y="69" on="0"/>
        <pt x="648" y="69" on="1"/>
        <pt x="648" y="70" on="0"/>
        <pt x="647" y="71" on="0"/>
        <pt x="645" y="71" on="0"/>
        <pt x="643" y="72" on="0"/>
        <pt x="643" y="73" on="1"/>
        <pt x="644" y="73" on="0"/>
        <pt x="645" y="72" on="0"/>
        <pt x="647" y="71" on="0"/>
        <pt x="649" y="70" on="0"/>
        <pt x="650" y="71" on="1"/>
        <pt x="650" y="71" on="0"/>
        <pt x="650" y="72" on="0"/>
        <pt x="650" y="74" on="0"/>
        <pt x="650" y="75" on="0"/>
        <pt x="650" y="75" on="1"/>
        <pt x="651" y="75" on="0"/>
        <pt x="652" y="74" on="0"/>
        <pt x="651" y="73" on="0"/>
        <pt x="651" y="71" on="0"/>
        <pt x="652" y="70" on="1"/>
        <pt x="652" y="70" on="0"/>
        <pt x="654" y="70" on="0"/>
        <pt x="656" y="71" on="0"/>
        <pt x="657" y="72" on="0"/>
        <pt x="657" y="72" on="1"/>
        <pt x="658" y="71" on="0"/>
        <pt x="656" y="70" on="0"/>
        <pt x="654" y="69" on="0"/>
        <pt x="652" y="68" on="0"/>
      </contour>
    </TTGlyph>
    <TTGlyph name="D" xMin="-30" yMin="-7" xMax="944" yMax="820">
      <contour>
        <pt x="193" y="80" on="1"/>
        <pt x="194" y="721" on="1"/>
        <pt x="-30" y="721" on="1"/>
        <pt x="35" y="820" on="1"/>
        <pt x="944" y="820" on="1"/>
        <pt x="879" y="721" on="1"/>
        <pt x="623" y="721" on="1"/>
        <pt x="673" y="697" on="0"/>
        <pt x="756" y="594" on="0"/>
        <pt x="806" y="453" on="0"/>
        <pt x="806" y="373" on="1"/>
        <pt x="806" y="299" on="0"/>
        <pt x="753" y="177" on="0"/>
        <pt x="673" y="85" on="0"/>
        <pt x="589" y="26" on="0"/>
        <pt x="559" y="15" on="1"/>
        <pt x="558" y="15" on="0"/>
        <pt x="521" y="10" on="0"/>
        <pt x="472" y="6" on="0"/>
        <pt x="435" y="3" on="0"/>
        <pt x="433" y="4" on="1"/>
        <pt x="194" y="-7" on="1"/>
        <pt x="65" y="-5" on="1"/>
        <pt x="65" y="82" on="1"/>
        <pt x="63" y="152" on="1"/>
        <pt x="147" y="82" on="1"/>
      </contour>
      <contour>
        <pt x="686" y="394" on="1"/>
        <pt x="686" y="462" on="0"/>
        <pt x="652" y="583" on="0"/>
        <pt x="593" y="674" on="0"/>
        <pt x="515" y="726" on="0"/>
        <pt x="470" y="726" on="1"/>
        <pt x="448" y="726" on="0"/>
        <pt x="408" y="735" on="0"/>
        <pt x="374" y="738" on="0"/>
        <pt x="343" y="723" on="0"/>
        <pt x="328" y="700" on="1"/>
        <pt x="314" y="678" on="0"/>
        <pt x="296" y="581" on="0"/>
        <pt x="288" y="454" on="0"/>
        <pt x="290" y="318" on="0"/>
        <pt x="303" y="194" on="0"/>
        <pt x="328" y="101" on="0"/>
        <pt x="346" y="81" on="1"/>
        <pt x="364" y="62" on="0"/>
        <pt x="403" y="55" on="0"/>
        <pt x="447" y="61" on="0"/>
        <pt x="470" y="61" on="1"/>
        <pt x="515" y="61" on="0"/>
        <pt x="593" y="113" on="0"/>
        <pt x="652" y="204" on="0"/>
        <pt x="686" y="325" on="0"/>
      </contour>
    </TTGlyph>
    <TTGlyph name="D.0" xMin="-30" yMin="-7" xMax="944" yMax="820">
      <component glyphName="D" x="0" y="0" flags="0x204"/>
    </TTGlyph>
    <TTGlyph name="D.1" xMin="182" yMin="683" xMax="197" yMax="699">
      <contour>
        <pt x="191" y="692" on="1"/>
        <pt x="191" y="691" on="0"/>
        <pt x="193" y="690" on="0"/>
        <pt x="195" y="689" on="0"/>
        <pt x="196" y="688" on="0"/>
        <pt x="196" y="687" on="1"/>
        <pt x="195" y="687" on="0"/>
        <pt x="194" y="687" on="0"/>
        <pt x="193" y="688" on="0"/>
        <pt x="191" y="690" on="0"/>
        <pt x="190" y="691" on="0"/>
        <pt x="190" y="690" on="1"/>
        <pt x="190" y="690" on="0"/>
        <pt x="190" y="688" on="0"/>
        <pt x="190" y="686" on="0"/>
        <pt x="190" y="684" on="0"/>
        <pt x="190" y="683" on="0"/>
        <pt x="189" y="683" on="1"/>
        <pt x="189" y="683" on="0"/>
        <pt x="188" y="684" on="0"/>
        <pt x="189" y="686" on="0"/>
        <pt x="189" y="689" on="0"/>
        <pt x="189" y="691" on="0"/>
        <pt x="188" y="691" on="1"/>
        <pt x="188" y="692" on="0"/>
        <pt x="186" y="691" on="0"/>
        <pt x="184" y="689" on="0"/>
        <pt x="182" y="688" on="0"/>
        <pt x="182" y="689" on="1"/>
        <pt x="182" y="689" on="0"/>
        <pt x="183" y="690" on="0"/>
        <pt x="185" y="691" on="0"/>
        <pt x="187" y="693" on="0"/>
        <pt x="187" y="693" on="1"/>
        <pt x="187" y="694" on="0"/>
        <pt x="186" y="695" on="0"/>
        <pt x="184" y="695" on="0"/>
        <pt x="182" y="696" on="0"/>
        <pt x="182" y="697" on="1"/>
        <pt x="183" y="697" on="0"/>
        <pt x="184" y="696" on="0"/>
        <pt x="186" y="695" on="0"/>
        <pt x="188" y="694" on="0"/>
        <pt x="189" y="695" on="1"/>
        <pt x="189" y="695" on="0"/>
        <pt x="189" y="696" on="0"/>
        <pt x="189" y="698" on="0"/>
        <pt x="189" y="699" on="0"/>
        <pt x="189" y="699" on="1"/>
        <pt x="190" y="699" on="0"/>
        <pt x="191" y="698" on="0"/>
        <pt x="190" y="697" on="0"/>
        <pt x="190" y="695" on="0"/>
        <pt x="191" y="694" on="1"/>
        <pt x="191" y="694" on="0"/>
        <pt x="193" y="694" on="0"/>
        <pt x="195" y="695" on="0"/>
        <pt x="196" y="696" on="0"/>
        <pt x="196" y="696" on="1"/>
        <pt x="197" y="695" on="0"/>
        <pt x="195" y="694" on="0"/>
        <pt x="193" y="693" on="0"/>
        <pt x="191" y="692" on="0"/>
      </contour>
    </TTGlyph>
    <TTGlyph name="D.2" xMin="745" yMin="407" xMax="760" yMax="423">
      <contour>
        <pt x="754" y="416" on="1"/>
        <pt x="754" y="415" on="0"/>
        <pt x="756" y="414" on="0"/>
        <pt x="758" y="413" on="0"/>
        <pt x="759" y="412" on="0"/>
        <pt x="759" y="411" on="1"/>
        <pt x="758" y="411" on="0"/>
        <pt x="757" y="411" on="0"/>
        <pt x="756" y="412" on="0"/>
        <pt x="754" y="414" on="0"/>
        <pt x="753" y="415" on="0"/>
        <pt x="753" y="414" on="1"/>
        <pt x="753" y="414" on="0"/>
        <pt x="753" y="412" on="0"/>
        <pt x="753" y="410" on="0"/>
        <pt x="753" y="408" on="0"/>
        <pt x="753" y="407" on="0"/>
        <pt x="752" y="407" on="1"/>
        <pt x="752" y="407" on="0"/>
        <pt x="751" y="408" on="0"/>
        <pt x="752" y="410" on="0"/>
        <pt x="752" y="413" on="0"/>
        <pt x="752" y="415" on="0"/>
        <pt x="751" y="415" on="1"/>
        <pt x="751" y="416" on="0"/>
        <pt x="749" y="415" on="0"/>
        <pt x="747" y="413" on="0"/>
        <pt x="745" y="412" on="0"/>
        <pt x="745" y="413" on="1"/>
        <pt x="745" y="413" on="0"/>
        <pt x="746" y="414" on="0"/>
        <pt x="748" y="415" on="0"/>
        <pt x="750" y="417" on="0"/>
        <pt x="750" y="417" on="1"/>
        <pt x="750" y="418" on="0"/>
        <pt x="749" y="419" on="0"/>
        <pt x="747" y="419" on="0"/>
        <pt x="745" y="420" on="0"/>
        <pt x="745" y="421" on="1"/>
        <pt x="746" y="421" on="0"/>
        <pt x="747" y="420" on="0"/>
        <pt x="749" y="419" on="0"/>
        <pt x="751" y="418" on="0"/>
        <pt x="752" y="419" on="1"/>
        <pt x="752" y="419" on="0"/>
        <pt x="752" y="420" on="0"/>
        <pt x="752" y="422" on="0"/>
        <pt x="752" y="423" on="0"/>
        <pt x="752" y="423" on="1"/>
        <pt x="753" y="423" on="0"/>
        <pt x="754" y="422" on="0"/>
        <pt x="753" y="421" on="0"/>
        <pt x="753" y="419" on="0"/>
        <pt x="754" y="418" on="1"/>
        <pt x="754" y="418" on="0"/>
        <pt x="756" y="418" on="0"/>
        <pt x="758" y="419" on="0"/>
        <pt x="759" y="420" on="0"/>
        <pt x="759" y="420" on="1"/>
        <pt x="760" y="419" on="0"/>
        <pt x="758" y="418" on="0"/>
        <pt x="756" y="417" on="0"/>
        <pt x="754" y="416" on="0"/>
      </contour>
    </TTGlyph>
    <TTGlyph name="D.3" xMin="256" yMin="97" xMax="271" yMax="113">
      <contour>
        <pt x="265" y="106" on="1"/>
        <pt x="265" y="105" on="0"/>
        <pt x="267" y="104" on="0"/>
        <pt x="269" y="103" on="0"/>
        <pt x="270" y="102" on="0"/>
        <pt x="270" y="101" on="1"/>
        <pt x="269" y="101" on="0"/>
        <pt x="268" y="101" on="0"/>
        <pt x="267" y="102" on="0"/>
        <pt x="265" y="104" on="0"/>
        <pt x="264" y="105" on="0"/>
        <pt x="264" y="104" on="1"/>
        <pt x="264" y="104" on="0"/>
        <pt x="264" y="102" on="0"/>
        <pt x="264" y="100" on="0"/>
        <pt x="264" y="98" on="0"/>
        <pt x="264" y="97" on="0"/>
        <pt x="263" y="97" on="1"/>
        <pt x="263" y="97" on="0"/>
        <pt x="262" y="98" on="0"/>
        <pt x="263" y="100" on="0"/>
        <pt x="263" y="103" on="0"/>
        <pt x="263" y="105" on="0"/>
        <pt x="262" y="105" on="1"/>
        <pt x="262" y="106" on="0"/>
        <pt x="260" y="105" on="0"/>
        <pt x="258" y="103" on="0"/>
        <pt x="256" y="102" on="0"/>
        <pt x="256" y="103" on="1"/>
        <pt x="256" y="103" on="0"/>
        <pt x="257" y="104" on="0"/>
        <pt x="259" y="105" on="0"/>
        <pt x="261" y="107" on="0"/>
        <pt x="261" y="107" on="1"/>
        <pt x="261" y="108" on="0"/>
        <pt x="260" y="109" on="0"/>
        <pt x="258" y="109" on="0"/>
        <pt x="256" y="110" on="0"/>
        <pt x="256" y="111" on="1"/>
        <pt x="257" y="111" on="0"/>
        <pt x="258" y="110" on="0"/>
        <pt x="260" y="109" on="0"/>
        <pt x="262" y="108" on="0"/>
        <pt x="263" y="109" on="1"/>
        <pt x="263" y="109" on="0"/>
        <pt x="263" y="110" on="0"/>
        <pt x="263" y="112" on="0"/>
        <pt x="263" y="113" on="0"/>
        <pt x="263" y="113" on="1"/>
        <pt x="264" y="113" on="0"/>
        <pt x="265" y="112" on="0"/>
        <pt x="264" y="111" on="0"/>
        <pt x="264" y="109" on="0"/>
        <pt x="265" y="108" on="1"/>
        <pt x="265" y="108" on="0"/>
        <pt x="267" y="108" on="0"/>
        <pt x="269" y="109" on="0"/>
        <pt x="270" y="110" on="0"/>
        <pt x="270" y="110" on="1"/>
        <pt x="271" y="109" on="0"/>
        <pt x="269" y="108" on="0"/>
        <pt x="267" y="107" on="0"/>
        <pt x="265" y="106" on="0"/>
      </contour>
    </TTGlyph>
    <TTGlyph name="E" xMin="-30" yMin="-7" xMax="769" yMax="820">
      <contour>
        <pt x="193" y="80" on="1"/>
        <pt x="194" y="721" on="1"/>
        <pt x="-30" y="721" on="1"/>
        <pt x="35" y="820" on="1"/>
        <pt x="769" y="820" on="1"/>
        <pt x="704" y="721" on="1"/>
        <pt x="331" y="721" on="1"/>
        <pt x="332" y="422" on="1"/>
        <pt x="392" y="422" on="1"/>
        <pt x="501" y="492" on="1"/>
        <pt x="499" y="422" on="1"/>
        <pt x="499" y="335" on="1"/>
        <pt x="332" y="335" on="1"/>
        <pt x="332" y="320" on="1"/>
        <pt x="331" y="82" on="1"/>
        <pt x="593" y="82" on="1"/>
        <pt x="677" y="152" on="1"/>
        <pt x="675" y="82" on="1"/>
        <pt x="675" y="-5" on="1"/>
        <pt x="194" y="-7" on="1"/>
        <pt x="65" y="-5" on="1"/>
        <pt x="65" y="82" on="1"/>
        <pt x="63" y="152" on="1"/>
        <pt x="147" y="82" on="1"/>
      </contour>
    </TTGlyph>
    <TTGlyph name="E.0" xMin="-30" yMin="-7" xMax="769" yMax="820">
      <component glyphName="E" x="0" y="0" flags="0x204"/>
    </TTGlyph>
    <TTGlyph name="E.1" xMin="102" yMin="730" xMax="117" yMax="746">
      <contour>
        <pt x="111" y="739" on="1"/>
        <pt x="111" y="738" on="0"/>
        <pt x="113" y="737" on="0"/>
        <pt x="115" y="736" on="0"/>
        <pt x="116" y="735" on="0"/>
        <pt x="116" y="734" on="1"/>
        <pt x="115" y="734" on="0"/>
        <pt x="114" y="734" on="0"/>
        <pt x="113" y="735" on="0"/>
        <pt x="111" y="737" on="0"/>
        <pt x="110" y="738" on="0"/>
        <pt x="110" y="737" on="1"/>
        <pt x="110" y="737" on="0"/>
        <pt x="110" y="735" on="0"/>
        <pt x="110" y="733" on="0"/>
        <pt x="110" y="731" on="0"/>
        <pt x="110" y="730" on="0"/>
        <pt x="109" y="730" on="1"/>
        <pt x="109" y="730" on="0"/>
        <pt x="108" y="731" on="0"/>
        <pt x="109" y="733" on="0"/>
        <pt x="109" y="736" on="0"/>
        <pt x="109" y="738" on="0"/>
        <pt x="108" y="738" on="1"/>
        <pt x="108" y="739" on="0"/>
        <pt x="106" y="738" on="0"/>
        <pt x="104" y="736" on="0"/>
        <pt x="102" y="735" on="0"/>
        <pt x="102" y="736" on="1"/>
        <pt x="102" y="736" on="0"/>
        <pt x="103" y="737" on="0"/>
        <pt x="105" y="738" on="0"/>
        <pt x="107" y="740" on="0"/>
        <pt x="107" y="740" on="1"/>
        <pt x="107" y="741" on="0"/>
        <pt x="106" y="742" on="0"/>
        <pt x="104" y="742" on="0"/>
        <pt x="102" y="743" on="0"/>
        <pt x="102" y="744" on="1"/>
        <pt x="103" y="744" on="0"/>
        <pt x="104" y="743" on="0"/>
        <pt x="106" y="742" on="0"/>
        <pt x="108" y="741" on="0"/>
        <pt x="109" y="742" on="1"/>
        <pt x="109" y="742" on="0"/>
        <pt x="109" y="743" on="0"/>
        <pt x="109" y="745" on="0"/>
        <pt x="109" y="746" on="0"/>
        <pt x="109" y="746" on="1"/>
        <pt x="110" y="746" on="0"/>
        <pt x="111" y="745" on="0"/>
        <pt x="110" y="744" on="0"/>
        <pt x="110" y="742" on="0"/>
        <pt x="111" y="741" on="1"/>
        <pt x="111" y="741" on="0"/>
        <pt x="113" y="741" on="0"/>
        <pt x="115" y="742" on="0"/>
        <pt x="116" y="743" on="0"/>
        <pt x="116" y="743" on="1"/>
        <pt x="117" y="742" on="0"/>
        <pt x="115" y="741" on="0"/>
        <pt x="113" y="740" on="0"/>
        <pt x="111" y="739" on="0"/>
      </contour>
    </TTGlyph>
    <TTGlyph name="E.2" xMin="494" yMin="378" xMax="509" yMax="394">
      <contour>
        <pt x="503" y="387" on="1"/>
        <pt x="503" y="386" on="0"/>
        <pt x="505" y="385" on="0"/>
        <pt x="507" y="384" on="0"/>
        <pt x="508" y="383" on="0"/>
        <pt x="508" y="382" on="1"/>
        <pt x="507" y="382" on="0"/>
        <pt x="506" y="382" on="0"/>
        <pt x="505" y="383" on="0"/>
        <pt x="503" y="385" on="0"/>
        <pt x="502" y="386" on="0"/>
        <pt x="502" y="385" on="1"/>
        <pt x="502" y="385" on="0"/>
        <pt x="502" y="383" on="0"/>
        <pt x="502" y="381" on="0"/>
        <pt x="502" y="379" on="0"/>
        <pt x="502" y="378" on="0"/>
        <pt x="501" y="378" on="1"/>
        <pt x="501" y="378" on="0"/>
        <pt x="500" y="379" on="0"/>
        <pt x="501" y="381" on="0"/>
        <pt x="501" y="384" on="0"/>
        <pt x="501" y="386" on="0"/>
        <pt x="500" y="386" on="1"/>
        <pt x="500" y="387" on="0"/>
        <pt x="498" y="386" on="0"/>
        <pt x="496" y="384" on="0"/>
        <pt x="494" y="383" on="0"/>
        <pt x="494" y="384" on="1"/>
        <pt x="494" y="384" on="0"/>
        <pt x="495" y="385" on="0"/>
        <pt x="497" y="386" on="0"/>
        <pt x="499" y="388" on="0"/>
        <pt x="499" y="388" on="1"/>
        <pt x="499" y="389" on="0"/>
        <pt x="498" y="390" on="0"/>
        <pt x="496" y="390" on="0"/>
        <pt x="494" y="391" on="0"/>
        <pt x="494" y="392" on="1"/>
        <pt x="495" y="392" on="0"/>
        <pt x="496" y="391" on="0"/>
        <pt x="498" y="390" on="0"/>
        <pt x="500" y="389" on="0"/>
        <pt x="501" y="390" on="1"/>
        <pt x="501" y="390" on="0"/>
        <pt x="501" y="391" on="0"/>
        <pt x="501" y="393" on="0"/>
        <pt x="501" y="394" on="0"/>
        <pt x="501" y="394" on="1"/>
        <pt x="502" y="394" on="0"/>
        <pt x="503" y="393" on="0"/>
        <pt x="502" y="392" on="0"/>
        <pt x="502" y="390" on="0"/>
        <pt x="503" y="389" on="1"/>
        <pt x="503" y="389" on="0"/>
        <pt x="505" y="389" on="0"/>
        <pt x="507" y="390" on="0"/>
        <pt x="508" y="391" on="0"/>
        <pt x="508" y="391" on="1"/>
        <pt x="509" y="390" on="0"/>
        <pt x="507" y="389" on="0"/>
        <pt x="505" y="388" on="0"/>
        <pt x="503" y="387" on="0"/>
      </contour>
    </TTGlyph>
    <TTGlyph name="E.3" xMin="176" yMin="17" xMax="191" yMax="33">
      <contour>
        <pt x="185" y="26" on="1"/>
        <pt x="185" y="25" on="0"/>
        <pt x="187" y="24" on="0"/>
        <pt x="189" y="23" on="0"/>
        <pt x="190" y="22" on="0"/>
        <pt x="190" y="21" on="1"/>
        <pt x="189" y="21" on="0"/>
        <pt x="188" y="21" on="0"/>
        <pt x="187" y="22" on="0"/>
        <pt x="185" y="24" on="0"/>
        <pt x="184" y="25" on="0"/>
        <pt x="184" y="24" on="1"/>
        <pt x="184" y="24" on="0"/>
        <pt x="184" y="22" on="0"/>
        <pt x="184" y="20" on="0"/>
        <pt x="184" y="18" on="0"/>
        <pt x="184" y="17" on="0"/>
        <pt x="183" y="17" on="1"/>
        <pt x="183" y="17" on="0"/>
        <pt x="182" y="18" on="0"/>
        <pt x="183" y="20" on="0"/>
        <pt x="183" y="23" on="0"/>
        <pt x="183" y="25" on="0"/>
        <pt x="182" y="25" on="1"/>
        <pt x="182" y="26" on="0"/>
        <pt x="180" y="25" on="0"/>
        <pt x="178" y="23" on="0"/>
        <pt x="176" y="22" on="0"/>
        <pt x="176" y="23" on="1"/>
        <pt x="176" y="23" on="0"/>
        <pt x="177" y="24" on="0"/>
        <pt x="179" y="25" on="0"/>
        <pt x="181" y="27" on="0"/>
        <pt x="181" y="27" on="1"/>
        <pt x="181" y="28" on="0"/>
        <pt x="180" y="29" on="0"/>
        <pt x="178" y="29" on="0"/>
        <pt x="176" y="30" on="0"/>
        <pt x="176" y="31" on="1"/>
        <pt x="177" y="31" on="0"/>
        <pt x="178" y="30" on="0"/>
        <pt x="180" y="29" on="0"/>
        <pt x="182" y="28" on="0"/>
        <pt x="183" y="29" on="1"/>
        <pt x="183" y="29" on="0"/>
        <pt x="183" y="30" on="0"/>
        <pt x="183" y="32" on="0"/>
        <pt x="183" y="33" on="0"/>
        <pt x="183" y="33" on="1"/>
        <pt x="184" y="33" on="0"/>
        <pt x="185" y="32" on="0"/>
        <pt x="184" y="31" on="0"/>
        <pt x="184" y="29" on="0"/>
        <pt x="185" y="28" on="1"/>
        <pt x="185" y="28" on="0"/>
        <pt x="187" y="28" on="0"/>
        <pt x="189" y="29" on="0"/>
        <pt x="190" y="30" on="0"/>
        <pt x="190" y="30" on="1"/>
        <pt x="191" y="29" on="0"/>
        <pt x="189" y="28" on="0"/>
        <pt x="187" y="27" on="0"/>
        <pt x="185" y="26" on="0"/>
      </contour>
    </TTGlyph>
    <TTGlyph name="F" xMin="-30" yMin="-10" xMax="845" yMax="820">
      <contour>
        <pt x="193" y="80" on="1"/>
        <pt x="194" y="721" on="1"/>
        <pt x="-30" y="721" on="1"/>
        <pt x="35" y="820" on="1"/>
        <pt x="845" y="820" on="1"/>
        <pt x="780" y="721" on="1"/>
        <pt x="331" y="721" on="1"/>
        <pt x="332" y="422" on="1"/>
        <pt x="468" y="422" on="1"/>
        <pt x="553" y="492" on="1"/>
        <pt x="551" y="422" on="1"/>
        <pt x="551" y="335" on="1"/>
        <pt x="332" y="335" on="1"/>
        <pt x="332" y="320" on="1"/>
        <pt x="331" y="82" on="1"/>
        <pt x="333" y="-10" on="1"/>
        <pt x="65" y="-5" on="1"/>
        <pt x="65" y="82" on="1"/>
        <pt x="63" y="152" on="1"/>
        <pt x="147" y="82" on="1"/>
      </contour>
    </TTGlyph>
    <TTGlyph name="F.0" xMin="-30" yMin="-10" xMax="845" yMax="820">
      <component glyphName="F" x="0" y="0" flags="0x204"/>
    </TTGlyph>
    <TTGlyph name="F.1" xMin="93" yMin="734" xMax="108" yMax="750">
      <contour>
        <pt x="102" y="743" on="1"/>
        <pt x="102" y="742" on="0"/>
        <pt x="104" y="741" on="0"/>
        <pt x="106" y="740" on="0"/>
        <pt x="107" y="739" on="0"/>
        <pt x="107" y="738" on="1"/>
        <pt x="106" y="738" on="0"/>
        <pt x="105" y="738" on="0"/>
        <pt x="104" y="739" on="0"/>
        <pt x="102" y="741" on="0"/>
        <pt x="101" y="742" on="0"/>
        <pt x="101" y="741" on="1"/>
        <pt x="101" y="741" on="0"/>
        <pt x="101" y="739" on="0"/>
        <pt x="101" y="737" on="0"/>
        <pt x="101" y="735" on="0"/>
        <pt x="101" y="734" on="0"/>
        <pt x="100" y="734" on="1"/>
        <pt x="100" y="734" on="0"/>
        <pt x="99" y="735" on="0"/>
        <pt x="100" y="737" on="0"/>
        <pt x="100" y="740" on="0"/>
        <pt x="100" y="742" on="0"/>
        <pt x="99" y="742" on="1"/>
        <pt x="99" y="743" on="0"/>
        <pt x="97" y="742" on="0"/>
        <pt x="95" y="740" on="0"/>
        <pt x="93" y="739" on="0"/>
        <pt x="93" y="740" on="1"/>
        <pt x="93" y="740" on="0"/>
        <pt x="94" y="741" on="0"/>
        <pt x="96" y="742" on="0"/>
        <pt x="98" y="744" on="0"/>
        <pt x="98" y="744" on="1"/>
        <pt x="98" y="745" on="0"/>
        <pt x="97" y="746" on="0"/>
        <pt x="95" y="746" on="0"/>
        <pt x="93" y="747" on="0"/>
        <pt x="93" y="748" on="1"/>
        <pt x="94" y="748" on="0"/>
        <pt x="95" y="747" on="0"/>
        <pt x="97" y="746" on="0"/>
        <pt x="99" y="745" on="0"/>
        <pt x="100" y="746" on="1"/>
        <pt x="100" y="746" on="0"/>
        <pt x="100" y="747" on="0"/>
        <pt x="100" y="749" on="0"/>
        <pt x="100" y="750" on="0"/>
        <pt x="100" y="750" on="1"/>
        <pt x="101" y="750" on="0"/>
        <pt x="102" y="749" on="0"/>
        <pt x="101" y="748" on="0"/>
        <pt x="101" y="746" on="0"/>
        <pt x="102" y="745" on="1"/>
        <pt x="102" y="745" on="0"/>
        <pt x="104" y="745" on="0"/>
        <pt x="106" y="746" on="0"/>
        <pt x="107" y="747" on="0"/>
        <pt x="107" y="747" on="1"/>
        <pt x="108" y="746" on="0"/>
        <pt x="106" y="745" on="0"/>
        <pt x="104" y="744" on="0"/>
        <pt x="102" y="743" on="0"/>
      </contour>
    </TTGlyph>
    <TTGlyph name="F.2" xMin="753" yMin="743" xMax="768" yMax="759">
      <contour>
        <pt x="762" y="752" on="1"/>
        <pt x="762" y="751" on="0"/>
        <pt x="764" y="750" on="0"/>
        <pt x="766" y="749" on="0"/>
        <pt x="767" y="748" on="0"/>
        <pt x="767" y="747" on="1"/>
        <pt x="766" y="747" on="0"/>
        <pt x="765" y="747" on="0"/>
        <pt x="764" y="748" on="0"/>
        <pt x="762" y="750" on="0"/>
        <pt x="761" y="751" on="0"/>
        <pt x="761" y="750" on="1"/>
        <pt x="761" y="750" on="0"/>
        <pt x="761" y="748" on="0"/>
        <pt x="761" y="746" on="0"/>
        <pt x="761" y="744" on="0"/>
        <pt x="761" y="743" on="0"/>
        <pt x="760" y="743" on="1"/>
        <pt x="760" y="743" on="0"/>
        <pt x="759" y="744" on="0"/>
        <pt x="760" y="746" on="0"/>
        <pt x="760" y="749" on="0"/>
        <pt x="760" y="751" on="0"/>
        <pt x="759" y="751" on="1"/>
        <pt x="759" y="752" on="0"/>
        <pt x="757" y="751" on="0"/>
        <pt x="755" y="749" on="0"/>
        <pt x="753" y="748" on="0"/>
        <pt x="753" y="749" on="1"/>
        <pt x="753" y="749" on="0"/>
        <pt x="754" y="750" on="0"/>
        <pt x="756" y="751" on="0"/>
        <pt x="758" y="753" on="0"/>
        <pt x="758" y="753" on="1"/>
        <pt x="758" y="754" on="0"/>
        <pt x="757" y="755" on="0"/>
        <pt x="755" y="755" on="0"/>
        <pt x="753" y="756" on="0"/>
        <pt x="753" y="757" on="1"/>
        <pt x="754" y="757" on="0"/>
        <pt x="755" y="756" on="0"/>
        <pt x="757" y="755" on="0"/>
        <pt x="759" y="754" on="0"/>
        <pt x="760" y="755" on="1"/>
        <pt x="760" y="755" on="0"/>
        <pt x="760" y="756" on="0"/>
        <pt x="760" y="758" on="0"/>
        <pt x="760" y="759" on="0"/>
        <pt x="760" y="759" on="1"/>
        <pt x="761" y="759" on="0"/>
        <pt x="762" y="758" on="0"/>
        <pt x="761" y="757" on="0"/>
        <pt x="761" y="755" on="0"/>
        <pt x="762" y="754" on="1"/>
        <pt x="762" y="754" on="0"/>
        <pt x="764" y="754" on="0"/>
        <pt x="766" y="755" on="0"/>
        <pt x="767" y="756" on="0"/>
        <pt x="767" y="756" on="1"/>
        <pt x="768" y="755" on="0"/>
        <pt x="766" y="754" on="0"/>
        <pt x="764" y="753" on="0"/>
        <pt x="762" y="752" on="0"/>
      </contour>
    </TTGlyph>
    <TTGlyph name="F.3" xMin="277" yMin="85" xMax="292" yMax="101">
      <contour>
        <pt x="286" y="94" on="1"/>
        <pt x="286" y="93" on="0"/>
        <pt x="288" y="92" on="0"/>
        <pt x="290" y="91" on="0"/>
        <pt x="291" y="90" on="0"/>
        <pt x="291" y="89" on="1"/>
        <pt x="290" y="89" on="0"/>
        <pt x="289" y="89" on="0"/>
        <pt x="288" y="90" on="0"/>
        <pt x="286" y="92" on="0"/>
        <pt x="285" y="93" on="0"/>
        <pt x="285" y="92" on="1"/>
        <pt x="285" y="92" on="0"/>
        <pt x="285" y="90" on="0"/>
        <pt x="285" y="88" on="0"/>
        <pt x="285" y="86" on="0"/>
        <pt x="285" y="85" on="0"/>
        <pt x="284" y="85" on="1"/>
        <pt x="284" y="85" on="0"/>
        <pt x="283" y="86" on="0"/>
        <pt x="284" y="88" on="0"/>
        <pt x="284" y="91" on="0"/>
        <pt x="284" y="93" on="0"/>
        <pt x="283" y="93" on="1"/>
        <pt x="283" y="94" on="0"/>
        <pt x="281" y="93" on="0"/>
        <pt x="279" y="91" on="0"/>
        <pt x="277" y="90" on="0"/>
        <pt x="277" y="91" on="1"/>
        <pt x="277" y="91" on="0"/>
        <pt x="278" y="92" on="0"/>
        <pt x="280" y="93" on="0"/>
        <pt x="282" y="95" on="0"/>
        <pt x="282" y="95" on="1"/>
        <pt x="282" y="96" on="0"/>
        <pt x="281" y="97" on="0"/>
        <pt x="279" y="97" on="0"/>
        <pt x="277" y="98" on="0"/>
        <pt x="277" y="99" on="1"/>
        <pt x="278" y="99" on="0"/>
        <pt x="279" y="98" on="0"/>
        <pt x="281" y="97" on="0"/>
        <pt x="283" y="96" on="0"/>
        <pt x="284" y="97" on="1"/>
        <pt x="284" y="97" on="0"/>
        <pt x="284" y="98" on="0"/>
        <pt x="284" y="100" on="0"/>
        <pt x="284" y="101" on="0"/>
        <pt x="284" y="101" on="1"/>
        <pt x="285" y="101" on="0"/>
        <pt x="286" y="100" on="0"/>
        <pt x="285" y="99" on="0"/>
        <pt x="285" y="97" on="0"/>
        <pt x="286" y="96" on="1"/>
        <pt x="286" y="96" on="0"/>
        <pt x="288" y="96" on="0"/>
        <pt x="290" y="97" on="0"/>
        <pt x="291" y="98" on="0"/>
        <pt x="291" y="98" on="1"/>
        <pt x="292" y="97" on="0"/>
        <pt x="290" y="96" on="0"/>
        <pt x="288" y="95" on="0"/>
        <pt x="286" y="94" on="0"/>
      </contour>
    </TTGlyph>
    <TTGlyph name="G" xMin="-30" yMin="-4" xMax="982" yMax="820">
      <contour>
        <pt x="727" y="207" on="1"/>
        <pt x="727" y="74" on="1"/>
        <pt x="722" y="74" on="1"/>
        <pt x="669" y="37" on="0"/>
        <pt x="550" y="-4" on="0"/>
        <pt x="492" y="-4" on="1"/>
        <pt x="435" y="-4" on="0"/>
        <pt x="309" y="34" on="0"/>
        <pt x="189" y="104" on="0"/>
        <pt x="91" y="199" on="0"/>
        <pt x="33" y="314" on="0"/>
        <pt x="33" y="378" on="1"/>
        <pt x="33" y="450" on="0"/>
        <pt x="106" y="581" on="0"/>
        <pt x="224" y="686" on="0"/>
        <pt x="293" y="721" on="1"/>
        <pt x="-30" y="721" on="1"/>
        <pt x="35" y="820" on="1"/>
        <pt x="982" y="820" on="1"/>
        <pt x="917" y="721" on="1"/>
        <pt x="682" y="721" on="1"/>
        <pt x="689" y="717" on="0"/>
        <pt x="696" y="713" on="1"/>
        <pt x="706" y="581" on="1"/>
        <pt x="680" y="621" on="0"/>
        <pt x="604" y="678" on="0"/>
        <pt x="522" y="708" on="0"/>
        <pt x="486" y="708" on="1"/>
        <pt x="448" y="708" on="0"/>
        <pt x="360" y="671" on="0"/>
        <pt x="275" y="606" on="0"/>
        <pt x="206" y="520" on="0"/>
        <pt x="164" y="422" on="0"/>
        <pt x="164" y="370" on="1"/>
        <pt x="164" y="318" on="0"/>
        <pt x="205" y="220" on="0"/>
        <pt x="274" y="135" on="0"/>
        <pt x="359" y="71" on="0"/>
        <pt x="446" y="35" on="0"/>
        <pt x="484" y="35" on="1"/>
        <pt x="530" y="35" on="0"/>
        <pt x="630" y="92" on="0"/>
        <pt x="672" y="135" on="1"/>
        <pt x="672" y="227" on="1"/>
        <pt x="594" y="228" on="1"/>
        <pt x="594" y="315" on="1"/>
        <pt x="592" y="385" on="1"/>
        <pt x="676" y="315" on="1"/>
        <pt x="726" y="314" on="1"/>
      </contour>
    </TTGlyph>
    <TTGlyph name="G.0" xMin="-30" yMin="-4" xMax="982" yMax="820">
      <component glyphName="G" x="0" y="0" flags="0x204"/>
    </TTGlyph>
    <TTGlyph name="G.1" xMin="153" yMin="649" xMax="168" yMax="665">
      <contour>
        <pt x="162" y="658" on="1"/>
        <pt x="162" y="657" on="0"/>
        <pt x="164" y="656" on="0"/>
        <pt x="166" y="655" on="0"/>
        <pt x="167" y="654" on="0"/>
        <pt x="167" y="653" on="1"/>
        <pt x="166" y="653" on="0"/>
        <pt x="165" y="653" on="0"/>
        <pt x="164" y="654" on="0"/>
        <pt x="162" y="656" on="0"/>
        <pt x="161" y="657" on="0"/>
        <pt x="161" y="656" on="1"/>
        <pt x="161" y="656" on="0"/>
        <pt x="161" y="654" on="0"/>
        <pt x="161" y="652" on="0"/>
        <pt x="161" y="650" on="0"/>
        <pt x="161" y="649" on="0"/>
        <pt x="160" y="649" on="1"/>
        <pt x="160" y="649" on="0"/>
        <pt x="159" y="650" on="0"/>
        <pt x="160" y="652" on="0"/>
        <pt x="160" y="655" on="0"/>
        <pt x="160" y="657" on="0"/>
        <pt x="159" y="657" on="1"/>
        <pt x="159" y="658" on="0"/>
        <pt x="157" y="657" on="0"/>
        <pt x="155" y="655" on="0"/>
        <pt x="153" y="654" on="0"/>
        <pt x="153" y="655" on="1"/>
        <pt x="153" y="655" on="0"/>
        <pt x="154" y="656" on="0"/>
        <pt x="156" y="657" on="0"/>
        <pt x="158" y="659" on="0"/>
        <pt x="158" y="659" on="1"/>
        <pt x="158" y="660" on="0"/>
        <pt x="157" y="661" on="0"/>
        <pt x="155" y="661" on="0"/>
        <pt x="153" y="662" on="0"/>
        <pt x="153" y="663" on="1"/>
        <pt x="154" y="663" on="0"/>
        <pt x="155" y="662" on="0"/>
        <pt x="157" y="661" on="0"/>
        <pt x="159" y="660" on="0"/>
        <pt x="160" y="661" on="1"/>
        <pt x="160" y="661" on="0"/>
        <pt x="160" y="662" on="0"/>
        <pt x="160" y="664" on="0"/>
        <pt x="160" y="665" on="0"/>
        <pt x="160" y="665" on="1"/>
        <pt x="161" y="665" on="0"/>
        <pt x="162" y="664" on="0"/>
        <pt x="161" y="663" on="0"/>
        <pt x="161" y="661" on="0"/>
        <pt x="162" y="660" on="1"/>
        <pt x="162" y="660" on="0"/>
        <pt x="164" y="660" on="0"/>
        <pt x="166" y="661" on="0"/>
        <pt x="167" y="662" on="0"/>
        <pt x="167" y="662" on="1"/>
        <pt x="168" y="661" on="0"/>
        <pt x="166" y="660" on="0"/>
        <pt x="164" y="659" on="0"/>
        <pt x="162" y="658" on="0"/>
      </contour>
    </TTGlyph>
    <TTGlyph name="G.2" xMin="783" yMin="722" xMax="798" yMax="738">
      <contour>
        <pt x="792" y="731" on="1"/>
        <pt x="792" y="730" on="0"/>
        <pt x="794" y="729" on="0"/>
        <pt x="796" y="728" on="0"/>
        <pt x="797" y="727" on="0"/>
        <pt x="797" y="726" on="1"/>
        <pt x="796" y="726" on="0"/>
        <pt x="795" y="726" on="0"/>
        <pt x="794" y="727" on="0"/>
        <pt x="792" y="729" on="0"/>
        <pt x="791" y="730" on="0"/>
        <pt x="791" y="729" on="1"/>
        <pt x="791" y="729" on="0"/>
        <pt x="791" y="727" on="0"/>
        <pt x="791" y="725" on="0"/>
        <pt x="791" y="723" on="0"/>
        <pt x="791" y="722" on="0"/>
        <pt x="790" y="722" on="1"/>
        <pt x="790" y="722" on="0"/>
        <pt x="789" y="723" on="0"/>
        <pt x="790" y="725" on="0"/>
        <pt x="790" y="728" on="0"/>
        <pt x="790" y="730" on="0"/>
        <pt x="789" y="730" on="1"/>
        <pt x="789" y="731" on="0"/>
        <pt x="787" y="730" on="0"/>
        <pt x="785" y="728" on="0"/>
        <pt x="783" y="727" on="0"/>
        <pt x="783" y="728" on="1"/>
        <pt x="783" y="728" on="0"/>
        <pt x="784" y="729" on="0"/>
        <pt x="786" y="730" on="0"/>
        <pt x="788" y="732" on="0"/>
        <pt x="788" y="732" on="1"/>
        <pt x="788" y="733" on="0"/>
        <pt x="787" y="734" on="0"/>
        <pt x="785" y="734" on="0"/>
        <pt x="783" y="735" on="0"/>
        <pt x="783" y="736" on="1"/>
        <pt x="784" y="736" on="0"/>
        <pt x="785" y="735" on="0"/>
        <pt x="787" y="734" on="0"/>
        <pt x="789" y="733" on="0"/>
        <pt x="790" y="734" on="1"/>
        <pt x="790" y="734" on="0"/>
        <pt x="790" y="735" on="0"/>
        <pt x="790" y="737" on="0"/>
        <pt x="790" y="738" on="0"/>
        <pt x="790" y="738" on="1"/>
        <pt x="791" y="738" on="0"/>
        <pt x="792" y="737" on="0"/>
        <pt x="791" y="736" on="0"/>
        <pt x="791" y="734" on="0"/>
        <pt x="792" y="733" on="1"/>
        <pt x="792" y="733" on="0"/>
        <pt x="794" y="733" on="0"/>
        <pt x="796" y="734" on="0"/>
        <pt x="797" y="735" on="0"/>
        <pt x="797" y="735" on="1"/>
        <pt x="798" y="734" on="0"/>
        <pt x="796" y="733" on="0"/>
        <pt x="794" y="732" on="0"/>
        <pt x="792" y="731" on="0"/>
      </contour>
    </TTGlyph>
    <TTGlyph name="G.3" xMin="490" yMin="12" xMax="505" yMax="28">
      <contour>
        <pt x="499" y="21" on="1"/>
        <pt x="499" y="20" on="0"/>
        <pt x="501" y="19" on="0"/>
        <pt x="503" y="18" on="0"/>
        <pt x="504" y="17" on="0"/>
        <pt x="504" y="16" on="1"/>
        <pt x="503" y="16" on="0"/>
        <pt x="502" y="16" on="0"/>
        <pt x="501" y="17" on="0"/>
        <pt x="499" y="19" on="0"/>
        <pt x="498" y="20" on="0"/>
        <pt x="498" y="19" on="1"/>
        <pt x="498" y="19" on="0"/>
        <pt x="498" y="17" on="0"/>
        <pt x="498" y="15" on="0"/>
        <pt x="498" y="13" on="0"/>
        <pt x="498" y="12" on="0"/>
        <pt x="497" y="12" on="1"/>
        <pt x="497" y="12" on="0"/>
        <pt x="496" y="13" on="0"/>
        <pt x="497" y="15" on="0"/>
        <pt x="497" y="18" on="0"/>
        <pt x="497" y="20" on="0"/>
        <pt x="496" y="20" on="1"/>
        <pt x="496" y="21" on="0"/>
        <pt x="494" y="20" on="0"/>
        <pt x="492" y="18" on="0"/>
        <pt x="490" y="17" on="0"/>
        <pt x="490" y="18" on="1"/>
        <pt x="490" y="18" on="0"/>
        <pt x="491" y="19" on="0"/>
        <pt x="493" y="20" on="0"/>
        <pt x="495" y="22" on="0"/>
        <pt x="495" y="22" on="1"/>
        <pt x="495" y="23" on="0"/>
        <pt x="494" y="24" on="0"/>
        <pt x="492" y="24" on="0"/>
        <pt x="490" y="25" on="0"/>
        <pt x="490" y="26" on="1"/>
        <pt x="491" y="26" on="0"/>
        <pt x="492" y="25" on="0"/>
        <pt x="494" y="24" on="0"/>
        <pt x="496" y="23" on="0"/>
        <pt x="497" y="24" on="1"/>
        <pt x="497" y="24" on="0"/>
        <pt x="497" y="25" on="0"/>
        <pt x="497" y="27" on="0"/>
        <pt x="497" y="28" on="0"/>
        <pt x="497" y="28" on="1"/>
        <pt x="498" y="28" on="0"/>
        <pt x="499" y="27" on="0"/>
        <pt x="498" y="26" on="0"/>
        <pt x="498" y="24" on="0"/>
        <pt x="499" y="23" on="1"/>
        <pt x="499" y="23" on="0"/>
        <pt x="501" y="23" on="0"/>
        <pt x="503" y="24" on="0"/>
        <pt x="504" y="25" on="0"/>
        <pt x="504" y="25" on="1"/>
        <pt x="505" y="24" on="0"/>
        <pt x="503" y="23" on="0"/>
        <pt x="501" y="22" on="0"/>
        <pt x="499" y="21" on="0"/>
      </contour>
    </TTGlyph>
    <TTGlyph name="H" xMin="-23" yMin="-5" xMax="962" yMax="820">
      <contour>
        <pt x="42" y="820" on="1"/>
        <pt x="445" y="820" on="1"/>
        <pt x="380" y="721" on="1"/>
        <pt x="272" y="721" on="1"/>
        <pt x="272" y="429" on="1"/>
        <pt x="652" y="429" on="1"/>
        <pt x="652" y="721" on="1"/>
        <pt x="494" y="721" on="1"/>
        <pt x="559" y="820" on="1"/>
        <pt x="962" y="820" on="1"/>
        <pt x="897" y="721" on="1"/>
        <pt x="789" y="721" on="1"/>
        <pt x="789" y="82" on="1"/>
        <pt x="826" y="82" on="1"/>
        <pt x="910" y="152" on="1"/>
        <pt x="908" y="82" on="1"/>
        <pt x="908" y="-5" on="1"/>
        <pt x="652" y="-5" on="1"/>
        <pt x="652" y="367" on="1"/>
        <pt x="272" y="367" on="1"/>
        <pt x="272" y="-5" on="1"/>
        <pt x="18" y="-5" on="1"/>
        <pt x="18" y="82" on="1"/>
        <pt x="16" y="152" on="1"/>
        <pt x="100" y="82" on="1"/>
        <pt x="135" y="82" on="1"/>
        <pt x="135" y="721" on="1"/>
        <pt x="-23" y="721" on="1"/>
      </contour>
    </TTGlyph>
    <TTGlyph name="H.0" xMin="-30" yMin="-5" xMax="955" yMax="820">
      <component glyphName="H" x="-7" y="0" flags="0x4"/>
    </TTGlyph>
    <TTGlyph name="H.1" xMin="760" yMin="619" xMax="775" yMax="635">
      <contour>
        <pt x="769" y="628" on="1"/>
        <pt x="769" y="627" on="0"/>
        <pt x="771" y="626" on="0"/>
        <pt x="773" y="625" on="0"/>
        <pt x="774" y="624" on="0"/>
        <pt x="774" y="623" on="1"/>
        <pt x="773" y="623" on="0"/>
        <pt x="772" y="623" on="0"/>
        <pt x="771" y="624" on="0"/>
        <pt x="769" y="626" on="0"/>
        <pt x="768" y="627" on="0"/>
        <pt x="768" y="626" on="1"/>
        <pt x="768" y="626" on="0"/>
        <pt x="768" y="624" on="0"/>
        <pt x="768" y="622" on="0"/>
        <pt x="768" y="620" on="0"/>
        <pt x="768" y="619" on="0"/>
        <pt x="767" y="619" on="1"/>
        <pt x="767" y="619" on="0"/>
        <pt x="766" y="620" on="0"/>
        <pt x="767" y="622" on="0"/>
        <pt x="767" y="625" on="0"/>
        <pt x="767" y="627" on="0"/>
        <pt x="766" y="627" on="1"/>
        <pt x="766" y="628" on="0"/>
        <pt x="764" y="627" on="0"/>
        <pt x="762" y="625" on="0"/>
        <pt x="760" y="624" on="0"/>
        <pt x="760" y="625" on="1"/>
        <pt x="760" y="625" on="0"/>
        <pt x="761" y="626" on="0"/>
        <pt x="763" y="627" on="0"/>
        <pt x="765" y="629" on="0"/>
        <pt x="765" y="629" on="1"/>
        <pt x="765" y="630" on="0"/>
        <pt x="764" y="631" on="0"/>
        <pt x="762" y="631" on="0"/>
        <pt x="760" y="632" on="0"/>
        <pt x="760" y="633" on="1"/>
        <pt x="761" y="633" on="0"/>
        <pt x="762" y="632" on="0"/>
        <pt x="764" y="631" on="0"/>
        <pt x="766" y="630" on="0"/>
        <pt x="767" y="631" on="1"/>
        <pt x="767" y="631" on="0"/>
        <pt x="767" y="632" on="0"/>
        <pt x="767" y="634" on="0"/>
        <pt x="767" y="635" on="0"/>
        <pt x="767" y="635" on="1"/>
        <pt x="768" y="635" on="0"/>
        <pt x="769" y="634" on="0"/>
        <pt x="768" y="633" on="0"/>
        <pt x="768" y="631" on="0"/>
        <pt x="769" y="630" on="1"/>
        <pt x="769" y="630" on="0"/>
        <pt x="771" y="630" on="0"/>
        <pt x="773" y="631" on="0"/>
        <pt x="774" y="632" on="0"/>
        <pt x="774" y="632" on="1"/>
        <pt x="775" y="631" on="0"/>
        <pt x="773" y="630" on="0"/>
        <pt x="771" y="629" on="0"/>
        <pt x="769" y="628" on="0"/>
      </contour>
    </TTGlyph>
    <TTGlyph name="H.2" xMin="167" yMin="335" xMax="182" yMax="351">
      <contour>
        <pt x="176" y="344" on="1"/>
        <pt x="176" y="343" on="0"/>
        <pt x="178" y="342" on="0"/>
        <pt x="180" y="341" on="0"/>
        <pt x="181" y="340" on="0"/>
        <pt x="181" y="339" on="1"/>
        <pt x="180" y="339" on="0"/>
        <pt x="179" y="339" on="0"/>
        <pt x="178" y="340" on="0"/>
        <pt x="176" y="342" on="0"/>
        <pt x="175" y="343" on="0"/>
        <pt x="175" y="342" on="1"/>
        <pt x="175" y="342" on="0"/>
        <pt x="175" y="340" on="0"/>
        <pt x="175" y="338" on="0"/>
        <pt x="175" y="336" on="0"/>
        <pt x="175" y="335" on="0"/>
        <pt x="174" y="335" on="1"/>
        <pt x="174" y="335" on="0"/>
        <pt x="173" y="336" on="0"/>
        <pt x="174" y="338" on="0"/>
        <pt x="174" y="341" on="0"/>
        <pt x="174" y="343" on="0"/>
        <pt x="173" y="343" on="1"/>
        <pt x="173" y="344" on="0"/>
        <pt x="171" y="343" on="0"/>
        <pt x="169" y="341" on="0"/>
        <pt x="167" y="340" on="0"/>
        <pt x="167" y="341" on="1"/>
        <pt x="167" y="341" on="0"/>
        <pt x="168" y="342" on="0"/>
        <pt x="170" y="343" on="0"/>
        <pt x="172" y="345" on="0"/>
        <pt x="172" y="345" on="1"/>
        <pt x="172" y="346" on="0"/>
        <pt x="171" y="347" on="0"/>
        <pt x="169" y="347" on="0"/>
        <pt x="167" y="348" on="0"/>
        <pt x="167" y="349" on="1"/>
        <pt x="168" y="349" on="0"/>
        <pt x="169" y="348" on="0"/>
        <pt x="171" y="347" on="0"/>
        <pt x="173" y="346" on="0"/>
        <pt x="174" y="347" on="1"/>
        <pt x="174" y="347" on="0"/>
        <pt x="174" y="348" on="0"/>
        <pt x="174" y="350" on="0"/>
        <pt x="174" y="351" on="0"/>
        <pt x="174" y="351" on="1"/>
        <pt x="175" y="351" on="0"/>
        <pt x="176" y="350" on="0"/>
        <pt x="175" y="349" on="0"/>
        <pt x="175" y="347" on="0"/>
        <pt x="176" y="346" on="1"/>
        <pt x="176" y="346" on="0"/>
        <pt x="178" y="346" on="0"/>
        <pt x="180" y="347" on="0"/>
        <pt x="181" y="348" on="0"/>
        <pt x="181" y="348" on="1"/>
        <pt x="182" y="347" on="0"/>
        <pt x="180" y="346" on="0"/>
        <pt x="178" y="345" on="0"/>
        <pt x="176" y="344" on="0"/>
      </contour>
    </TTGlyph>
    <TTGlyph name="H.3" xMin="689" yMin="42" xMax="704" yMax="58">
      <contour>
        <pt x="698" y="51" on="1"/>
        <pt x="698" y="50" on="0"/>
        <pt x="700" y="49" on="0"/>
        <pt x="702" y="48" on="0"/>
        <pt x="703" y="47" on="0"/>
        <pt x="703" y="46" on="1"/>
        <pt x="702" y="46" on="0"/>
        <pt x="701" y="46" on="0"/>
        <pt x="700" y="47" on="0"/>
        <pt x="698" y="49" on="0"/>
        <pt x="697" y="50" on="0"/>
        <pt x="697" y="49" on="1"/>
        <pt x="697" y="49" on="0"/>
        <pt x="697" y="47" on="0"/>
        <pt x="697" y="45" on="0"/>
        <pt x="697" y="43" on="0"/>
        <pt x="697" y="42" on="0"/>
        <pt x="696" y="42" on="1"/>
        <pt x="696" y="42" on="0"/>
        <pt x="695" y="43" on="0"/>
        <pt x="696" y="45" on="0"/>
        <pt x="696" y="48" on="0"/>
        <pt x="696" y="50" on="0"/>
        <pt x="695" y="50" on="1"/>
        <pt x="695" y="51" on="0"/>
        <pt x="693" y="50" on="0"/>
        <pt x="691" y="48" on="0"/>
        <pt x="689" y="47" on="0"/>
        <pt x="689" y="48" on="1"/>
        <pt x="689" y="48" on="0"/>
        <pt x="690" y="49" on="0"/>
        <pt x="692" y="50" on="0"/>
        <pt x="694" y="52" on="0"/>
        <pt x="694" y="52" on="1"/>
        <pt x="694" y="53" on="0"/>
        <pt x="693" y="54" on="0"/>
        <pt x="691" y="54" on="0"/>
        <pt x="689" y="55" on="0"/>
        <pt x="689" y="56" on="1"/>
        <pt x="690" y="56" on="0"/>
        <pt x="691" y="55" on="0"/>
        <pt x="693" y="54" on="0"/>
        <pt x="695" y="53" on="0"/>
        <pt x="696" y="54" on="1"/>
        <pt x="696" y="54" on="0"/>
        <pt x="696" y="55" on="0"/>
        <pt x="696" y="57" on="0"/>
        <pt x="696" y="58" on="0"/>
        <pt x="696" y="58" on="1"/>
        <pt x="697" y="58" on="0"/>
        <pt x="698" y="57" on="0"/>
        <pt x="697" y="56" on="0"/>
        <pt x="697" y="54" on="0"/>
        <pt x="698" y="53" on="1"/>
        <pt x="698" y="53" on="0"/>
        <pt x="700" y="53" on="0"/>
        <pt x="702" y="54" on="0"/>
        <pt x="703" y="55" on="0"/>
        <pt x="703" y="55" on="1"/>
        <pt x="704" y="54" on="0"/>
        <pt x="702" y="53" on="0"/>
        <pt x="700" y="52" on="0"/>
        <pt x="698" y="51" on="0"/>
      </contour>
    </TTGlyph>
    <TTGlyph name="I" xMin="-20" yMin="-7" xMax="554" yMax="820">
      <contour>
        <pt x="203" y="80" on="1"/>
        <pt x="204" y="721" on="1"/>
        <pt x="-20" y="721" on="1"/>
        <pt x="45" y="820" on="1"/>
        <pt x="554" y="820" on="1"/>
        <pt x="489" y="721" on="1"/>
        <pt x="341" y="721" on="1"/>
        <pt x="341" y="82" on="1"/>
        <pt x="378" y="82" on="1"/>
        <pt x="462" y="152" on="1"/>
        <pt x="460" y="82" on="1"/>
        <pt x="460" y="-5" on="1"/>
        <pt x="204" y="-7" on="1"/>
        <pt x="75" y="-5" on="1"/>
        <pt x="75" y="82" on="1"/>
        <pt x="73" y="152" on="1"/>
        <pt x="157" y="82" on="1"/>
      </contour>
    </TTGlyph>
    <TTGlyph name="I.0" xMin="-30" yMin="-7" xMax="544" yMax="820">
      <component glyphName="I" x="-10" y="0" flags="0x4"/>
    </TTGlyph>
    <TTGlyph name="I.1" xMin="433" yMin="768" xMax="448" yMax="784">
      <contour>
        <pt x="442" y="777" on="1"/>
        <pt x="442" y="776" on="0"/>
        <pt x="444" y="775" on="0"/>
        <pt x="446" y="774" on="0"/>
        <pt x="447" y="773" on="0"/>
        <pt x="447" y="772" on="1"/>
        <pt x="446" y="772" on="0"/>
        <pt x="445" y="772" on="0"/>
        <pt x="444" y="773" on="0"/>
        <pt x="442" y="775" on="0"/>
        <pt x="441" y="776" on="0"/>
        <pt x="441" y="775" on="1"/>
        <pt x="441" y="775" on="0"/>
        <pt x="441" y="773" on="0"/>
        <pt x="441" y="771" on="0"/>
        <pt x="441" y="769" on="0"/>
        <pt x="441" y="768" on="0"/>
        <pt x="440" y="768" on="1"/>
        <pt x="440" y="768" on="0"/>
        <pt x="439" y="769" on="0"/>
        <pt x="440" y="771" on="0"/>
        <pt x="440" y="774" on="0"/>
        <pt x="440" y="776" on="0"/>
        <pt x="439" y="776" on="1"/>
        <pt x="439" y="777" on="0"/>
        <pt x="437" y="776" on="0"/>
        <pt x="435" y="774" on="0"/>
        <pt x="433" y="773" on="0"/>
        <pt x="433" y="774" on="1"/>
        <pt x="433" y="774" on="0"/>
        <pt x="434" y="775" on="0"/>
        <pt x="436" y="776" on="0"/>
        <pt x="438" y="778" on="0"/>
        <pt x="438" y="778" on="1"/>
        <pt x="438" y="779" on="0"/>
        <pt x="437" y="780" on="0"/>
        <pt x="435" y="780" on="0"/>
        <pt x="433" y="781" on="0"/>
        <pt x="433" y="782" on="1"/>
        <pt x="434" y="782" on="0"/>
        <pt x="435" y="781" on="0"/>
        <pt x="437" y="780" on="0"/>
        <pt x="439" y="779" on="0"/>
        <pt x="440" y="780" on="1"/>
        <pt x="440" y="780" on="0"/>
        <pt x="440" y="781" on="0"/>
        <pt x="440" y="783" on="0"/>
        <pt x="440" y="784" on="0"/>
        <pt x="440" y="784" on="1"/>
        <pt x="441" y="784" on="0"/>
        <pt x="442" y="783" on="0"/>
        <pt x="441" y="782" on="0"/>
        <pt x="441" y="780" on="0"/>
        <pt x="442" y="779" on="1"/>
        <pt x="442" y="779" on="0"/>
        <pt x="444" y="779" on="0"/>
        <pt x="446" y="780" on="0"/>
        <pt x="447" y="781" on="0"/>
        <pt x="447" y="781" on="1"/>
        <pt x="448" y="780" on="0"/>
        <pt x="446" y="779" on="0"/>
        <pt x="444" y="778" on="0"/>
        <pt x="442" y="777" on="0"/>
      </contour>
    </TTGlyph>
    <TTGlyph name="I.2" xMin="187" yMin="432" xMax="202" yMax="448">
      <contour>
        <pt x="196" y="441" on="1"/>
        <pt x="196" y="440" on="0"/>
        <pt x="198" y="439" on="0"/>
        <pt x="200" y="438" on="0"/>
        <pt x="201" y="437" on="0"/>
        <pt x="201" y="436" on="1"/>
        <pt x="200" y="436" on="0"/>
        <pt x="199" y="436" on="0"/>
        <pt x="198" y="437" on="0"/>
        <pt x="196" y="439" on="0"/>
        <pt x="195" y="440" on="0"/>
        <pt x="195" y="439" on="1"/>
        <pt x="195" y="439" on="0"/>
        <pt x="195" y="437" on="0"/>
        <pt x="195" y="435" on="0"/>
        <pt x="195" y="433" on="0"/>
        <pt x="195" y="432" on="0"/>
        <pt x="194" y="432" on="1"/>
        <pt x="194" y="432" on="0"/>
        <pt x="193" y="433" on="0"/>
        <pt x="194" y="435" on="0"/>
        <pt x="194" y="438" on="0"/>
        <pt x="194" y="440" on="0"/>
        <pt x="193" y="440" on="1"/>
        <pt x="193" y="441" on="0"/>
        <pt x="191" y="440" on="0"/>
        <pt x="189" y="438" on="0"/>
        <pt x="187" y="437" on="0"/>
        <pt x="187" y="438" on="1"/>
        <pt x="187" y="438" on="0"/>
        <pt x="188" y="439" on="0"/>
        <pt x="190" y="440" on="0"/>
        <pt x="192" y="442" on="0"/>
        <pt x="192" y="442" on="1"/>
        <pt x="192" y="443" on="0"/>
        <pt x="191" y="444" on="0"/>
        <pt x="189" y="444" on="0"/>
        <pt x="187" y="445" on="0"/>
        <pt x="187" y="446" on="1"/>
        <pt x="188" y="446" on="0"/>
        <pt x="189" y="445" on="0"/>
        <pt x="191" y="444" on="0"/>
        <pt x="193" y="443" on="0"/>
        <pt x="194" y="444" on="1"/>
        <pt x="194" y="444" on="0"/>
        <pt x="194" y="445" on="0"/>
        <pt x="194" y="447" on="0"/>
        <pt x="194" y="448" on="0"/>
        <pt x="194" y="448" on="1"/>
        <pt x="195" y="448" on="0"/>
        <pt x="196" y="447" on="0"/>
        <pt x="195" y="446" on="0"/>
        <pt x="195" y="444" on="0"/>
        <pt x="196" y="443" on="1"/>
        <pt x="196" y="443" on="0"/>
        <pt x="198" y="443" on="0"/>
        <pt x="200" y="444" on="0"/>
        <pt x="201" y="445" on="0"/>
        <pt x="201" y="445" on="1"/>
        <pt x="202" y="444" on="0"/>
        <pt x="200" y="443" on="0"/>
        <pt x="198" y="442" on="0"/>
        <pt x="196" y="441" on="0"/>
      </contour>
    </TTGlyph>
    <TTGlyph name="I.3" xMin="429" yMin="12" xMax="444" yMax="28">
      <contour>
        <pt x="438" y="21" on="1"/>
        <pt x="438" y="20" on="0"/>
        <pt x="440" y="19" on="0"/>
        <pt x="442" y="18" on="0"/>
        <pt x="443" y="17" on="0"/>
        <pt x="443" y="16" on="1"/>
        <pt x="442" y="16" on="0"/>
        <pt x="441" y="16" on="0"/>
        <pt x="440" y="17" on="0"/>
        <pt x="438" y="19" on="0"/>
        <pt x="437" y="20" on="0"/>
        <pt x="437" y="19" on="1"/>
        <pt x="437" y="19" on="0"/>
        <pt x="437" y="17" on="0"/>
        <pt x="437" y="15" on="0"/>
        <pt x="437" y="13" on="0"/>
        <pt x="437" y="12" on="0"/>
        <pt x="436" y="12" on="1"/>
        <pt x="436" y="12" on="0"/>
        <pt x="435" y="13" on="0"/>
        <pt x="436" y="15" on="0"/>
        <pt x="436" y="18" on="0"/>
        <pt x="436" y="20" on="0"/>
        <pt x="435" y="20" on="1"/>
        <pt x="435" y="21" on="0"/>
        <pt x="433" y="20" on="0"/>
        <pt x="431" y="18" on="0"/>
        <pt x="429" y="17" on="0"/>
        <pt x="429" y="18" on="1"/>
        <pt x="429" y="18" on="0"/>
        <pt x="430" y="19" on="0"/>
        <pt x="432" y="20" on="0"/>
        <pt x="434" y="22" on="0"/>
        <pt x="434" y="22" on="1"/>
        <pt x="434" y="23" on="0"/>
        <pt x="433" y="24" on="0"/>
        <pt x="431" y="24" on="0"/>
        <pt x="429" y="25" on="0"/>
        <pt x="429" y="26" on="1"/>
        <pt x="430" y="26" on="0"/>
        <pt x="431" y="25" on="0"/>
        <pt x="433" y="24" on="0"/>
        <pt x="435" y="23" on="0"/>
        <pt x="436" y="24" on="1"/>
        <pt x="436" y="24" on="0"/>
        <pt x="436" y="25" on="0"/>
        <pt x="436" y="27" on="0"/>
        <pt x="436" y="28" on="0"/>
        <pt x="436" y="28" on="1"/>
        <pt x="437" y="28" on="0"/>
        <pt x="438" y="27" on="0"/>
        <pt x="437" y="26" on="0"/>
        <pt x="437" y="24" on="0"/>
        <pt x="438" y="23" on="1"/>
        <pt x="438" y="23" on="0"/>
        <pt x="440" y="23" on="0"/>
        <pt x="442" y="24" on="0"/>
        <pt x="443" y="25" on="0"/>
        <pt x="443" y="25" on="1"/>
        <pt x="444" y="24" on="0"/>
        <pt x="442" y="23" on="0"/>
        <pt x="440" y="22" on="0"/>
        <pt x="438" y="21" on="0"/>
      </contour>
    </TTGlyph>
    <TTGlyph name="J" xMin="-20" yMin="-65" xMax="554" yMax="820">
      <contour>
        <pt x="297" y="75" on="1"/>
        <pt x="298" y="721" on="1"/>
        <pt x="-20" y="721" on="1"/>
        <pt x="45" y="820" on="1"/>
        <pt x="554" y="820" on="1"/>
        <pt x="489" y="721" on="1"/>
        <pt x="435" y="721" on="1"/>
        <pt x="443" y="-6" on="1"/>
        <pt x="306" y="-65" on="1"/>
        <pt x="75" y="-5" on="1"/>
        <pt x="75" y="82" on="1"/>
        <pt x="73" y="152" on="1"/>
        <pt x="167" y="82" on="1"/>
      </contour>
    </TTGlyph>
    <TTGlyph name="J.0" xMin="-30" yMin="-65" xMax="544" yMax="820">
      <component glyphName="J" x="-10" y="0" flags="0x4"/>
    </TTGlyph>
    <TTGlyph name="J.1" xMin="379" yMin="314" xMax="394" yMax="330">
      <contour>
        <pt x="388" y="323" on="1"/>
        <pt x="388" y="322" on="0"/>
        <pt x="390" y="321" on="0"/>
        <pt x="392" y="320" on="0"/>
        <pt x="393" y="319" on="0"/>
        <pt x="393" y="318" on="1"/>
        <pt x="392" y="318" on="0"/>
        <pt x="391" y="318" on="0"/>
        <pt x="390" y="319" on="0"/>
        <pt x="388" y="321" on="0"/>
        <pt x="387" y="322" on="0"/>
        <pt x="387" y="321" on="1"/>
        <pt x="387" y="321" on="0"/>
        <pt x="387" y="319" on="0"/>
        <pt x="387" y="317" on="0"/>
        <pt x="387" y="315" on="0"/>
        <pt x="387" y="314" on="0"/>
        <pt x="386" y="314" on="1"/>
        <pt x="386" y="314" on="0"/>
        <pt x="385" y="315" on="0"/>
        <pt x="386" y="317" on="0"/>
        <pt x="386" y="320" on="0"/>
        <pt x="386" y="322" on="0"/>
        <pt x="385" y="322" on="1"/>
        <pt x="385" y="323" on="0"/>
        <pt x="383" y="322" on="0"/>
        <pt x="381" y="320" on="0"/>
        <pt x="379" y="319" on="0"/>
        <pt x="379" y="320" on="1"/>
        <pt x="379" y="320" on="0"/>
        <pt x="380" y="321" on="0"/>
        <pt x="382" y="322" on="0"/>
        <pt x="384" y="324" on="0"/>
        <pt x="384" y="324" on="1"/>
        <pt x="384" y="325" on="0"/>
        <pt x="383" y="326" on="0"/>
        <pt x="381" y="326" on="0"/>
        <pt x="379" y="327" on="0"/>
        <pt x="379" y="328" on="1"/>
        <pt x="380" y="328" on="0"/>
        <pt x="381" y="327" on="0"/>
        <pt x="383" y="326" on="0"/>
        <pt x="385" y="325" on="0"/>
        <pt x="386" y="326" on="1"/>
        <pt x="386" y="326" on="0"/>
        <pt x="386" y="327" on="0"/>
        <pt x="386" y="329" on="0"/>
        <pt x="386" y="330" on="0"/>
        <pt x="386" y="330" on="1"/>
        <pt x="387" y="330" on="0"/>
        <pt x="388" y="329" on="0"/>
        <pt x="387" y="328" on="0"/>
        <pt x="387" y="326" on="0"/>
        <pt x="388" y="325" on="1"/>
        <pt x="388" y="325" on="0"/>
        <pt x="390" y="325" on="0"/>
        <pt x="392" y="326" on="0"/>
        <pt x="393" y="327" on="0"/>
        <pt x="393" y="327" on="1"/>
        <pt x="394" y="326" on="0"/>
        <pt x="392" y="325" on="0"/>
        <pt x="390" y="324" on="0"/>
        <pt x="388" y="323" on="0"/>
      </contour>
    </TTGlyph>
    <TTGlyph name="J.2" xMin="82" yMin="713" xMax="97" yMax="729">
      <contour>
        <pt x="91" y="722" on="1"/>
        <pt x="91" y="721" on="0"/>
        <pt x="93" y="720" on="0"/>
        <pt x="95" y="719" on="0"/>
        <pt x="96" y="718" on="0"/>
        <pt x="96" y="717" on="1"/>
        <pt x="95" y="717" on="0"/>
        <pt x="94" y="717" on="0"/>
        <pt x="93" y="718" on="0"/>
        <pt x="91" y="720" on="0"/>
        <pt x="90" y="721" on="0"/>
        <pt x="90" y="720" on="1"/>
        <pt x="90" y="720" on="0"/>
        <pt x="90" y="718" on="0"/>
        <pt x="90" y="716" on="0"/>
        <pt x="90" y="714" on="0"/>
        <pt x="90" y="713" on="0"/>
        <pt x="89" y="713" on="1"/>
        <pt x="89" y="713" on="0"/>
        <pt x="88" y="714" on="0"/>
        <pt x="89" y="716" on="0"/>
        <pt x="89" y="719" on="0"/>
        <pt x="89" y="721" on="0"/>
        <pt x="88" y="721" on="1"/>
        <pt x="88" y="722" on="0"/>
        <pt x="86" y="721" on="0"/>
        <pt x="84" y="719" on="0"/>
        <pt x="82" y="718" on="0"/>
        <pt x="82" y="719" on="1"/>
        <pt x="82" y="719" on="0"/>
        <pt x="83" y="720" on="0"/>
        <pt x="85" y="721" on="0"/>
        <pt x="87" y="723" on="0"/>
        <pt x="87" y="723" on="1"/>
        <pt x="87" y="724" on="0"/>
        <pt x="86" y="725" on="0"/>
        <pt x="84" y="725" on="0"/>
        <pt x="82" y="726" on="0"/>
        <pt x="82" y="727" on="1"/>
        <pt x="83" y="727" on="0"/>
        <pt x="84" y="726" on="0"/>
        <pt x="86" y="725" on="0"/>
        <pt x="88" y="724" on="0"/>
        <pt x="89" y="725" on="1"/>
        <pt x="89" y="725" on="0"/>
        <pt x="89" y="726" on="0"/>
        <pt x="89" y="728" on="0"/>
        <pt x="89" y="729" on="0"/>
        <pt x="89" y="729" on="1"/>
        <pt x="90" y="729" on="0"/>
        <pt x="91" y="728" on="0"/>
        <pt x="90" y="727" on="0"/>
        <pt x="90" y="725" on="0"/>
        <pt x="91" y="724" on="1"/>
        <pt x="91" y="724" on="0"/>
        <pt x="93" y="724" on="0"/>
        <pt x="95" y="725" on="0"/>
        <pt x="96" y="726" on="0"/>
        <pt x="96" y="726" on="1"/>
        <pt x="97" y="725" on="0"/>
        <pt x="95" y="724" on="0"/>
        <pt x="93" y="723" on="0"/>
        <pt x="91" y="722" on="0"/>
      </contour>
    </TTGlyph>
    <TTGlyph name="J.3" xMin="261" yMin="-51" xMax="276" yMax="-35">
      <contour>
        <pt x="270" y="-42" on="1"/>
        <pt x="270" y="-43" on="0"/>
        <pt x="272" y="-44" on="0"/>
        <pt x="274" y="-45" on="0"/>
        <pt x="275" y="-46" on="0"/>
        <pt x="275" y="-47" on="1"/>
        <pt x="274" y="-47" on="0"/>
        <pt x="273" y="-47" on="0"/>
        <pt x="272" y="-46" on="0"/>
        <pt x="270" y="-44" on="0"/>
        <pt x="269" y="-43" on="0"/>
        <pt x="269" y="-44" on="1"/>
        <pt x="269" y="-44" on="0"/>
        <pt x="269" y="-46" on="0"/>
        <pt x="269" y="-48" on="0"/>
        <pt x="269" y="-50" on="0"/>
        <pt x="269" y="-51" on="0"/>
        <pt x="268" y="-51" on="1"/>
        <pt x="268" y="-51" on="0"/>
        <pt x="267" y="-50" on="0"/>
        <pt x="268" y="-48" on="0"/>
        <pt x="268" y="-45" on="0"/>
        <pt x="268" y="-43" on="0"/>
        <pt x="267" y="-43" on="1"/>
        <pt x="267" y="-42" on="0"/>
        <pt x="265" y="-43" on="0"/>
        <pt x="263" y="-45" on="0"/>
        <pt x="261" y="-46" on="0"/>
        <pt x="261" y="-45" on="1"/>
        <pt x="261" y="-45" on="0"/>
        <pt x="262" y="-44" on="0"/>
        <pt x="264" y="-43" on="0"/>
        <pt x="266" y="-41" on="0"/>
        <pt x="266" y="-41" on="1"/>
        <pt x="266" y="-40" on="0"/>
        <pt x="265" y="-39" on="0"/>
        <pt x="263" y="-39" on="0"/>
        <pt x="261" y="-38" on="0"/>
        <pt x="261" y="-37" on="1"/>
        <pt x="262" y="-37" on="0"/>
        <pt x="263" y="-38" on="0"/>
        <pt x="265" y="-39" on="0"/>
        <pt x="267" y="-40" on="0"/>
        <pt x="268" y="-39" on="1"/>
        <pt x="268" y="-39" on="0"/>
        <pt x="268" y="-38" on="0"/>
        <pt x="268" y="-36" on="0"/>
        <pt x="268" y="-35" on="0"/>
        <pt x="268" y="-35" on="1"/>
        <pt x="269" y="-35" on="0"/>
        <pt x="270" y="-36" on="0"/>
        <pt x="269" y="-37" on="0"/>
        <pt x="269" y="-39" on="0"/>
        <pt x="270" y="-40" on="1"/>
        <pt x="270" y="-40" on="0"/>
        <pt x="272" y="-40" on="0"/>
        <pt x="274" y="-39" on="0"/>
        <pt x="275" y="-38" on="0"/>
        <pt x="275" y="-38" on="1"/>
        <pt x="276" y="-39" on="0"/>
        <pt x="274" y="-40" on="0"/>
        <pt x="272" y="-41" on="0"/>
        <pt x="270" y="-42" on="0"/>
      </contour>
    </TTGlyph>
    <TTGlyph name="K" xMin="-23" yMin="-5" xMax="962" yMax="820">
      <contour>
        <pt x="42" y="820" on="1"/>
        <pt x="445" y="820" on="1"/>
        <pt x="380" y="721" on="1"/>
        <pt x="272" y="721" on="1"/>
        <pt x="272" y="429" on="1"/>
        <pt x="281" y="429" on="1"/>
        <pt x="652" y="721" on="1"/>
        <pt x="494" y="721" on="1"/>
        <pt x="559" y="820" on="1"/>
        <pt x="962" y="820" on="1"/>
        <pt x="897" y="721" on="1"/>
        <pt x="789" y="721" on="1"/>
        <pt x="418" y="410" on="1"/>
        <pt x="703" y="82" on="1"/>
        <pt x="744" y="82" on="1"/>
        <pt x="828" y="152" on="1"/>
        <pt x="826" y="82" on="1"/>
        <pt x="826" y="-5" on="1"/>
        <pt x="652" y="-5" on="1"/>
        <pt x="281" y="367" on="1"/>
        <pt x="272" y="367" on="1"/>
        <pt x="272" y="-5" on="1"/>
        <pt x="18" y="-5" on="1"/>
        <pt x="18" y="82" on="1"/>
        <pt x="16" y="152" on="1"/>
        <pt x="100" y="82" on="1"/>
        <pt x="135" y="82" on="1"/>
        <pt x="135" y="721" on="1"/>
        <pt x="-23" y="721" on="1"/>
      </contour>
    </TTGlyph>
    <TTGlyph name="K.0" xMin="-30" yMin="-5" xMax="955" yMax="820">
      <component glyphName="K" x="-7" y="0" flags="0x4"/>
    </TTGlyph>
    <TTGlyph name="K.1" xMin="179" yMin="369" xMax="194" yMax="385">
      <contour>
        <pt x="188" y="378" on="1"/>
        <pt x="188" y="377" on="0"/>
        <pt x="190" y="376" on="0"/>
        <pt x="192" y="375" on="0"/>
        <pt x="193" y="374" on="0"/>
        <pt x="193" y="373" on="1"/>
        <pt x="192" y="373" on="0"/>
        <pt x="191" y="373" on="0"/>
        <pt x="190" y="374" on="0"/>
        <pt x="188" y="376" on="0"/>
        <pt x="187" y="377" on="0"/>
        <pt x="187" y="376" on="1"/>
        <pt x="187" y="376" on="0"/>
        <pt x="187" y="374" on="0"/>
        <pt x="187" y="372" on="0"/>
        <pt x="187" y="370" on="0"/>
        <pt x="187" y="369" on="0"/>
        <pt x="186" y="369" on="1"/>
        <pt x="186" y="369" on="0"/>
        <pt x="185" y="370" on="0"/>
        <pt x="186" y="372" on="0"/>
        <pt x="186" y="375" on="0"/>
        <pt x="186" y="377" on="0"/>
        <pt x="185" y="377" on="1"/>
        <pt x="185" y="378" on="0"/>
        <pt x="183" y="377" on="0"/>
        <pt x="181" y="375" on="0"/>
        <pt x="179" y="374" on="0"/>
        <pt x="179" y="375" on="1"/>
        <pt x="179" y="375" on="0"/>
        <pt x="180" y="376" on="0"/>
        <pt x="182" y="377" on="0"/>
        <pt x="184" y="379" on="0"/>
        <pt x="184" y="379" on="1"/>
        <pt x="184" y="380" on="0"/>
        <pt x="183" y="381" on="0"/>
        <pt x="181" y="381" on="0"/>
        <pt x="179" y="382" on="0"/>
        <pt x="179" y="383" on="1"/>
        <pt x="180" y="383" on="0"/>
        <pt x="181" y="382" on="0"/>
        <pt x="183" y="381" on="0"/>
        <pt x="185" y="380" on="0"/>
        <pt x="186" y="381" on="1"/>
        <pt x="186" y="381" on="0"/>
        <pt x="186" y="382" on="0"/>
        <pt x="186" y="384" on="0"/>
        <pt x="186" y="385" on="0"/>
        <pt x="186" y="385" on="1"/>
        <pt x="187" y="385" on="0"/>
        <pt x="188" y="384" on="0"/>
        <pt x="187" y="383" on="0"/>
        <pt x="187" y="381" on="0"/>
        <pt x="188" y="380" on="1"/>
        <pt x="188" y="380" on="0"/>
        <pt x="190" y="380" on="0"/>
        <pt x="192" y="381" on="0"/>
        <pt x="193" y="382" on="0"/>
        <pt x="193" y="382" on="1"/>
        <pt x="194" y="381" on="0"/>
        <pt x="192" y="380" on="0"/>
        <pt x="190" y="379" on="0"/>
        <pt x="188" y="378" on="0"/>
      </contour>
    </TTGlyph>
    <TTGlyph name="K.2" xMin="732" yMin="721" xMax="747" yMax="737">
      <contour>
        <pt x="741" y="730" on="1"/>
        <pt x="741" y="729" on="0"/>
        <pt x="743" y="728" on="0"/>
        <pt x="745" y="727" on="0"/>
        <pt x="746" y="726" on="0"/>
        <pt x="746" y="725" on="1"/>
        <pt x="745" y="725" on="0"/>
        <pt x="744" y="725" on="0"/>
        <pt x="743" y="726" on="0"/>
        <pt x="741" y="728" on="0"/>
        <pt x="740" y="729" on="0"/>
        <pt x="740" y="728" on="1"/>
        <pt x="740" y="728" on="0"/>
        <pt x="740" y="726" on="0"/>
        <pt x="740" y="724" on="0"/>
        <pt x="740" y="722" on="0"/>
        <pt x="740" y="721" on="0"/>
        <pt x="739" y="721" on="1"/>
        <pt x="739" y="721" on="0"/>
        <pt x="738" y="722" on="0"/>
        <pt x="739" y="724" on="0"/>
        <pt x="739" y="727" on="0"/>
        <pt x="739" y="729" on="0"/>
        <pt x="738" y="729" on="1"/>
        <pt x="738" y="730" on="0"/>
        <pt x="736" y="729" on="0"/>
        <pt x="734" y="727" on="0"/>
        <pt x="732" y="726" on="0"/>
        <pt x="732" y="727" on="1"/>
        <pt x="732" y="727" on="0"/>
        <pt x="733" y="728" on="0"/>
        <pt x="735" y="729" on="0"/>
        <pt x="737" y="731" on="0"/>
        <pt x="737" y="731" on="1"/>
        <pt x="737" y="732" on="0"/>
        <pt x="736" y="733" on="0"/>
        <pt x="734" y="733" on="0"/>
        <pt x="732" y="734" on="0"/>
        <pt x="732" y="735" on="1"/>
        <pt x="733" y="735" on="0"/>
        <pt x="734" y="734" on="0"/>
        <pt x="736" y="733" on="0"/>
        <pt x="738" y="732" on="0"/>
        <pt x="739" y="733" on="1"/>
        <pt x="739" y="733" on="0"/>
        <pt x="739" y="734" on="0"/>
        <pt x="739" y="736" on="0"/>
        <pt x="739" y="737" on="0"/>
        <pt x="739" y="737" on="1"/>
        <pt x="740" y="737" on="0"/>
        <pt x="741" y="736" on="0"/>
        <pt x="740" y="735" on="0"/>
        <pt x="740" y="733" on="0"/>
        <pt x="741" y="732" on="1"/>
        <pt x="741" y="732" on="0"/>
        <pt x="743" y="732" on="0"/>
        <pt x="745" y="733" on="0"/>
        <pt x="746" y="734" on="0"/>
        <pt x="746" y="734" on="1"/>
        <pt x="747" y="733" on="0"/>
        <pt x="745" y="732" on="0"/>
        <pt x="743" y="731" on="0"/>
        <pt x="741" y="730" on="0"/>
      </contour>
    </TTGlyph>
    <TTGlyph name="K.3" xMin="639" yMin="29" xMax="654" yMax="45">
      <contour>
        <pt x="648" y="38" on="1"/>
        <pt x="648" y="37" on="0"/>
        <pt x="650" y="36" on="0"/>
        <pt x="652" y="35" on="0"/>
        <pt x="653" y="34" on="0"/>
        <pt x="653" y="33" on="1"/>
        <pt x="652" y="33" on="0"/>
        <pt x="651" y="33" on="0"/>
        <pt x="650" y="34" on="0"/>
        <pt x="648" y="36" on="0"/>
        <pt x="647" y="37" on="0"/>
        <pt x="647" y="36" on="1"/>
        <pt x="647" y="36" on="0"/>
        <pt x="647" y="34" on="0"/>
        <pt x="647" y="32" on="0"/>
        <pt x="647" y="30" on="0"/>
        <pt x="647" y="29" on="0"/>
        <pt x="646" y="29" on="1"/>
        <pt x="646" y="29" on="0"/>
        <pt x="645" y="30" on="0"/>
        <pt x="646" y="32" on="0"/>
        <pt x="646" y="35" on="0"/>
        <pt x="646" y="37" on="0"/>
        <pt x="645" y="37" on="1"/>
        <pt x="645" y="38" on="0"/>
        <pt x="643" y="37" on="0"/>
        <pt x="641" y="35" on="0"/>
        <pt x="639" y="34" on="0"/>
        <pt x="639" y="35" on="1"/>
        <pt x="639" y="35" on="0"/>
        <pt x="640" y="36" on="0"/>
        <pt x="642" y="37" on="0"/>
        <pt x="644" y="39" on="0"/>
        <pt x="644" y="39" on="1"/>
        <pt x="644" y="40" on="0"/>
        <pt x="643" y="41" on="0"/>
        <pt x="641" y="41" on="0"/>
        <pt x="639" y="42" on="0"/>
        <pt x="639" y="43" on="1"/>
        <pt x="640" y="43" on="0"/>
        <pt x="641" y="42" on="0"/>
        <pt x="643" y="41" on="0"/>
        <pt x="645" y="40" on="0"/>
        <pt x="646" y="41" on="1"/>
        <pt x="646" y="41" on="0"/>
        <pt x="646" y="42" on="0"/>
        <pt x="646" y="44" on="0"/>
        <pt x="646" y="45" on="0"/>
        <pt x="646" y="45" on="1"/>
        <pt x="647" y="45" on="0"/>
        <pt x="648" y="44" on="0"/>
        <pt x="647" y="43" on="0"/>
        <pt x="647" y="41" on="0"/>
        <pt x="648" y="40" on="1"/>
        <pt x="648" y="40" on="0"/>
        <pt x="650" y="40" on="0"/>
        <pt x="652" y="41" on="0"/>
        <pt x="653" y="42" on="0"/>
        <pt x="653" y="42" on="1"/>
        <pt x="654" y="41" on="0"/>
        <pt x="652" y="40" on="0"/>
        <pt x="650" y="39" on="0"/>
        <pt x="648" y="38" on="0"/>
      </contour>
    </TTGlyph>
    <TTGlyph name="L" xMin="-20" yMin="-5" xMax="606" yMax="820">
      <contour>
        <pt x="138" y="367" on="1"/>
        <pt x="138" y="721" on="1"/>
        <pt x="-20" y="721" on="1"/>
        <pt x="45" y="820" on="1"/>
        <pt x="448" y="820" on="1"/>
        <pt x="383" y="721" on="1"/>
        <pt x="275" y="721" on="1"/>
        <pt x="275" y="82" on="1"/>
        <pt x="522" y="82" on="1"/>
        <pt x="606" y="152" on="1"/>
        <pt x="604" y="82" on="1"/>
        <pt x="604" y="-5" on="1"/>
        <pt x="138" y="-5" on="1"/>
      </contour>
    </TTGlyph>
    <TTGlyph name="L.0" xMin="-20" yMin="-5" xMax="606" yMax="820">
      <component glyphName="L" x="0" y="0" flags="0x4"/>
    </TTGlyph>
    <TTGlyph name="L.1" xMin="195" yMin="441" xMax="210" yMax="457">
      <contour>
        <pt x="204" y="450" on="1"/>
        <pt x="204" y="449" on="0"/>
        <pt x="206" y="448" on="0"/>
        <pt x="208" y="447" on="0"/>
        <pt x="209" y="446" on="0"/>
        <pt x="209" y="445" on="1"/>
        <pt x="208" y="445" on="0"/>
        <pt x="207" y="445" on="0"/>
        <pt x="206" y="446" on="0"/>
        <pt x="204" y="448" on="0"/>
        <pt x="203" y="449" on="0"/>
        <pt x="203" y="448" on="1"/>
        <pt x="203" y="448" on="0"/>
        <pt x="203" y="446" on="0"/>
        <pt x="203" y="444" on="0"/>
        <pt x="203" y="442" on="0"/>
        <pt x="203" y="441" on="0"/>
        <pt x="202" y="441" on="1"/>
        <pt x="202" y="441" on="0"/>
        <pt x="201" y="442" on="0"/>
        <pt x="202" y="444" on="0"/>
        <pt x="202" y="447" on="0"/>
        <pt x="202" y="449" on="0"/>
        <pt x="201" y="449" on="1"/>
        <pt x="201" y="450" on="0"/>
        <pt x="199" y="449" on="0"/>
        <pt x="197" y="447" on="0"/>
        <pt x="195" y="446" on="0"/>
        <pt x="195" y="447" on="1"/>
        <pt x="195" y="447" on="0"/>
        <pt x="196" y="448" on="0"/>
        <pt x="198" y="449" on="0"/>
        <pt x="200" y="451" on="0"/>
        <pt x="200" y="451" on="1"/>
        <pt x="200" y="452" on="0"/>
        <pt x="199" y="453" on="0"/>
        <pt x="197" y="453" on="0"/>
        <pt x="195" y="454" on="0"/>
        <pt x="195" y="455" on="1"/>
        <pt x="196" y="455" on="0"/>
        <pt x="197" y="454" on="0"/>
        <pt x="199" y="453" on="0"/>
        <pt x="201" y="452" on="0"/>
        <pt x="202" y="453" on="1"/>
        <pt x="202" y="453" on="0"/>
        <pt x="202" y="454" on="0"/>
        <pt x="202" y="456" on="0"/>
        <pt x="202" y="457" on="0"/>
        <pt x="202" y="457" on="1"/>
        <pt x="203" y="457" on="0"/>
        <pt x="204" y="456" on="0"/>
        <pt x="203" y="455" on="0"/>
        <pt x="203" y="453" on="0"/>
        <pt x="204" y="452" on="1"/>
        <pt x="204" y="452" on="0"/>
        <pt x="206" y="452" on="0"/>
        <pt x="208" y="453" on="0"/>
        <pt x="209" y="454" on="0"/>
        <pt x="209" y="454" on="1"/>
        <pt x="210" y="453" on="0"/>
        <pt x="208" y="452" on="0"/>
        <pt x="206" y="451" on="0"/>
        <pt x="204" y="450" on="0"/>
      </contour>
    </TTGlyph>
    <TTGlyph name="L.2" xMin="433" yMin="768" xMax="448" yMax="784">
      <contour>
        <pt x="442" y="777" on="1"/>
        <pt x="442" y="776" on="0"/>
        <pt x="444" y="775" on="0"/>
        <pt x="446" y="774" on="0"/>
        <pt x="447" y="773" on="0"/>
        <pt x="447" y="772" on="1"/>
        <pt x="446" y="772" on="0"/>
        <pt x="445" y="772" on="0"/>
        <pt x="444" y="773" on="0"/>
        <pt x="442" y="775" on="0"/>
        <pt x="441" y="776" on="0"/>
        <pt x="441" y="775" on="1"/>
        <pt x="441" y="775" on="0"/>
        <pt x="441" y="773" on="0"/>
        <pt x="441" y="771" on="0"/>
        <pt x="441" y="769" on="0"/>
        <pt x="441" y="768" on="0"/>
        <pt x="440" y="768" on="1"/>
        <pt x="440" y="768" on="0"/>
        <pt x="439" y="769" on="0"/>
        <pt x="440" y="771" on="0"/>
        <pt x="440" y="774" on="0"/>
        <pt x="440" y="776" on="0"/>
        <pt x="439" y="776" on="1"/>
        <pt x="439" y="777" on="0"/>
        <pt x="437" y="776" on="0"/>
        <pt x="435" y="774" on="0"/>
        <pt x="433" y="773" on="0"/>
        <pt x="433" y="774" on="1"/>
        <pt x="433" y="774" on="0"/>
        <pt x="434" y="775" on="0"/>
        <pt x="436" y="776" on="0"/>
        <pt x="438" y="778" on="0"/>
        <pt x="438" y="778" on="1"/>
        <pt x="438" y="779" on="0"/>
        <pt x="437" y="780" on="0"/>
        <pt x="435" y="780" on="0"/>
        <pt x="433" y="781" on="0"/>
        <pt x="433" y="782" on="1"/>
        <pt x="434" y="782" on="0"/>
        <pt x="435" y="781" on="0"/>
        <pt x="437" y="780" on="0"/>
        <pt x="439" y="779" on="0"/>
        <pt x="440" y="780" on="1"/>
        <pt x="440" y="780" on="0"/>
        <pt x="440" y="781" on="0"/>
        <pt x="440" y="783" on="0"/>
        <pt x="440" y="784" on="0"/>
        <pt x="440" y="784" on="1"/>
        <pt x="441" y="784" on="0"/>
        <pt x="442" y="783" on="0"/>
        <pt x="441" y="782" on="0"/>
        <pt x="441" y="780" on="0"/>
        <pt x="442" y="779" on="1"/>
        <pt x="442" y="779" on="0"/>
        <pt x="444" y="779" on="0"/>
        <pt x="446" y="780" on="0"/>
        <pt x="447" y="781" on="0"/>
        <pt x="447" y="781" on="1"/>
        <pt x="448" y="780" on="0"/>
        <pt x="446" y="779" on="0"/>
        <pt x="444" y="778" on="0"/>
        <pt x="442" y="777" on="0"/>
      </contour>
    </TTGlyph>
    <TTGlyph name="L.3" xMin="412" yMin="42" xMax="427" yMax="58">
      <contour>
        <pt x="421" y="51" on="1"/>
        <pt x="421" y="50" on="0"/>
        <pt x="423" y="49" on="0"/>
        <pt x="425" y="48" on="0"/>
        <pt x="426" y="47" on="0"/>
        <pt x="426" y="46" on="1"/>
        <pt x="425" y="46" on="0"/>
        <pt x="424" y="46" on="0"/>
        <pt x="423" y="47" on="0"/>
        <pt x="421" y="49" on="0"/>
        <pt x="420" y="50" on="0"/>
        <pt x="420" y="49" on="1"/>
        <pt x="420" y="49" on="0"/>
        <pt x="420" y="47" on="0"/>
        <pt x="420" y="45" on="0"/>
        <pt x="420" y="43" on="0"/>
        <pt x="420" y="42" on="0"/>
        <pt x="419" y="42" on="1"/>
        <pt x="419" y="42" on="0"/>
        <pt x="418" y="43" on="0"/>
        <pt x="419" y="45" on="0"/>
        <pt x="419" y="48" on="0"/>
        <pt x="419" y="50" on="0"/>
        <pt x="418" y="50" on="1"/>
        <pt x="418" y="51" on="0"/>
        <pt x="416" y="50" on="0"/>
        <pt x="414" y="48" on="0"/>
        <pt x="412" y="47" on="0"/>
        <pt x="412" y="48" on="1"/>
        <pt x="412" y="48" on="0"/>
        <pt x="413" y="49" on="0"/>
        <pt x="415" y="50" on="0"/>
        <pt x="417" y="52" on="0"/>
        <pt x="417" y="52" on="1"/>
        <pt x="417" y="53" on="0"/>
        <pt x="416" y="54" on="0"/>
        <pt x="414" y="54" on="0"/>
        <pt x="412" y="55" on="0"/>
        <pt x="412" y="56" on="1"/>
        <pt x="413" y="56" on="0"/>
        <pt x="414" y="55" on="0"/>
        <pt x="416" y="54" on="0"/>
        <pt x="418" y="53" on="0"/>
        <pt x="419" y="54" on="1"/>
        <pt x="419" y="54" on="0"/>
        <pt x="419" y="55" on="0"/>
        <pt x="419" y="57" on="0"/>
        <pt x="419" y="58" on="0"/>
        <pt x="419" y="58" on="1"/>
        <pt x="420" y="58" on="0"/>
        <pt x="421" y="57" on="0"/>
        <pt x="420" y="56" on="0"/>
        <pt x="420" y="54" on="0"/>
        <pt x="421" y="53" on="1"/>
        <pt x="421" y="53" on="0"/>
        <pt x="423" y="53" on="0"/>
        <pt x="425" y="54" on="0"/>
        <pt x="426" y="55" on="0"/>
        <pt x="426" y="55" on="1"/>
        <pt x="427" y="54" on="0"/>
        <pt x="425" y="53" on="0"/>
        <pt x="423" y="52" on="0"/>
        <pt x="421" y="51" on="0"/>
      </contour>
    </TTGlyph>
    <TTGlyph name="M" xMin="-30" yMin="-7" xMax="1078" yMax="820">
      <contour>
        <pt x="35" y="820" on="1"/>
        <pt x="438" y="820" on="1"/>
        <pt x="373" y="721" on="1"/>
        <pt x="265" y="721" on="1"/>
        <pt x="271" y="717" on="1"/>
        <pt x="536" y="197" on="1"/>
        <pt x="645" y="429" on="1"/>
        <pt x="768" y="721" on="1"/>
        <pt x="610" y="721" on="1"/>
        <pt x="675" y="820" on="1"/>
        <pt x="1078" y="820" on="1"/>
        <pt x="1013" y="721" on="1"/>
        <pt x="905" y="721" on="1"/>
        <pt x="905" y="82" on="1"/>
        <pt x="942" y="82" on="1"/>
        <pt x="1026" y="152" on="1"/>
        <pt x="1024" y="82" on="1"/>
        <pt x="1024" y="-5" on="1"/>
        <pt x="820" y="1" on="1"/>
        <pt x="818" y="647" on="1"/>
        <pt x="513" y="-4" on="1"/>
        <pt x="211" y="643" on="1"/>
        <pt x="223" y="-7" on="1"/>
        <pt x="11" y="-5" on="1"/>
        <pt x="11" y="82" on="1"/>
        <pt x="9" y="152" on="1"/>
        <pt x="93" y="82" on="1"/>
        <pt x="128" y="82" on="1"/>
        <pt x="128" y="721" on="1"/>
        <pt x="-30" y="721" on="1"/>
      </contour>
    </TTGlyph>
    <TTGlyph name="M.0" xMin="-30" yMin="-7" xMax="1078" yMax="820">
      <component glyphName="M" x="0" y="0" flags="0x204"/>
    </TTGlyph>
    <TTGlyph name="M.1" xMin="163" yMin="713" xMax="178" yMax="729">
      <contour>
        <pt x="172" y="722" on="1"/>
        <pt x="172" y="721" on="0"/>
        <pt x="174" y="720" on="0"/>
        <pt x="176" y="719" on="0"/>
        <pt x="177" y="718" on="0"/>
        <pt x="177" y="717" on="1"/>
        <pt x="176" y="717" on="0"/>
        <pt x="175" y="717" on="0"/>
        <pt x="174" y="718" on="0"/>
        <pt x="172" y="720" on="0"/>
        <pt x="171" y="721" on="0"/>
        <pt x="171" y="720" on="1"/>
        <pt x="171" y="720" on="0"/>
        <pt x="171" y="718" on="0"/>
        <pt x="171" y="716" on="0"/>
        <pt x="171" y="714" on="0"/>
        <pt x="171" y="713" on="0"/>
        <pt x="170" y="713" on="1"/>
        <pt x="170" y="713" on="0"/>
        <pt x="169" y="714" on="0"/>
        <pt x="170" y="716" on="0"/>
        <pt x="170" y="719" on="0"/>
        <pt x="170" y="721" on="0"/>
        <pt x="169" y="721" on="1"/>
        <pt x="169" y="722" on="0"/>
        <pt x="167" y="721" on="0"/>
        <pt x="165" y="719" on="0"/>
        <pt x="163" y="718" on="0"/>
        <pt x="163" y="719" on="1"/>
        <pt x="163" y="719" on="0"/>
        <pt x="164" y="720" on="0"/>
        <pt x="166" y="721" on="0"/>
        <pt x="168" y="723" on="0"/>
        <pt x="168" y="723" on="1"/>
        <pt x="168" y="724" on="0"/>
        <pt x="167" y="725" on="0"/>
        <pt x="165" y="725" on="0"/>
        <pt x="163" y="726" on="0"/>
        <pt x="163" y="727" on="1"/>
        <pt x="164" y="727" on="0"/>
        <pt x="165" y="726" on="0"/>
        <pt x="167" y="725" on="0"/>
        <pt x="169" y="724" on="0"/>
        <pt x="170" y="725" on="1"/>
        <pt x="170" y="725" on="0"/>
        <pt x="170" y="726" on="0"/>
        <pt x="170" y="728" on="0"/>
        <pt x="170" y="729" on="0"/>
        <pt x="170" y="729" on="1"/>
        <pt x="171" y="729" on="0"/>
        <pt x="172" y="728" on="0"/>
        <pt x="171" y="727" on="0"/>
        <pt x="171" y="725" on="0"/>
        <pt x="172" y="724" on="1"/>
        <pt x="172" y="724" on="0"/>
        <pt x="174" y="724" on="0"/>
        <pt x="176" y="725" on="0"/>
        <pt x="177" y="726" on="0"/>
        <pt x="177" y="726" on="1"/>
        <pt x="178" y="725" on="0"/>
        <pt x="176" y="724" on="0"/>
        <pt x="174" y="723" on="0"/>
        <pt x="172" y="722" on="0"/>
      </contour>
    </TTGlyph>
    <TTGlyph name="M.2" xMin="503" yMin="127" xMax="518" yMax="143">
      <contour>
        <pt x="512" y="136" on="1"/>
        <pt x="512" y="135" on="0"/>
        <pt x="514" y="134" on="0"/>
        <pt x="516" y="133" on="0"/>
        <pt x="517" y="132" on="0"/>
        <pt x="517" y="131" on="1"/>
        <pt x="516" y="131" on="0"/>
        <pt x="515" y="131" on="0"/>
        <pt x="514" y="132" on="0"/>
        <pt x="512" y="134" on="0"/>
        <pt x="511" y="135" on="0"/>
        <pt x="511" y="134" on="1"/>
        <pt x="511" y="134" on="0"/>
        <pt x="511" y="132" on="0"/>
        <pt x="511" y="130" on="0"/>
        <pt x="511" y="128" on="0"/>
        <pt x="511" y="127" on="0"/>
        <pt x="510" y="127" on="1"/>
        <pt x="510" y="127" on="0"/>
        <pt x="509" y="128" on="0"/>
        <pt x="510" y="130" on="0"/>
        <pt x="510" y="133" on="0"/>
        <pt x="510" y="135" on="0"/>
        <pt x="509" y="135" on="1"/>
        <pt x="509" y="136" on="0"/>
        <pt x="507" y="135" on="0"/>
        <pt x="505" y="133" on="0"/>
        <pt x="503" y="132" on="0"/>
        <pt x="503" y="133" on="1"/>
        <pt x="503" y="133" on="0"/>
        <pt x="504" y="134" on="0"/>
        <pt x="506" y="135" on="0"/>
        <pt x="508" y="137" on="0"/>
        <pt x="508" y="137" on="1"/>
        <pt x="508" y="138" on="0"/>
        <pt x="507" y="139" on="0"/>
        <pt x="505" y="139" on="0"/>
        <pt x="503" y="140" on="0"/>
        <pt x="503" y="141" on="1"/>
        <pt x="504" y="141" on="0"/>
        <pt x="505" y="140" on="0"/>
        <pt x="507" y="139" on="0"/>
        <pt x="509" y="138" on="0"/>
        <pt x="510" y="139" on="1"/>
        <pt x="510" y="139" on="0"/>
        <pt x="510" y="140" on="0"/>
        <pt x="510" y="142" on="0"/>
        <pt x="510" y="143" on="0"/>
        <pt x="510" y="143" on="1"/>
        <pt x="511" y="143" on="0"/>
        <pt x="512" y="142" on="0"/>
        <pt x="511" y="141" on="0"/>
        <pt x="511" y="139" on="0"/>
        <pt x="512" y="138" on="1"/>
        <pt x="512" y="138" on="0"/>
        <pt x="514" y="138" on="0"/>
        <pt x="516" y="139" on="0"/>
        <pt x="517" y="140" on="0"/>
        <pt x="517" y="140" on="1"/>
        <pt x="518" y="139" on="0"/>
        <pt x="516" y="138" on="0"/>
        <pt x="514" y="137" on="0"/>
        <pt x="512" y="136" on="0"/>
      </contour>
    </TTGlyph>
    <TTGlyph name="M.3" xMin="861" yMin="677" xMax="876" yMax="693">
      <contour>
        <pt x="870" y="686" on="1"/>
        <pt x="870" y="685" on="0"/>
        <pt x="872" y="684" on="0"/>
        <pt x="874" y="683" on="0"/>
        <pt x="875" y="682" on="0"/>
        <pt x="875" y="681" on="1"/>
        <pt x="874" y="681" on="0"/>
        <pt x="873" y="681" on="0"/>
        <pt x="872" y="682" on="0"/>
        <pt x="870" y="684" on="0"/>
        <pt x="869" y="685" on="0"/>
        <pt x="869" y="684" on="1"/>
        <pt x="869" y="684" on="0"/>
        <pt x="869" y="682" on="0"/>
        <pt x="869" y="680" on="0"/>
        <pt x="869" y="678" on="0"/>
        <pt x="869" y="677" on="0"/>
        <pt x="868" y="677" on="1"/>
        <pt x="868" y="677" on="0"/>
        <pt x="867" y="678" on="0"/>
        <pt x="868" y="680" on="0"/>
        <pt x="868" y="683" on="0"/>
        <pt x="868" y="685" on="0"/>
        <pt x="867" y="685" on="1"/>
        <pt x="867" y="686" on="0"/>
        <pt x="865" y="685" on="0"/>
        <pt x="863" y="683" on="0"/>
        <pt x="861" y="682" on="0"/>
        <pt x="861" y="683" on="1"/>
        <pt x="861" y="683" on="0"/>
        <pt x="862" y="684" on="0"/>
        <pt x="864" y="685" on="0"/>
        <pt x="866" y="687" on="0"/>
        <pt x="866" y="687" on="1"/>
        <pt x="866" y="688" on="0"/>
        <pt x="865" y="689" on="0"/>
        <pt x="863" y="689" on="0"/>
        <pt x="861" y="690" on="0"/>
        <pt x="861" y="691" on="1"/>
        <pt x="862" y="691" on="0"/>
        <pt x="863" y="690" on="0"/>
        <pt x="865" y="689" on="0"/>
        <pt x="867" y="688" on="0"/>
        <pt x="868" y="689" on="1"/>
        <pt x="868" y="689" on="0"/>
        <pt x="868" y="690" on="0"/>
        <pt x="868" y="692" on="0"/>
        <pt x="868" y="693" on="0"/>
        <pt x="868" y="693" on="1"/>
        <pt x="869" y="693" on="0"/>
        <pt x="870" y="692" on="0"/>
        <pt x="869" y="691" on="0"/>
        <pt x="869" y="689" on="0"/>
        <pt x="870" y="688" on="1"/>
        <pt x="870" y="688" on="0"/>
        <pt x="872" y="688" on="0"/>
        <pt x="874" y="689" on="0"/>
        <pt x="875" y="690" on="0"/>
        <pt x="875" y="690" on="1"/>
        <pt x="876" y="689" on="0"/>
        <pt x="874" y="688" on="0"/>
        <pt x="872" y="687" on="0"/>
        <pt x="870" y="686" on="0"/>
      </contour>
    </TTGlyph>
    <TTGlyph name="N" xMin="-30" yMin="-10" xMax="959" yMax="820">
      <contour>
        <pt x="35" y="820" on="1"/>
        <pt x="438" y="820" on="1"/>
        <pt x="373" y="721" on="1"/>
        <pt x="265" y="721" on="1"/>
        <pt x="271" y="717" on="1"/>
        <pt x="703" y="185" on="1"/>
        <pt x="696" y="477" on="1"/>
        <pt x="689" y="721" on="1"/>
        <pt x="491" y="721" on="1"/>
        <pt x="556" y="820" on="1"/>
        <pt x="959" y="820" on="1"/>
        <pt x="894" y="721" on="1"/>
        <pt x="786" y="721" on="1"/>
        <pt x="786" y="82" on="1"/>
        <pt x="823" y="82" on="1"/>
        <pt x="907" y="152" on="1"/>
        <pt x="905" y="82" on="1"/>
        <pt x="905" y="-5" on="1"/>
        <pt x="698" y="-10" on="1"/>
        <pt x="211" y="643" on="1"/>
        <pt x="223" y="-7" on="1"/>
        <pt x="11" y="-5" on="1"/>
        <pt x="11" y="82" on="1"/>
        <pt x="9" y="152" on="1"/>
        <pt x="93" y="82" on="1"/>
        <pt x="128" y="82" on="1"/>
        <pt x="128" y="721" on="1"/>
        <pt x="-30" y="721" on="1"/>
      </contour>
    </TTGlyph>
    <TTGlyph name="N.0" xMin="-30" yMin="-10" xMax="959" yMax="820">
      <component glyphName="N" x="0" y="0" flags="0x204"/>
    </TTGlyph>
    <TTGlyph name="N.1" xMin="180" yMin="96" xMax="195" yMax="112">
      <contour>
        <pt x="189" y="105" on="1"/>
        <pt x="189" y="104" on="0"/>
        <pt x="191" y="103" on="0"/>
        <pt x="193" y="102" on="0"/>
        <pt x="194" y="101" on="0"/>
        <pt x="194" y="100" on="1"/>
        <pt x="193" y="100" on="0"/>
        <pt x="192" y="100" on="0"/>
        <pt x="191" y="101" on="0"/>
        <pt x="189" y="103" on="0"/>
        <pt x="188" y="104" on="0"/>
        <pt x="188" y="103" on="1"/>
        <pt x="188" y="103" on="0"/>
        <pt x="188" y="101" on="0"/>
        <pt x="188" y="99" on="0"/>
        <pt x="188" y="97" on="0"/>
        <pt x="188" y="96" on="0"/>
        <pt x="187" y="96" on="1"/>
        <pt x="187" y="96" on="0"/>
        <pt x="186" y="97" on="0"/>
        <pt x="187" y="99" on="0"/>
        <pt x="187" y="102" on="0"/>
        <pt x="187" y="104" on="0"/>
        <pt x="186" y="104" on="1"/>
        <pt x="186" y="105" on="0"/>
        <pt x="184" y="104" on="0"/>
        <pt x="182" y="102" on="0"/>
        <pt x="180" y="101" on="0"/>
        <pt x="180" y="102" on="1"/>
        <pt x="180" y="102" on="0"/>
        <pt x="181" y="103" on="0"/>
        <pt x="183" y="104" on="0"/>
        <pt x="185" y="106" on="0"/>
        <pt x="185" y="106" on="1"/>
        <pt x="185" y="107" on="0"/>
        <pt x="184" y="108" on="0"/>
        <pt x="182" y="108" on="0"/>
        <pt x="180" y="109" on="0"/>
        <pt x="180" y="110" on="1"/>
        <pt x="181" y="110" on="0"/>
        <pt x="182" y="109" on="0"/>
        <pt x="184" y="108" on="0"/>
        <pt x="186" y="107" on="0"/>
        <pt x="187" y="108" on="1"/>
        <pt x="187" y="108" on="0"/>
        <pt x="187" y="109" on="0"/>
        <pt x="187" y="111" on="0"/>
        <pt x="187" y="112" on="0"/>
        <pt x="187" y="112" on="1"/>
        <pt x="188" y="112" on="0"/>
        <pt x="189" y="111" on="0"/>
        <pt x="188" y="110" on="0"/>
        <pt x="188" y="108" on="0"/>
        <pt x="189" y="107" on="1"/>
        <pt x="189" y="107" on="0"/>
        <pt x="191" y="107" on="0"/>
        <pt x="193" y="108" on="0"/>
        <pt x="194" y="109" on="0"/>
        <pt x="194" y="109" on="1"/>
        <pt x="195" y="108" on="0"/>
        <pt x="193" y="107" on="0"/>
        <pt x="191" y="106" on="0"/>
        <pt x="189" y="105" on="0"/>
      </contour>
    </TTGlyph>
    <TTGlyph name="N.2" xMin="643" yMin="694" xMax="658" yMax="710">
      <contour>
        <pt x="652" y="703" on="1"/>
        <pt x="652" y="702" on="0"/>
        <pt x="654" y="701" on="0"/>
        <pt x="656" y="700" on="0"/>
        <pt x="657" y="699" on="0"/>
        <pt x="657" y="698" on="1"/>
        <pt x="656" y="698" on="0"/>
        <pt x="655" y="698" on="0"/>
        <pt x="654" y="699" on="0"/>
        <pt x="652" y="701" on="0"/>
        <pt x="651" y="702" on="0"/>
        <pt x="651" y="701" on="1"/>
        <pt x="651" y="701" on="0"/>
        <pt x="651" y="699" on="0"/>
        <pt x="651" y="697" on="0"/>
        <pt x="651" y="695" on="0"/>
        <pt x="651" y="694" on="0"/>
        <pt x="650" y="694" on="1"/>
        <pt x="650" y="694" on="0"/>
        <pt x="649" y="695" on="0"/>
        <pt x="650" y="697" on="0"/>
        <pt x="650" y="700" on="0"/>
        <pt x="650" y="702" on="0"/>
        <pt x="649" y="702" on="1"/>
        <pt x="649" y="703" on="0"/>
        <pt x="647" y="702" on="0"/>
        <pt x="645" y="700" on="0"/>
        <pt x="643" y="699" on="0"/>
        <pt x="643" y="700" on="1"/>
        <pt x="643" y="700" on="0"/>
        <pt x="644" y="701" on="0"/>
        <pt x="646" y="702" on="0"/>
        <pt x="648" y="704" on="0"/>
        <pt x="648" y="704" on="1"/>
        <pt x="648" y="705" on="0"/>
        <pt x="647" y="706" on="0"/>
        <pt x="645" y="706" on="0"/>
        <pt x="643" y="707" on="0"/>
        <pt x="643" y="708" on="1"/>
        <pt x="644" y="708" on="0"/>
        <pt x="645" y="707" on="0"/>
        <pt x="647" y="706" on="0"/>
        <pt x="649" y="705" on="0"/>
        <pt x="650" y="706" on="1"/>
        <pt x="650" y="706" on="0"/>
        <pt x="650" y="707" on="0"/>
        <pt x="650" y="709" on="0"/>
        <pt x="650" y="710" on="0"/>
        <pt x="650" y="710" on="1"/>
        <pt x="651" y="710" on="0"/>
        <pt x="652" y="709" on="0"/>
        <pt x="651" y="708" on="0"/>
        <pt x="651" y="706" on="0"/>
        <pt x="652" y="705" on="1"/>
        <pt x="652" y="705" on="0"/>
        <pt x="654" y="705" on="0"/>
        <pt x="656" y="706" on="0"/>
        <pt x="657" y="707" on="0"/>
        <pt x="657" y="707" on="1"/>
        <pt x="658" y="706" on="0"/>
        <pt x="656" y="705" on="0"/>
        <pt x="654" y="704" on="0"/>
        <pt x="652" y="703" on="0"/>
      </contour>
    </TTGlyph>
    <TTGlyph name="N.3" xMin="711" yMin="79" xMax="726" yMax="95">
      <contour>
        <pt x="720" y="88" on="1"/>
        <pt x="720" y="87" on="0"/>
        <pt x="722" y="86" on="0"/>
        <pt x="724" y="85" on="0"/>
        <pt x="725" y="84" on="0"/>
        <pt x="725" y="83" on="1"/>
        <pt x="724" y="83" on="0"/>
        <pt x="723" y="83" on="0"/>
        <pt x="722" y="84" on="0"/>
        <pt x="720" y="86" on="0"/>
        <pt x="719" y="87" on="0"/>
        <pt x="719" y="86" on="1"/>
        <pt x="719" y="86" on="0"/>
        <pt x="719" y="84" on="0"/>
        <pt x="719" y="82" on="0"/>
        <pt x="719" y="80" on="0"/>
        <pt x="719" y="79" on="0"/>
        <pt x="718" y="79" on="1"/>
        <pt x="718" y="79" on="0"/>
        <pt x="717" y="80" on="0"/>
        <pt x="718" y="82" on="0"/>
        <pt x="718" y="85" on="0"/>
        <pt x="718" y="87" on="0"/>
        <pt x="717" y="87" on="1"/>
        <pt x="717" y="88" on="0"/>
        <pt x="715" y="87" on="0"/>
        <pt x="713" y="85" on="0"/>
        <pt x="711" y="84" on="0"/>
        <pt x="711" y="85" on="1"/>
        <pt x="711" y="85" on="0"/>
        <pt x="712" y="86" on="0"/>
        <pt x="714" y="87" on="0"/>
        <pt x="716" y="89" on="0"/>
        <pt x="716" y="89" on="1"/>
        <pt x="716" y="90" on="0"/>
        <pt x="715" y="91" on="0"/>
        <pt x="713" y="91" on="0"/>
        <pt x="711" y="92" on="0"/>
        <pt x="711" y="93" on="1"/>
        <pt x="712" y="93" on="0"/>
        <pt x="713" y="92" on="0"/>
        <pt x="715" y="91" on="0"/>
        <pt x="717" y="90" on="0"/>
        <pt x="718" y="91" on="1"/>
        <pt x="718" y="91" on="0"/>
        <pt x="718" y="92" on="0"/>
        <pt x="718" y="94" on="0"/>
        <pt x="718" y="95" on="0"/>
        <pt x="718" y="95" on="1"/>
        <pt x="719" y="95" on="0"/>
        <pt x="720" y="94" on="0"/>
        <pt x="719" y="93" on="0"/>
        <pt x="719" y="91" on="0"/>
        <pt x="720" y="90" on="1"/>
        <pt x="720" y="90" on="0"/>
        <pt x="722" y="90" on="0"/>
        <pt x="724" y="91" on="0"/>
        <pt x="725" y="92" on="0"/>
        <pt x="725" y="92" on="1"/>
        <pt x="726" y="91" on="0"/>
        <pt x="724" y="90" on="0"/>
        <pt x="722" y="89" on="0"/>
        <pt x="720" y="88" on="0"/>
      </contour>
    </TTGlyph>
    <TTGlyph name="O" xMin="-20" yMin="-4" xMax="992" yMax="820">
      <contour>
        <pt x="45" y="820" on="1"/>
        <pt x="992" y="820" on="1"/>
        <pt x="927" y="721" on="1"/>
        <pt x="-20" y="721" on="1"/>
      </contour>
      <contour>
        <pt x="913" y="385" on="1"/>
        <pt x="913" y="321" on="0"/>
        <pt x="865" y="204" on="0"/>
        <pt x="781" y="107" on="0"/>
        <pt x="675" y="35" on="0"/>
        <pt x="559" y="-4" on="0"/>
        <pt x="502" y="-4" on="1"/>
        <pt x="445" y="-4" on="0"/>
        <pt x="328" y="35" on="0"/>
        <pt x="220" y="106" on="0"/>
        <pt x="135" y="203" on="0"/>
        <pt x="86" y="319" on="0"/>
        <pt x="86" y="383" on="1"/>
        <pt x="86" y="447" on="0"/>
        <pt x="135" y="565" on="0"/>
        <pt x="220" y="662" on="0"/>
        <pt x="328" y="734" on="0"/>
        <pt x="445" y="774" on="0"/>
        <pt x="502" y="774" on="1"/>
        <pt x="559" y="774" on="0"/>
        <pt x="675" y="735" on="0"/>
        <pt x="781" y="663" on="0"/>
        <pt x="865" y="566" on="0"/>
        <pt x="913" y="450" on="0"/>
      </contour>
      <contour>
        <pt x="783" y="369" on="1"/>
        <pt x="783" y="434" on="0"/>
        <pt x="736" y="558" on="0"/>
        <pt x="658" y="658" on="0"/>
        <pt x="564" y="718" on="0"/>
        <pt x="516" y="718" on="1"/>
        <pt x="478" y="718" on="0"/>
        <pt x="392" y="685" on="0"/>
        <pt x="310" y="625" on="0"/>
        <pt x="244" y="545" on="0"/>
        <pt x="204" y="450" on="0"/>
        <pt x="204" y="398" on="1"/>
        <pt x="204" y="346" on="0"/>
        <pt x="241" y="246" on="0"/>
        <pt x="304" y="158" on="0"/>
        <pt x="383" y="91" on="0"/>
        <pt x="466" y="53" on="0"/>
        <pt x="504" y="53" on="1"/>
        <pt x="552" y="53" on="0"/>
        <pt x="650" y="103" on="0"/>
        <pt x="732" y="190" on="0"/>
        <pt x="783" y="305" on="0"/>
      </contour>
    </TTGlyph>
    <TTGlyph name="O.0" xMin="-30" yMin="-4" xMax="982" yMax="820">
      <component glyphName="O" x="-10" y="0" flags="0x4"/>
    </TTGlyph>
    <TTGlyph name="O.1" xMin="316" yMin="768" xMax="331" yMax="784">
      <contour>
        <pt x="325" y="777" on="1"/>
        <pt x="325" y="776" on="0"/>
        <pt x="327" y="775" on="0"/>
        <pt x="329" y="774" on="0"/>
        <pt x="330" y="773" on="0"/>
        <pt x="330" y="772" on="1"/>
        <pt x="329" y="772" on="0"/>
        <pt x="328" y="772" on="0"/>
        <pt x="327" y="773" on="0"/>
        <pt x="325" y="775" on="0"/>
        <pt x="324" y="776" on="0"/>
        <pt x="324" y="775" on="1"/>
        <pt x="324" y="775" on="0"/>
        <pt x="324" y="773" on="0"/>
        <pt x="324" y="771" on="0"/>
        <pt x="324" y="769" on="0"/>
        <pt x="324" y="768" on="0"/>
        <pt x="323" y="768" on="1"/>
        <pt x="323" y="768" on="0"/>
        <pt x="322" y="769" on="0"/>
        <pt x="323" y="771" on="0"/>
        <pt x="323" y="774" on="0"/>
        <pt x="323" y="776" on="0"/>
        <pt x="322" y="776" on="1"/>
        <pt x="322" y="777" on="0"/>
        <pt x="320" y="776" on="0"/>
        <pt x="318" y="774" on="0"/>
        <pt x="316" y="773" on="0"/>
        <pt x="316" y="774" on="1"/>
        <pt x="316" y="774" on="0"/>
        <pt x="317" y="775" on="0"/>
        <pt x="319" y="776" on="0"/>
        <pt x="321" y="778" on="0"/>
        <pt x="321" y="778" on="1"/>
        <pt x="321" y="779" on="0"/>
        <pt x="320" y="780" on="0"/>
        <pt x="318" y="780" on="0"/>
        <pt x="316" y="781" on="0"/>
        <pt x="316" y="782" on="1"/>
        <pt x="317" y="782" on="0"/>
        <pt x="318" y="781" on="0"/>
        <pt x="320" y="780" on="0"/>
        <pt x="322" y="779" on="0"/>
        <pt x="323" y="780" on="1"/>
        <pt x="323" y="780" on="0"/>
        <pt x="323" y="781" on="0"/>
        <pt x="323" y="783" on="0"/>
        <pt x="323" y="784" on="0"/>
        <pt x="323" y="784" on="1"/>
        <pt x="324" y="784" on="0"/>
        <pt x="325" y="783" on="0"/>
        <pt x="324" y="782" on="0"/>
        <pt x="324" y="780" on="0"/>
        <pt x="325" y="779" on="1"/>
        <pt x="325" y="779" on="0"/>
        <pt x="327" y="779" on="0"/>
        <pt x="329" y="780" on="0"/>
        <pt x="330" y="781" on="0"/>
        <pt x="330" y="781" on="1"/>
        <pt x="331" y="780" on="0"/>
        <pt x="329" y="779" on="0"/>
        <pt x="327" y="778" on="0"/>
        <pt x="325" y="777" on="0"/>
      </contour>
    </TTGlyph>
    <TTGlyph name="O.2" xMin="221" yMin="120" xMax="236" yMax="136">
      <contour>
        <pt x="230" y="129" on="1"/>
        <pt x="230" y="128" on="0"/>
        <pt x="232" y="127" on="0"/>
        <pt x="234" y="126" on="0"/>
        <pt x="235" y="125" on="0"/>
        <pt x="235" y="124" on="1"/>
        <pt x="234" y="124" on="0"/>
        <pt x="233" y="124" on="0"/>
        <pt x="232" y="125" on="0"/>
        <pt x="230" y="127" on="0"/>
        <pt x="229" y="128" on="0"/>
        <pt x="229" y="127" on="1"/>
        <pt x="229" y="127" on="0"/>
        <pt x="229" y="125" on="0"/>
        <pt x="229" y="123" on="0"/>
        <pt x="229" y="121" on="0"/>
        <pt x="229" y="120" on="0"/>
        <pt x="228" y="120" on="1"/>
        <pt x="228" y="120" on="0"/>
        <pt x="227" y="121" on="0"/>
        <pt x="228" y="123" on="0"/>
        <pt x="228" y="126" on="0"/>
        <pt x="228" y="128" on="0"/>
        <pt x="227" y="128" on="1"/>
        <pt x="227" y="129" on="0"/>
        <pt x="225" y="128" on="0"/>
        <pt x="223" y="126" on="0"/>
        <pt x="221" y="125" on="0"/>
        <pt x="221" y="126" on="1"/>
        <pt x="221" y="126" on="0"/>
        <pt x="222" y="127" on="0"/>
        <pt x="224" y="128" on="0"/>
        <pt x="226" y="130" on="0"/>
        <pt x="226" y="130" on="1"/>
        <pt x="226" y="131" on="0"/>
        <pt x="225" y="132" on="0"/>
        <pt x="223" y="132" on="0"/>
        <pt x="221" y="133" on="0"/>
        <pt x="221" y="134" on="1"/>
        <pt x="222" y="134" on="0"/>
        <pt x="223" y="133" on="0"/>
        <pt x="225" y="132" on="0"/>
        <pt x="227" y="131" on="0"/>
        <pt x="228" y="132" on="1"/>
        <pt x="228" y="132" on="0"/>
        <pt x="228" y="133" on="0"/>
        <pt x="228" y="135" on="0"/>
        <pt x="228" y="136" on="0"/>
        <pt x="228" y="136" on="1"/>
        <pt x="229" y="136" on="0"/>
        <pt x="230" y="135" on="0"/>
        <pt x="229" y="134" on="0"/>
        <pt x="229" y="132" on="0"/>
        <pt x="230" y="131" on="1"/>
        <pt x="230" y="131" on="0"/>
        <pt x="232" y="131" on="0"/>
        <pt x="234" y="132" on="0"/>
        <pt x="235" y="133" on="0"/>
        <pt x="235" y="133" on="1"/>
        <pt x="236" y="132" on="0"/>
        <pt x="234" y="131" on="0"/>
        <pt x="232" y="130" on="0"/>
        <pt x="230" y="129" on="0"/>
      </contour>
    </TTGlyph>
    <TTGlyph name="O.3" xMin="785" yMin="164" xMax="800" yMax="180">
      <contour>
        <pt x="794" y="173" on="1"/>
        <pt x="794" y="172" on="0"/>
        <pt x="796" y="171" on="0"/>
        <pt x="798" y="170" on="0"/>
        <pt x="799" y="169" on="0"/>
        <pt x="799" y="168" on="1"/>
        <pt x="798" y="168" on="0"/>
        <pt x="797" y="168" on="0"/>
        <pt x="796" y="169" on="0"/>
        <pt x="794" y="171" on="0"/>
        <pt x="793" y="172" on="0"/>
        <pt x="793" y="171" on="1"/>
        <pt x="793" y="171" on="0"/>
        <pt x="793" y="169" on="0"/>
        <pt x="793" y="167" on="0"/>
        <pt x="793" y="165" on="0"/>
        <pt x="793" y="164" on="0"/>
        <pt x="792" y="164" on="1"/>
        <pt x="792" y="164" on="0"/>
        <pt x="791" y="165" on="0"/>
        <pt x="792" y="167" on="0"/>
        <pt x="792" y="170" on="0"/>
        <pt x="792" y="172" on="0"/>
        <pt x="791" y="172" on="1"/>
        <pt x="791" y="173" on="0"/>
        <pt x="789" y="172" on="0"/>
        <pt x="787" y="170" on="0"/>
        <pt x="785" y="169" on="0"/>
        <pt x="785" y="170" on="1"/>
        <pt x="785" y="170" on="0"/>
        <pt x="786" y="171" on="0"/>
        <pt x="788" y="172" on="0"/>
        <pt x="790" y="174" on="0"/>
        <pt x="790" y="174" on="1"/>
        <pt x="790" y="175" on="0"/>
        <pt x="789" y="176" on="0"/>
        <pt x="787" y="176" on="0"/>
        <pt x="785" y="177" on="0"/>
        <pt x="785" y="178" on="1"/>
        <pt x="786" y="178" on="0"/>
        <pt x="787" y="177" on="0"/>
        <pt x="789" y="176" on="0"/>
        <pt x="791" y="175" on="0"/>
        <pt x="792" y="176" on="1"/>
        <pt x="792" y="176" on="0"/>
        <pt x="792" y="177" on="0"/>
        <pt x="792" y="179" on="0"/>
        <pt x="792" y="180" on="0"/>
        <pt x="792" y="180" on="1"/>
        <pt x="793" y="180" on="0"/>
        <pt x="794" y="179" on="0"/>
        <pt x="793" y="178" on="0"/>
        <pt x="793" y="176" on="0"/>
        <pt x="794" y="175" on="1"/>
        <pt x="794" y="175" on="0"/>
        <pt x="796" y="175" on="0"/>
        <pt x="798" y="176" on="0"/>
        <pt x="799" y="177" on="0"/>
        <pt x="799" y="177" on="1"/>
        <pt x="800" y="176" on="0"/>
        <pt x="798" y="175" on="0"/>
        <pt x="796" y="174" on="0"/>
        <pt x="794" y="173" on="0"/>
      </contour>
    </TTGlyph>
    <TTGlyph name="P" xMin="-20" yMin="-7" xMax="754" yMax="820">
      <contour>
        <pt x="203" y="80" on="1"/>
        <pt x="204" y="721" on="1"/>
        <pt x="-20" y="721" on="1"/>
        <pt x="45" y="820" on="1"/>
        <pt x="754" y="820" on="1"/>
        <pt x="689" y="721" on="1"/>
        <pt x="580" y="721" on="1"/>
        <pt x="619" y="693" on="0"/>
        <pt x="666" y="609" on="0"/>
        <pt x="666" y="560" on="1"/>
        <pt x="666" y="517" on="0"/>
        <pt x="630" y="435" on="0"/>
        <pt x="567" y="369" on="0"/>
        <pt x="483" y="330" on="0"/>
        <pt x="436" y="330" on="1"/>
        <pt x="386" y="330" on="0"/>
        <pt x="341" y="349" on="1"/>
        <pt x="341" y="82" on="1"/>
        <pt x="342" y="-6" on="1"/>
        <pt x="204" y="-7" on="1"/>
        <pt x="75" y="-5" on="1"/>
        <pt x="75" y="82" on="1"/>
        <pt x="73" y="152" on="1"/>
        <pt x="157" y="82" on="1"/>
      </contour>
      <contour>
        <pt x="535" y="555" on="1"/>
        <pt x="535" y="587" on="0"/>
        <pt x="498" y="652" on="0"/>
        <pt x="440" y="706" on="0"/>
        <pt x="411" y="721" on="1"/>
        <pt x="341" y="721" on="1"/>
        <pt x="341" y="413" on="1"/>
        <pt x="346" y="413" on="0"/>
        <pt x="350" y="413" on="1"/>
        <pt x="374" y="413" on="0"/>
        <pt x="437" y="434" on="0"/>
        <pt x="496" y="471" on="0"/>
        <pt x="535" y="524" on="0"/>
      </contour>
    </TTGlyph>
    <TTGlyph name="P.0" xMin="-20" yMin="-7" xMax="754" yMax="820">
      <component glyphName="P" x="0" y="0" flags="0x204"/>
    </TTGlyph>
    <TTGlyph name="P.1" xMin="96" yMin="68" xMax="111" yMax="84">
      <contour>
        <pt x="105" y="77" on="1"/>
        <pt x="105" y="76" on="0"/>
        <pt x="107" y="75" on="0"/>
        <pt x="109" y="74" on="0"/>
        <pt x="110" y="73" on="0"/>
        <pt x="110" y="72" on="1"/>
        <pt x="109" y="72" on="0"/>
        <pt x="108" y="72" on="0"/>
        <pt x="107" y="73" on="0"/>
        <pt x="105" y="75" on="0"/>
        <pt x="104" y="76" on="0"/>
        <pt x="104" y="75" on="1"/>
        <pt x="104" y="75" on="0"/>
        <pt x="104" y="73" on="0"/>
        <pt x="104" y="71" on="0"/>
        <pt x="104" y="69" on="0"/>
        <pt x="104" y="68" on="0"/>
        <pt x="103" y="68" on="1"/>
        <pt x="103" y="68" on="0"/>
        <pt x="102" y="69" on="0"/>
        <pt x="103" y="71" on="0"/>
        <pt x="103" y="74" on="0"/>
        <pt x="103" y="76" on="0"/>
        <pt x="102" y="76" on="1"/>
        <pt x="102" y="77" on="0"/>
        <pt x="100" y="76" on="0"/>
        <pt x="98" y="74" on="0"/>
        <pt x="96" y="73" on="0"/>
        <pt x="96" y="74" on="1"/>
        <pt x="96" y="74" on="0"/>
        <pt x="97" y="75" on="0"/>
        <pt x="99" y="76" on="0"/>
        <pt x="101" y="78" on="0"/>
        <pt x="101" y="78" on="1"/>
        <pt x="101" y="79" on="0"/>
        <pt x="100" y="80" on="0"/>
        <pt x="98" y="80" on="0"/>
        <pt x="96" y="81" on="0"/>
        <pt x="96" y="82" on="1"/>
        <pt x="97" y="82" on="0"/>
        <pt x="98" y="81" on="0"/>
        <pt x="100" y="80" on="0"/>
        <pt x="102" y="79" on="0"/>
        <pt x="103" y="80" on="1"/>
        <pt x="103" y="80" on="0"/>
        <pt x="103" y="81" on="0"/>
        <pt x="103" y="83" on="0"/>
        <pt x="103" y="84" on="0"/>
        <pt x="103" y="84" on="1"/>
        <pt x="104" y="84" on="0"/>
        <pt x="105" y="83" on="0"/>
        <pt x="104" y="82" on="0"/>
        <pt x="104" y="80" on="0"/>
        <pt x="105" y="79" on="1"/>
        <pt x="105" y="79" on="0"/>
        <pt x="107" y="79" on="0"/>
        <pt x="109" y="80" on="0"/>
        <pt x="110" y="81" on="0"/>
        <pt x="110" y="81" on="1"/>
        <pt x="111" y="80" on="0"/>
        <pt x="109" y="79" on="0"/>
        <pt x="107" y="78" on="0"/>
        <pt x="105" y="77" on="0"/>
      </contour>
    </TTGlyph>
    <TTGlyph name="P.2" xMin="286" yMin="688" xMax="301" yMax="704">
      <contour>
        <pt x="295" y="697" on="1"/>
        <pt x="295" y="696" on="0"/>
        <pt x="297" y="695" on="0"/>
        <pt x="299" y="694" on="0"/>
        <pt x="300" y="693" on="0"/>
        <pt x="300" y="692" on="1"/>
        <pt x="299" y="692" on="0"/>
        <pt x="298" y="692" on="0"/>
        <pt x="297" y="693" on="0"/>
        <pt x="295" y="695" on="0"/>
        <pt x="294" y="696" on="0"/>
        <pt x="294" y="695" on="1"/>
        <pt x="294" y="695" on="0"/>
        <pt x="294" y="693" on="0"/>
        <pt x="294" y="691" on="0"/>
        <pt x="294" y="689" on="0"/>
        <pt x="294" y="688" on="0"/>
        <pt x="293" y="688" on="1"/>
        <pt x="293" y="688" on="0"/>
        <pt x="292" y="689" on="0"/>
        <pt x="293" y="691" on="0"/>
        <pt x="293" y="694" on="0"/>
        <pt x="293" y="696" on="0"/>
        <pt x="292" y="696" on="1"/>
        <pt x="292" y="697" on="0"/>
        <pt x="290" y="696" on="0"/>
        <pt x="288" y="694" on="0"/>
        <pt x="286" y="693" on="0"/>
        <pt x="286" y="694" on="1"/>
        <pt x="286" y="694" on="0"/>
        <pt x="287" y="695" on="0"/>
        <pt x="289" y="696" on="0"/>
        <pt x="291" y="698" on="0"/>
        <pt x="291" y="698" on="1"/>
        <pt x="291" y="699" on="0"/>
        <pt x="290" y="700" on="0"/>
        <pt x="288" y="700" on="0"/>
        <pt x="286" y="701" on="0"/>
        <pt x="286" y="702" on="1"/>
        <pt x="287" y="702" on="0"/>
        <pt x="288" y="701" on="0"/>
        <pt x="290" y="700" on="0"/>
        <pt x="292" y="699" on="0"/>
        <pt x="293" y="700" on="1"/>
        <pt x="293" y="700" on="0"/>
        <pt x="293" y="701" on="0"/>
        <pt x="293" y="703" on="0"/>
        <pt x="293" y="704" on="0"/>
        <pt x="293" y="704" on="1"/>
        <pt x="294" y="704" on="0"/>
        <pt x="295" y="703" on="0"/>
        <pt x="294" y="702" on="0"/>
        <pt x="294" y="700" on="0"/>
        <pt x="295" y="699" on="1"/>
        <pt x="295" y="699" on="0"/>
        <pt x="297" y="699" on="0"/>
        <pt x="299" y="700" on="0"/>
        <pt x="300" y="701" on="0"/>
        <pt x="300" y="701" on="1"/>
        <pt x="301" y="700" on="0"/>
        <pt x="299" y="699" on="0"/>
        <pt x="297" y="698" on="0"/>
        <pt x="295" y="697" on="0"/>
      </contour>
    </TTGlyph>
    <TTGlyph name="P.3" xMin="560" yMin="454" xMax="575" yMax="470">
      <contour>
        <pt x="569" y="463" on="1"/>
        <pt x="569" y="462" on="0"/>
        <pt x="571" y="461" on="0"/>
        <pt x="573" y="460" on="0"/>
        <pt x="574" y="459" on="0"/>
        <pt x="574" y="458" on="1"/>
        <pt x="573" y="458" on="0"/>
        <pt x="572" y="458" on="0"/>
        <pt x="571" y="459" on="0"/>
        <pt x="569" y="461" on="0"/>
        <pt x="568" y="462" on="0"/>
        <pt x="568" y="461" on="1"/>
        <pt x="568" y="461" on="0"/>
        <pt x="568" y="459" on="0"/>
        <pt x="568" y="457" on="0"/>
        <pt x="568" y="455" on="0"/>
        <pt x="568" y="454" on="0"/>
        <pt x="567" y="454" on="1"/>
        <pt x="567" y="454" on="0"/>
        <pt x="566" y="455" on="0"/>
        <pt x="567" y="457" on="0"/>
        <pt x="567" y="460" on="0"/>
        <pt x="567" y="462" on="0"/>
        <pt x="566" y="462" on="1"/>
        <pt x="566" y="463" on="0"/>
        <pt x="564" y="462" on="0"/>
        <pt x="562" y="460" on="0"/>
        <pt x="560" y="459" on="0"/>
        <pt x="560" y="460" on="1"/>
        <pt x="560" y="460" on="0"/>
        <pt x="561" y="461" on="0"/>
        <pt x="563" y="462" on="0"/>
        <pt x="565" y="464" on="0"/>
        <pt x="565" y="464" on="1"/>
        <pt x="565" y="465" on="0"/>
        <pt x="564" y="466" on="0"/>
        <pt x="562" y="466" on="0"/>
        <pt x="560" y="467" on="0"/>
        <pt x="560" y="468" on="1"/>
        <pt x="561" y="468" on="0"/>
        <pt x="562" y="467" on="0"/>
        <pt x="564" y="466" on="0"/>
        <pt x="566" y="465" on="0"/>
        <pt x="567" y="466" on="1"/>
        <pt x="567" y="466" on="0"/>
        <pt x="567" y="467" on="0"/>
        <pt x="567" y="469" on="0"/>
        <pt x="567" y="470" on="0"/>
        <pt x="567" y="470" on="1"/>
        <pt x="568" y="470" on="0"/>
        <pt x="569" y="469" on="0"/>
        <pt x="568" y="468" on="0"/>
        <pt x="568" y="466" on="0"/>
        <pt x="569" y="465" on="1"/>
        <pt x="569" y="465" on="0"/>
        <pt x="571" y="465" on="0"/>
        <pt x="573" y="466" on="0"/>
        <pt x="574" y="467" on="0"/>
        <pt x="574" y="467" on="1"/>
        <pt x="575" y="466" on="0"/>
        <pt x="573" y="465" on="0"/>
        <pt x="571" y="464" on="0"/>
        <pt x="569" y="463" on="0"/>
      </contour>
    </TTGlyph>
    <TTGlyph name="Q" xMin="-20" yMin="-155" xMax="992" yMax="820">
      <contour>
        <pt x="45" y="820" on="1"/>
        <pt x="992" y="820" on="1"/>
        <pt x="927" y="721" on="1"/>
        <pt x="692" y="721" on="1"/>
        <pt x="753" y="687" on="0"/>
        <pt x="853" y="585" on="0"/>
        <pt x="913" y="457" on="0"/>
        <pt x="913" y="385" on="1"/>
        <pt x="913" y="313" on="0"/>
        <pt x="852" y="183" on="0"/>
        <pt x="749" y="80" on="0"/>
        <pt x="687" y="46" on="1"/>
        <pt x="782" y="-68" on="1"/>
        <pt x="819" y="-68" on="1"/>
        <pt x="903" y="2" on="1"/>
        <pt x="901" y="-155" on="1"/>
        <pt x="731" y="-150" on="1"/>
        <pt x="601" y="11" on="1"/>
        <pt x="550" y="-4" on="0"/>
        <pt x="502" y="-4" on="1"/>
        <pt x="445" y="-4" on="0"/>
        <pt x="328" y="35" on="0"/>
        <pt x="220" y="106" on="0"/>
        <pt x="135" y="203" on="0"/>
        <pt x="86" y="319" on="0"/>
        <pt x="86" y="383" on="1"/>
        <pt x="86" y="455" on="0"/>
        <pt x="147" y="584" on="0"/>
        <pt x="249" y="687" on="0"/>
        <pt x="311" y="721" on="1"/>
        <pt x="-20" y="721" on="1"/>
      </contour>
      <contour>
        <pt x="783" y="369" on="1"/>
        <pt x="783" y="434" on="0"/>
        <pt x="736" y="558" on="0"/>
        <pt x="658" y="658" on="0"/>
        <pt x="564" y="718" on="0"/>
        <pt x="516" y="718" on="1"/>
        <pt x="478" y="718" on="0"/>
        <pt x="392" y="685" on="0"/>
        <pt x="310" y="625" on="0"/>
        <pt x="244" y="545" on="0"/>
        <pt x="204" y="450" on="0"/>
        <pt x="204" y="398" on="1"/>
        <pt x="204" y="346" on="0"/>
        <pt x="241" y="246" on="0"/>
        <pt x="304" y="158" on="0"/>
        <pt x="383" y="91" on="0"/>
        <pt x="466" y="53" on="0"/>
        <pt x="504" y="53" on="1"/>
        <pt x="531" y="53" on="0"/>
        <pt x="560" y="61" on="1"/>
        <pt x="461" y="183" on="1"/>
        <pt x="574" y="182" on="1"/>
        <pt x="641" y="102" on="1"/>
        <pt x="680" y="130" on="0"/>
        <pt x="745" y="213" on="0"/>
        <pt x="783" y="313" on="0"/>
      </contour>
    </TTGlyph>
    <TTGlyph name="Q.0" xMin="-20" yMin="-155" xMax="992" yMax="820">
      <component glyphName="Q" x="0" y="0" flags="0x204"/>
    </TTGlyph>
    <TTGlyph name="Q.1" xMin="174" yMin="236" xMax="189" yMax="252">
      <contour>
        <pt x="183" y="245" on="1"/>
        <pt x="183" y="244" on="0"/>
        <pt x="185" y="243" on="0"/>
        <pt x="187" y="242" on="0"/>
        <pt x="188" y="241" on="0"/>
        <pt x="188" y="240" on="1"/>
        <pt x="187" y="240" on="0"/>
        <pt x="186" y="240" on="0"/>
        <pt x="185" y="241" on="0"/>
        <pt x="183" y="243" on="0"/>
        <pt x="182" y="244" on="0"/>
        <pt x="182" y="243" on="1"/>
        <pt x="182" y="243" on="0"/>
        <pt x="182" y="241" on="0"/>
        <pt x="182" y="239" on="0"/>
        <pt x="182" y="237" on="0"/>
        <pt x="182" y="236" on="0"/>
        <pt x="181" y="236" on="1"/>
        <pt x="181" y="236" on="0"/>
        <pt x="180" y="237" on="0"/>
        <pt x="181" y="239" on="0"/>
        <pt x="181" y="242" on="0"/>
        <pt x="181" y="244" on="0"/>
        <pt x="180" y="244" on="1"/>
        <pt x="180" y="245" on="0"/>
        <pt x="178" y="244" on="0"/>
        <pt x="176" y="242" on="0"/>
        <pt x="174" y="241" on="0"/>
        <pt x="174" y="242" on="1"/>
        <pt x="174" y="242" on="0"/>
        <pt x="175" y="243" on="0"/>
        <pt x="177" y="244" on="0"/>
        <pt x="179" y="246" on="0"/>
        <pt x="179" y="246" on="1"/>
        <pt x="179" y="247" on="0"/>
        <pt x="178" y="248" on="0"/>
        <pt x="176" y="248" on="0"/>
        <pt x="174" y="249" on="0"/>
        <pt x="174" y="250" on="1"/>
        <pt x="175" y="250" on="0"/>
        <pt x="176" y="249" on="0"/>
        <pt x="178" y="248" on="0"/>
        <pt x="180" y="247" on="0"/>
        <pt x="181" y="248" on="1"/>
        <pt x="181" y="248" on="0"/>
        <pt x="181" y="249" on="0"/>
        <pt x="181" y="251" on="0"/>
        <pt x="181" y="252" on="0"/>
        <pt x="181" y="252" on="1"/>
        <pt x="182" y="252" on="0"/>
        <pt x="183" y="251" on="0"/>
        <pt x="182" y="250" on="0"/>
        <pt x="182" y="248" on="0"/>
        <pt x="183" y="247" on="1"/>
        <pt x="183" y="247" on="0"/>
        <pt x="185" y="247" on="0"/>
        <pt x="187" y="248" on="0"/>
        <pt x="188" y="249" on="0"/>
        <pt x="188" y="249" on="1"/>
        <pt x="189" y="248" on="0"/>
        <pt x="187" y="247" on="0"/>
        <pt x="185" y="246" on="0"/>
        <pt x="183" y="245" on="0"/>
      </contour>
    </TTGlyph>
    <TTGlyph name="Q.2" xMin="476" yMin="716" xMax="491" yMax="732">
      <contour>
        <pt x="485" y="725" on="1"/>
        <pt x="485" y="724" on="0"/>
        <pt x="487" y="723" on="0"/>
        <pt x="489" y="722" on="0"/>
        <pt x="490" y="721" on="0"/>
        <pt x="490" y="720" on="1"/>
        <pt x="489" y="720" on="0"/>
        <pt x="488" y="720" on="0"/>
        <pt x="487" y="721" on="0"/>
        <pt x="485" y="723" on="0"/>
        <pt x="484" y="724" on="0"/>
        <pt x="484" y="723" on="1"/>
        <pt x="484" y="723" on="0"/>
        <pt x="484" y="721" on="0"/>
        <pt x="484" y="719" on="0"/>
        <pt x="484" y="717" on="0"/>
        <pt x="484" y="716" on="0"/>
        <pt x="483" y="716" on="1"/>
        <pt x="483" y="716" on="0"/>
        <pt x="482" y="717" on="0"/>
        <pt x="483" y="719" on="0"/>
        <pt x="483" y="722" on="0"/>
        <pt x="483" y="724" on="0"/>
        <pt x="482" y="724" on="1"/>
        <pt x="482" y="725" on="0"/>
        <pt x="480" y="724" on="0"/>
        <pt x="478" y="722" on="0"/>
        <pt x="476" y="721" on="0"/>
        <pt x="476" y="722" on="1"/>
        <pt x="476" y="722" on="0"/>
        <pt x="477" y="723" on="0"/>
        <pt x="479" y="724" on="0"/>
        <pt x="481" y="726" on="0"/>
        <pt x="481" y="726" on="1"/>
        <pt x="481" y="727" on="0"/>
        <pt x="480" y="728" on="0"/>
        <pt x="478" y="728" on="0"/>
        <pt x="476" y="729" on="0"/>
        <pt x="476" y="730" on="1"/>
        <pt x="477" y="730" on="0"/>
        <pt x="478" y="729" on="0"/>
        <pt x="480" y="728" on="0"/>
        <pt x="482" y="727" on="0"/>
        <pt x="483" y="728" on="1"/>
        <pt x="483" y="728" on="0"/>
        <pt x="483" y="729" on="0"/>
        <pt x="483" y="731" on="0"/>
        <pt x="483" y="732" on="0"/>
        <pt x="483" y="732" on="1"/>
        <pt x="484" y="732" on="0"/>
        <pt x="485" y="731" on="0"/>
        <pt x="484" y="730" on="0"/>
        <pt x="484" y="728" on="0"/>
        <pt x="485" y="727" on="1"/>
        <pt x="485" y="727" on="0"/>
        <pt x="487" y="727" on="0"/>
        <pt x="489" y="728" on="0"/>
        <pt x="490" y="729" on="0"/>
        <pt x="490" y="729" on="1"/>
        <pt x="491" y="728" on="0"/>
        <pt x="489" y="727" on="0"/>
        <pt x="487" y="726" on="0"/>
        <pt x="485" y="725" on="0"/>
      </contour>
    </TTGlyph>
    <TTGlyph name="Q.3" xMin="744" yMin="-139" xMax="759" yMax="-123">
      <contour>
        <pt x="753" y="-130" on="1"/>
        <pt x="753" y="-131" on="0"/>
        <pt x="755" y="-132" on="0"/>
        <pt x="757" y="-133" on="0"/>
        <pt x="758" y="-134" on="0"/>
        <pt x="758" y="-135" on="1"/>
        <pt x="757" y="-135" on="0"/>
        <pt x="756" y="-135" on="0"/>
        <pt x="755" y="-134" on="0"/>
        <pt x="753" y="-132" on="0"/>
        <pt x="752" y="-131" on="0"/>
        <pt x="752" y="-132" on="1"/>
        <pt x="752" y="-132" on="0"/>
        <pt x="752" y="-134" on="0"/>
        <pt x="752" y="-136" on="0"/>
        <pt x="752" y="-138" on="0"/>
        <pt x="752" y="-139" on="0"/>
        <pt x="751" y="-139" on="1"/>
        <pt x="751" y="-139" on="0"/>
        <pt x="750" y="-138" on="0"/>
        <pt x="751" y="-136" on="0"/>
        <pt x="751" y="-133" on="0"/>
        <pt x="751" y="-131" on="0"/>
        <pt x="750" y="-131" on="1"/>
        <pt x="750" y="-130" on="0"/>
        <pt x="748" y="-131" on="0"/>
        <pt x="746" y="-133" on="0"/>
        <pt x="744" y="-134" on="0"/>
        <pt x="744" y="-133" on="1"/>
        <pt x="744" y="-133" on="0"/>
        <pt x="745" y="-132" on="0"/>
        <pt x="747" y="-131" on="0"/>
        <pt x="749" y="-129" on="0"/>
        <pt x="749" y="-129" on="1"/>
        <pt x="749" y="-128" on="0"/>
        <pt x="748" y="-127" on="0"/>
        <pt x="746" y="-127" on="0"/>
        <pt x="744" y="-126" on="0"/>
        <pt x="744" y="-125" on="1"/>
        <pt x="745" y="-125" on="0"/>
        <pt x="746" y="-126" on="0"/>
        <pt x="748" y="-127" on="0"/>
        <pt x="750" y="-128" on="0"/>
        <pt x="751" y="-127" on="1"/>
        <pt x="751" y="-127" on="0"/>
        <pt x="751" y="-126" on="0"/>
        <pt x="751" y="-124" on="0"/>
        <pt x="751" y="-123" on="0"/>
        <pt x="751" y="-123" on="1"/>
        <pt x="752" y="-123" on="0"/>
        <pt x="753" y="-124" on="0"/>
        <pt x="752" y="-125" on="0"/>
        <pt x="752" y="-127" on="0"/>
        <pt x="753" y="-128" on="1"/>
        <pt x="753" y="-128" on="0"/>
        <pt x="755" y="-128" on="0"/>
        <pt x="757" y="-127" on="0"/>
        <pt x="758" y="-126" on="0"/>
        <pt x="758" y="-126" on="1"/>
        <pt x="759" y="-127" on="0"/>
        <pt x="757" y="-128" on="0"/>
        <pt x="755" y="-129" on="0"/>
        <pt x="753" y="-130" on="0"/>
      </contour>
    </TTGlyph>
    <TTGlyph name="R" xMin="-30" yMin="-7" xMax="792" yMax="820">
      <contour>
        <pt x="193" y="80" on="1"/>
        <pt x="194" y="721" on="1"/>
        <pt x="-30" y="721" on="1"/>
        <pt x="35" y="820" on="1"/>
        <pt x="792" y="820" on="1"/>
        <pt x="727" y="721" on="1"/>
        <pt x="570" y="721" on="1"/>
        <pt x="609" y="693" on="0"/>
        <pt x="656" y="609" on="0"/>
        <pt x="656" y="560" on="1"/>
        <pt x="656" y="507" on="0"/>
        <pt x="602" y="408" on="0"/>
        <pt x="510" y="339" on="0"/>
        <pt x="453" y="332" on="1"/>
        <pt x="661" y="82" on="1"/>
        <pt x="698" y="82" on="1"/>
        <pt x="782" y="152" on="1"/>
        <pt x="780" y="-5" on="1"/>
        <pt x="610" y="0" on="1"/>
        <pt x="331" y="343" on="1"/>
        <pt x="331" y="82" on="1"/>
        <pt x="332" y="-6" on="1"/>
        <pt x="194" y="-7" on="1"/>
        <pt x="65" y="-5" on="1"/>
        <pt x="65" y="82" on="1"/>
        <pt x="63" y="152" on="1"/>
        <pt x="147" y="82" on="1"/>
      </contour>
      <contour>
        <pt x="525" y="555" on="1"/>
        <pt x="525" y="587" on="0"/>
        <pt x="488" y="652" on="0"/>
        <pt x="430" y="706" on="0"/>
        <pt x="401" y="721" on="1"/>
        <pt x="331" y="721" on="1"/>
        <pt x="331" y="413" on="1"/>
        <pt x="336" y="413" on="0"/>
        <pt x="340" y="413" on="1"/>
        <pt x="364" y="413" on="0"/>
        <pt x="427" y="434" on="0"/>
        <pt x="486" y="471" on="0"/>
        <pt x="525" y="524" on="0"/>
      </contour>
      <contour>
        <pt x="331" y="348" on="1"/>
        <pt x="332" y="348" on="1"/>
        <pt x="331" y="348" on="0"/>
        <pt x="331" y="349" on="1"/>
      </contour>
    </TTGlyph>
    <TTGlyph name="R.0" xMin="-30" yMin="-7" xMax="792" yMax="820">
      <component glyphName="R" x="0" y="0" flags="0x4"/>
    </TTGlyph>
    <TTGlyph name="R.1" xMin="145" yMin="747" xMax="160" yMax="763">
      <contour>
        <pt x="154" y="756" on="1"/>
        <pt x="154" y="755" on="0"/>
        <pt x="156" y="754" on="0"/>
        <pt x="158" y="753" on="0"/>
        <pt x="159" y="752" on="0"/>
        <pt x="159" y="751" on="1"/>
        <pt x="158" y="751" on="0"/>
        <pt x="157" y="751" on="0"/>
        <pt x="156" y="752" on="0"/>
        <pt x="154" y="754" on="0"/>
        <pt x="153" y="755" on="0"/>
        <pt x="153" y="754" on="1"/>
        <pt x="153" y="754" on="0"/>
        <pt x="153" y="752" on="0"/>
        <pt x="153" y="750" on="0"/>
        <pt x="153" y="748" on="0"/>
        <pt x="153" y="747" on="0"/>
        <pt x="152" y="747" on="1"/>
        <pt x="152" y="747" on="0"/>
        <pt x="151" y="748" on="0"/>
        <pt x="152" y="750" on="0"/>
        <pt x="152" y="753" on="0"/>
        <pt x="152" y="755" on="0"/>
        <pt x="151" y="755" on="1"/>
        <pt x="151" y="756" on="0"/>
        <pt x="149" y="755" on="0"/>
        <pt x="147" y="753" on="0"/>
        <pt x="145" y="752" on="0"/>
        <pt x="145" y="753" on="1"/>
        <pt x="145" y="753" on="0"/>
        <pt x="146" y="754" on="0"/>
        <pt x="148" y="755" on="0"/>
        <pt x="150" y="757" on="0"/>
        <pt x="150" y="757" on="1"/>
        <pt x="150" y="758" on="0"/>
        <pt x="149" y="759" on="0"/>
        <pt x="147" y="759" on="0"/>
        <pt x="145" y="760" on="0"/>
        <pt x="145" y="761" on="1"/>
        <pt x="146" y="761" on="0"/>
        <pt x="147" y="760" on="0"/>
        <pt x="149" y="759" on="0"/>
        <pt x="151" y="758" on="0"/>
        <pt x="152" y="759" on="1"/>
        <pt x="152" y="759" on="0"/>
        <pt x="152" y="760" on="0"/>
        <pt x="152" y="762" on="0"/>
        <pt x="152" y="763" on="0"/>
        <pt x="152" y="763" on="1"/>
        <pt x="153" y="763" on="0"/>
        <pt x="154" y="762" on="0"/>
        <pt x="153" y="761" on="0"/>
        <pt x="153" y="759" on="0"/>
        <pt x="154" y="758" on="1"/>
        <pt x="154" y="758" on="0"/>
        <pt x="156" y="758" on="0"/>
        <pt x="158" y="759" on="0"/>
        <pt x="159" y="760" on="0"/>
        <pt x="159" y="760" on="1"/>
        <pt x="160" y="759" on="0"/>
        <pt x="158" y="758" on="0"/>
        <pt x="156" y="757" on="0"/>
        <pt x="154" y="756" on="0"/>
      </contour>
    </TTGlyph>
    <TTGlyph name="R.2" xMin="617" yMin="503" xMax="632" yMax="519">
      <contour>
        <pt x="626" y="512" on="1"/>
        <pt x="626" y="511" on="0"/>
        <pt x="628" y="510" on="0"/>
        <pt x="630" y="509" on="0"/>
        <pt x="631" y="508" on="0"/>
        <pt x="631" y="507" on="1"/>
        <pt x="630" y="507" on="0"/>
        <pt x="629" y="507" on="0"/>
        <pt x="628" y="508" on="0"/>
        <pt x="626" y="510" on="0"/>
        <pt x="625" y="511" on="0"/>
        <pt x="625" y="510" on="1"/>
        <pt x="625" y="510" on="0"/>
        <pt x="625" y="508" on="0"/>
        <pt x="625" y="506" on="0"/>
        <pt x="625" y="504" on="0"/>
        <pt x="625" y="503" on="0"/>
        <pt x="624" y="503" on="1"/>
        <pt x="624" y="503" on="0"/>
        <pt x="623" y="504" on="0"/>
        <pt x="624" y="506" on="0"/>
        <pt x="624" y="509" on="0"/>
        <pt x="624" y="511" on="0"/>
        <pt x="623" y="511" on="1"/>
        <pt x="623" y="512" on="0"/>
        <pt x="621" y="511" on="0"/>
        <pt x="619" y="509" on="0"/>
        <pt x="617" y="508" on="0"/>
        <pt x="617" y="509" on="1"/>
        <pt x="617" y="509" on="0"/>
        <pt x="618" y="510" on="0"/>
        <pt x="620" y="511" on="0"/>
        <pt x="622" y="513" on="0"/>
        <pt x="622" y="513" on="1"/>
        <pt x="622" y="514" on="0"/>
        <pt x="621" y="515" on="0"/>
        <pt x="619" y="515" on="0"/>
        <pt x="617" y="516" on="0"/>
        <pt x="617" y="517" on="1"/>
        <pt x="618" y="517" on="0"/>
        <pt x="619" y="516" on="0"/>
        <pt x="621" y="515" on="0"/>
        <pt x="623" y="514" on="0"/>
        <pt x="624" y="515" on="1"/>
        <pt x="624" y="515" on="0"/>
        <pt x="624" y="516" on="0"/>
        <pt x="624" y="518" on="0"/>
        <pt x="624" y="519" on="0"/>
        <pt x="624" y="519" on="1"/>
        <pt x="625" y="519" on="0"/>
        <pt x="626" y="518" on="0"/>
        <pt x="625" y="517" on="0"/>
        <pt x="625" y="515" on="0"/>
        <pt x="626" y="514" on="1"/>
        <pt x="626" y="514" on="0"/>
        <pt x="628" y="514" on="0"/>
        <pt x="630" y="515" on="0"/>
        <pt x="631" y="516" on="0"/>
        <pt x="631" y="516" on="1"/>
        <pt x="632" y="515" on="0"/>
        <pt x="630" y="514" on="0"/>
        <pt x="628" y="513" on="0"/>
        <pt x="626" y="512" on="0"/>
      </contour>
    </TTGlyph>
    <TTGlyph name="R.3" xMin="613" yMin="68" xMax="628" yMax="84">
      <contour>
        <pt x="622" y="77" on="1"/>
        <pt x="622" y="76" on="0"/>
        <pt x="624" y="75" on="0"/>
        <pt x="626" y="74" on="0"/>
        <pt x="627" y="73" on="0"/>
        <pt x="627" y="72" on="1"/>
        <pt x="626" y="72" on="0"/>
        <pt x="625" y="72" on="0"/>
        <pt x="624" y="73" on="0"/>
        <pt x="622" y="75" on="0"/>
        <pt x="621" y="76" on="0"/>
        <pt x="621" y="75" on="1"/>
        <pt x="621" y="75" on="0"/>
        <pt x="621" y="73" on="0"/>
        <pt x="621" y="71" on="0"/>
        <pt x="621" y="69" on="0"/>
        <pt x="621" y="68" on="0"/>
        <pt x="620" y="68" on="1"/>
        <pt x="620" y="68" on="0"/>
        <pt x="619" y="69" on="0"/>
        <pt x="620" y="71" on="0"/>
        <pt x="620" y="74" on="0"/>
        <pt x="620" y="76" on="0"/>
        <pt x="619" y="76" on="1"/>
        <pt x="619" y="77" on="0"/>
        <pt x="617" y="76" on="0"/>
        <pt x="615" y="74" on="0"/>
        <pt x="613" y="73" on="0"/>
        <pt x="613" y="74" on="1"/>
        <pt x="613" y="74" on="0"/>
        <pt x="614" y="75" on="0"/>
        <pt x="616" y="76" on="0"/>
        <pt x="618" y="78" on="0"/>
        <pt x="618" y="78" on="1"/>
        <pt x="618" y="79" on="0"/>
        <pt x="617" y="80" on="0"/>
        <pt x="615" y="80" on="0"/>
        <pt x="613" y="81" on="0"/>
        <pt x="613" y="82" on="1"/>
        <pt x="614" y="82" on="0"/>
        <pt x="615" y="81" on="0"/>
        <pt x="617" y="80" on="0"/>
        <pt x="619" y="79" on="0"/>
        <pt x="620" y="80" on="1"/>
        <pt x="620" y="80" on="0"/>
        <pt x="620" y="81" on="0"/>
        <pt x="620" y="83" on="0"/>
        <pt x="620" y="84" on="0"/>
        <pt x="620" y="84" on="1"/>
        <pt x="621" y="84" on="0"/>
        <pt x="622" y="83" on="0"/>
        <pt x="621" y="82" on="0"/>
        <pt x="621" y="80" on="0"/>
        <pt x="622" y="79" on="1"/>
        <pt x="622" y="79" on="0"/>
        <pt x="624" y="79" on="0"/>
        <pt x="626" y="80" on="0"/>
        <pt x="627" y="81" on="0"/>
        <pt x="627" y="81" on="1"/>
        <pt x="628" y="80" on="0"/>
        <pt x="626" y="79" on="0"/>
        <pt x="624" y="78" on="0"/>
        <pt x="622" y="77" on="0"/>
      </contour>
    </TTGlyph>
    <TTGlyph name="S" xMin="-20" yMin="-10" xMax="692" yMax="820">
      <contour>
        <pt x="45" y="820" on="1"/>
        <pt x="692" y="820" on="1"/>
        <pt x="627" y="721" on="1"/>
        <pt x="494" y="721" on="1"/>
        <pt x="517" y="700" on="0"/>
        <pt x="542" y="630" on="0"/>
        <pt x="538" y="562" on="0"/>
        <pt x="516" y="543" on="1"/>
        <pt x="494" y="575" on="1"/>
        <pt x="491" y="578" on="0"/>
        <pt x="504" y="576" on="0"/>
        <pt x="504" y="584" on="1"/>
        <pt x="504" y="603" on="0"/>
        <pt x="472" y="646" on="0"/>
        <pt x="421" y="686" on="0"/>
        <pt x="362" y="715" on="0"/>
        <pt x="336" y="721" on="1"/>
        <pt x="281" y="721" on="1"/>
        <pt x="241" y="713" on="0"/>
        <pt x="187" y="657" on="0"/>
        <pt x="187" y="621" on="1"/>
        <pt x="187" y="600" on="0"/>
        <pt x="233" y="545" on="0"/>
        <pt x="300" y="490" on="0"/>
        <pt x="367" y="443" on="0"/>
        <pt x="389" y="430" on="1"/>
        <pt x="392" y="428" on="0"/>
        <pt x="434" y="400" on="0"/>
        <pt x="493" y="358" on="0"/>
        <pt x="553" y="311" on="0"/>
        <pt x="598" y="270" on="0"/>
        <pt x="603" y="258" on="1"/>
        <pt x="614" y="231" on="0"/>
        <pt x="597" y="161" on="0"/>
        <pt x="550" y="89" on="0"/>
        <pt x="484" y="28" on="0"/>
        <pt x="406" y="-10" on="0"/>
        <pt x="366" y="-10" on="1"/>
        <pt x="286" y="-10" on="0"/>
        <pt x="129" y="7" on="0"/>
        <pt x="50" y="8" on="1"/>
        <pt x="50" y="95" on="1"/>
        <pt x="48" y="165" on="1"/>
        <pt x="132" y="95" on="1"/>
        <pt x="141" y="79" on="1"/>
        <pt x="171" y="59" on="0"/>
        <pt x="254" y="25" on="0"/>
        <pt x="295" y="25" on="1"/>
        <pt x="327" y="25" on="0"/>
        <pt x="396" y="54" on="0"/>
        <pt x="454" y="99" on="0"/>
        <pt x="490" y="151" on="0"/>
        <pt x="490" y="173" on="1"/>
        <pt x="490" y="191" on="0"/>
        <pt x="443" y="239" on="0"/>
        <pt x="373" y="289" on="0"/>
        <pt x="303" y="331" on="0"/>
        <pt x="256" y="357" on="0"/>
        <pt x="255" y="357" on="1"/>
        <pt x="251" y="358" on="0"/>
        <pt x="213" y="386" on="0"/>
        <pt x="163" y="435" on="0"/>
        <pt x="119" y="502" on="0"/>
        <pt x="95" y="584" on="0"/>
        <pt x="103" y="631" on="1"/>
        <pt x="112" y="682" on="0"/>
        <pt x="152" y="721" on="1"/>
        <pt x="-20" y="721" on="1"/>
      </contour>
      <contour>
        <pt x="88" y="119" on="1"/>
        <pt x="89" y="120" on="0"/>
        <pt x="89" y="121" on="1"/>
        <pt x="87" y="121" on="0"/>
      </contour>
    </TTGlyph>
    <TTGlyph name="S.0" xMin="-20" yMin="-10" xMax="692" yMax="820">
      <component glyphName="S" x="0" y="0" flags="0x204"/>
    </TTGlyph>
    <TTGlyph name="S.1" xMin="167" yMin="75" xMax="182" yMax="91">
      <contour>
        <pt x="176" y="84" on="1"/>
        <pt x="176" y="83" on="0"/>
        <pt x="178" y="82" on="0"/>
        <pt x="180" y="81" on="0"/>
        <pt x="181" y="80" on="0"/>
        <pt x="181" y="79" on="1"/>
        <pt x="180" y="79" on="0"/>
        <pt x="179" y="79" on="0"/>
        <pt x="178" y="80" on="0"/>
        <pt x="176" y="82" on="0"/>
        <pt x="175" y="83" on="0"/>
        <pt x="175" y="82" on="1"/>
        <pt x="175" y="82" on="0"/>
        <pt x="175" y="80" on="0"/>
        <pt x="175" y="78" on="0"/>
        <pt x="175" y="76" on="0"/>
        <pt x="175" y="75" on="0"/>
        <pt x="174" y="75" on="1"/>
        <pt x="174" y="75" on="0"/>
        <pt x="173" y="76" on="0"/>
        <pt x="174" y="78" on="0"/>
        <pt x="174" y="81" on="0"/>
        <pt x="174" y="83" on="0"/>
        <pt x="173" y="83" on="1"/>
        <pt x="173" y="84" on="0"/>
        <pt x="171" y="83" on="0"/>
        <pt x="169" y="81" on="0"/>
        <pt x="167" y="80" on="0"/>
        <pt x="167" y="81" on="1"/>
        <pt x="167" y="81" on="0"/>
        <pt x="168" y="82" on="0"/>
        <pt x="170" y="83" on="0"/>
        <pt x="172" y="85" on="0"/>
        <pt x="172" y="85" on="1"/>
        <pt x="172" y="86" on="0"/>
        <pt x="171" y="87" on="0"/>
        <pt x="169" y="87" on="0"/>
        <pt x="167" y="88" on="0"/>
        <pt x="167" y="89" on="1"/>
        <pt x="168" y="89" on="0"/>
        <pt x="169" y="88" on="0"/>
        <pt x="171" y="87" on="0"/>
        <pt x="173" y="86" on="0"/>
        <pt x="174" y="87" on="1"/>
        <pt x="174" y="87" on="0"/>
        <pt x="174" y="88" on="0"/>
        <pt x="174" y="90" on="0"/>
        <pt x="174" y="91" on="0"/>
        <pt x="174" y="91" on="1"/>
        <pt x="175" y="91" on="0"/>
        <pt x="176" y="90" on="0"/>
        <pt x="175" y="89" on="0"/>
        <pt x="175" y="87" on="0"/>
        <pt x="176" y="86" on="1"/>
        <pt x="176" y="86" on="0"/>
        <pt x="178" y="86" on="0"/>
        <pt x="180" y="87" on="0"/>
        <pt x="181" y="88" on="0"/>
        <pt x="181" y="88" on="1"/>
        <pt x="182" y="87" on="0"/>
        <pt x="180" y="86" on="0"/>
        <pt x="178" y="85" on="0"/>
        <pt x="176" y="84" on="0"/>
      </contour>
    </TTGlyph>
    <TTGlyph name="S.2" xMin="309" yMin="351" xMax="324" yMax="367">
      <contour>
        <pt x="318" y="360" on="1"/>
        <pt x="318" y="359" on="0"/>
        <pt x="320" y="358" on="0"/>
        <pt x="322" y="357" on="0"/>
        <pt x="323" y="356" on="0"/>
        <pt x="323" y="355" on="1"/>
        <pt x="322" y="355" on="0"/>
        <pt x="321" y="355" on="0"/>
        <pt x="320" y="356" on="0"/>
        <pt x="318" y="358" on="0"/>
        <pt x="317" y="359" on="0"/>
        <pt x="317" y="358" on="1"/>
        <pt x="317" y="358" on="0"/>
        <pt x="317" y="356" on="0"/>
        <pt x="317" y="354" on="0"/>
        <pt x="317" y="352" on="0"/>
        <pt x="317" y="351" on="0"/>
        <pt x="316" y="351" on="1"/>
        <pt x="316" y="351" on="0"/>
        <pt x="315" y="352" on="0"/>
        <pt x="316" y="354" on="0"/>
        <pt x="316" y="357" on="0"/>
        <pt x="316" y="359" on="0"/>
        <pt x="315" y="359" on="1"/>
        <pt x="315" y="360" on="0"/>
        <pt x="313" y="359" on="0"/>
        <pt x="311" y="357" on="0"/>
        <pt x="309" y="356" on="0"/>
        <pt x="309" y="357" on="1"/>
        <pt x="309" y="357" on="0"/>
        <pt x="310" y="358" on="0"/>
        <pt x="312" y="359" on="0"/>
        <pt x="314" y="361" on="0"/>
        <pt x="314" y="361" on="1"/>
        <pt x="314" y="362" on="0"/>
        <pt x="313" y="363" on="0"/>
        <pt x="311" y="363" on="0"/>
        <pt x="309" y="364" on="0"/>
        <pt x="309" y="365" on="1"/>
        <pt x="310" y="365" on="0"/>
        <pt x="311" y="364" on="0"/>
        <pt x="313" y="363" on="0"/>
        <pt x="315" y="362" on="0"/>
        <pt x="316" y="363" on="1"/>
        <pt x="316" y="363" on="0"/>
        <pt x="316" y="364" on="0"/>
        <pt x="316" y="366" on="0"/>
        <pt x="316" y="367" on="0"/>
        <pt x="316" y="367" on="1"/>
        <pt x="317" y="367" on="0"/>
        <pt x="318" y="366" on="0"/>
        <pt x="317" y="365" on="0"/>
        <pt x="317" y="363" on="0"/>
        <pt x="318" y="362" on="1"/>
        <pt x="318" y="362" on="0"/>
        <pt x="320" y="362" on="0"/>
        <pt x="322" y="363" on="0"/>
        <pt x="323" y="364" on="0"/>
        <pt x="323" y="364" on="1"/>
        <pt x="324" y="363" on="0"/>
        <pt x="322" y="362" on="0"/>
        <pt x="320" y="361" on="0"/>
        <pt x="318" y="360" on="0"/>
      </contour>
    </TTGlyph>
    <TTGlyph name="S.3" xMin="510" yMin="671" xMax="525" yMax="687">
      <contour>
        <pt x="519" y="680" on="1"/>
        <pt x="519" y="679" on="0"/>
        <pt x="521" y="678" on="0"/>
        <pt x="523" y="677" on="0"/>
        <pt x="524" y="676" on="0"/>
        <pt x="524" y="675" on="1"/>
        <pt x="523" y="675" on="0"/>
        <pt x="522" y="675" on="0"/>
        <pt x="521" y="676" on="0"/>
        <pt x="519" y="678" on="0"/>
        <pt x="518" y="679" on="0"/>
        <pt x="518" y="678" on="1"/>
        <pt x="518" y="678" on="0"/>
        <pt x="518" y="676" on="0"/>
        <pt x="518" y="674" on="0"/>
        <pt x="518" y="672" on="0"/>
        <pt x="518" y="671" on="0"/>
        <pt x="517" y="671" on="1"/>
        <pt x="517" y="671" on="0"/>
        <pt x="516" y="672" on="0"/>
        <pt x="517" y="674" on="0"/>
        <pt x="517" y="677" on="0"/>
        <pt x="517" y="679" on="0"/>
        <pt x="516" y="679" on="1"/>
        <pt x="516" y="680" on="0"/>
        <pt x="514" y="679" on="0"/>
        <pt x="512" y="677" on="0"/>
        <pt x="510" y="676" on="0"/>
        <pt x="510" y="677" on="1"/>
        <pt x="510" y="677" on="0"/>
        <pt x="511" y="678" on="0"/>
        <pt x="513" y="679" on="0"/>
        <pt x="515" y="681" on="0"/>
        <pt x="515" y="681" on="1"/>
        <pt x="515" y="682" on="0"/>
        <pt x="514" y="683" on="0"/>
        <pt x="512" y="683" on="0"/>
        <pt x="510" y="684" on="0"/>
        <pt x="510" y="685" on="1"/>
        <pt x="511" y="685" on="0"/>
        <pt x="512" y="684" on="0"/>
        <pt x="514" y="683" on="0"/>
        <pt x="516" y="682" on="0"/>
        <pt x="517" y="683" on="1"/>
        <pt x="517" y="683" on="0"/>
        <pt x="517" y="684" on="0"/>
        <pt x="517" y="686" on="0"/>
        <pt x="517" y="687" on="0"/>
        <pt x="517" y="687" on="1"/>
        <pt x="518" y="687" on="0"/>
        <pt x="519" y="686" on="0"/>
        <pt x="518" y="685" on="0"/>
        <pt x="518" y="683" on="0"/>
        <pt x="519" y="682" on="1"/>
        <pt x="519" y="682" on="0"/>
        <pt x="521" y="682" on="0"/>
        <pt x="523" y="683" on="0"/>
        <pt x="524" y="684" on="0"/>
        <pt x="524" y="684" on="1"/>
        <pt x="525" y="683" on="0"/>
        <pt x="523" y="682" on="0"/>
        <pt x="521" y="681" on="0"/>
        <pt x="519" y="680" on="0"/>
      </contour>
    </TTGlyph>
    <TTGlyph name="T" xMin="-20" yMin="-5" xMax="792" yMax="820">
      <contour>
        <pt x="598" y="-5" on="1"/>
        <pt x="222" y="-5" on="1"/>
        <pt x="222" y="82" on="1"/>
        <pt x="220" y="152" on="1"/>
        <pt x="304" y="82" on="1"/>
        <pt x="339" y="82" on="1"/>
        <pt x="341" y="80" on="1"/>
        <pt x="342" y="721" on="1"/>
        <pt x="-20" y="721" on="1"/>
        <pt x="45" y="820" on="1"/>
        <pt x="792" y="820" on="1"/>
        <pt x="727" y="721" on="1"/>
        <pt x="479" y="721" on="1"/>
        <pt x="479" y="82" on="1"/>
        <pt x="516" y="82" on="1"/>
        <pt x="600" y="152" on="1"/>
        <pt x="598" y="82" on="1"/>
      </contour>
    </TTGlyph>
    <TTGlyph name="T.0" xMin="-20" yMin="-5" xMax="792" yMax="820">
      <component glyphName="T" x="0" y="0" flags="0x204"/>
    </TTGlyph>
    <TTGlyph name="T.1" xMin="411" yMin="35" xMax="426" yMax="51">
      <contour>
        <pt x="420" y="44" on="1"/>
        <pt x="420" y="43" on="0"/>
        <pt x="422" y="42" on="0"/>
        <pt x="424" y="41" on="0"/>
        <pt x="425" y="40" on="0"/>
        <pt x="425" y="39" on="1"/>
        <pt x="424" y="39" on="0"/>
        <pt x="423" y="39" on="0"/>
        <pt x="422" y="40" on="0"/>
        <pt x="420" y="42" on="0"/>
        <pt x="419" y="43" on="0"/>
        <pt x="419" y="42" on="1"/>
        <pt x="419" y="42" on="0"/>
        <pt x="419" y="40" on="0"/>
        <pt x="419" y="38" on="0"/>
        <pt x="419" y="36" on="0"/>
        <pt x="419" y="35" on="0"/>
        <pt x="418" y="35" on="1"/>
        <pt x="418" y="35" on="0"/>
        <pt x="417" y="36" on="0"/>
        <pt x="418" y="38" on="0"/>
        <pt x="418" y="41" on="0"/>
        <pt x="418" y="43" on="0"/>
        <pt x="417" y="43" on="1"/>
        <pt x="417" y="44" on="0"/>
        <pt x="415" y="43" on="0"/>
        <pt x="413" y="41" on="0"/>
        <pt x="411" y="40" on="0"/>
        <pt x="411" y="41" on="1"/>
        <pt x="411" y="41" on="0"/>
        <pt x="412" y="42" on="0"/>
        <pt x="414" y="43" on="0"/>
        <pt x="416" y="45" on="0"/>
        <pt x="416" y="45" on="1"/>
        <pt x="416" y="46" on="0"/>
        <pt x="415" y="47" on="0"/>
        <pt x="413" y="47" on="0"/>
        <pt x="411" y="48" on="0"/>
        <pt x="411" y="49" on="1"/>
        <pt x="412" y="49" on="0"/>
        <pt x="413" y="48" on="0"/>
        <pt x="415" y="47" on="0"/>
        <pt x="417" y="46" on="0"/>
        <pt x="418" y="47" on="1"/>
        <pt x="418" y="47" on="0"/>
        <pt x="418" y="48" on="0"/>
        <pt x="418" y="50" on="0"/>
        <pt x="418" y="51" on="0"/>
        <pt x="418" y="51" on="1"/>
        <pt x="419" y="51" on="0"/>
        <pt x="420" y="50" on="0"/>
        <pt x="419" y="49" on="0"/>
        <pt x="419" y="47" on="0"/>
        <pt x="420" y="46" on="1"/>
        <pt x="420" y="46" on="0"/>
        <pt x="422" y="46" on="0"/>
        <pt x="424" y="47" on="0"/>
        <pt x="425" y="48" on="0"/>
        <pt x="425" y="48" on="1"/>
        <pt x="426" y="47" on="0"/>
        <pt x="424" y="46" on="0"/>
        <pt x="422" y="45" on="0"/>
        <pt x="420" y="44" on="0"/>
      </contour>
    </TTGlyph>
    <TTGlyph name="T.2" xMin="127" yMin="772" xMax="142" yMax="788">
      <contour>
        <pt x="136" y="781" on="1"/>
        <pt x="136" y="780" on="0"/>
        <pt x="138" y="779" on="0"/>
        <pt x="140" y="778" on="0"/>
        <pt x="141" y="777" on="0"/>
        <pt x="141" y="776" on="1"/>
        <pt x="140" y="776" on="0"/>
        <pt x="139" y="776" on="0"/>
        <pt x="138" y="777" on="0"/>
        <pt x="136" y="779" on="0"/>
        <pt x="135" y="780" on="0"/>
        <pt x="135" y="779" on="1"/>
        <pt x="135" y="779" on="0"/>
        <pt x="135" y="777" on="0"/>
        <pt x="135" y="775" on="0"/>
        <pt x="135" y="773" on="0"/>
        <pt x="135" y="772" on="0"/>
        <pt x="134" y="772" on="1"/>
        <pt x="134" y="772" on="0"/>
        <pt x="133" y="773" on="0"/>
        <pt x="134" y="775" on="0"/>
        <pt x="134" y="778" on="0"/>
        <pt x="134" y="780" on="0"/>
        <pt x="133" y="780" on="1"/>
        <pt x="133" y="781" on="0"/>
        <pt x="131" y="780" on="0"/>
        <pt x="129" y="778" on="0"/>
        <pt x="127" y="777" on="0"/>
        <pt x="127" y="778" on="1"/>
        <pt x="127" y="778" on="0"/>
        <pt x="128" y="779" on="0"/>
        <pt x="130" y="780" on="0"/>
        <pt x="132" y="782" on="0"/>
        <pt x="132" y="782" on="1"/>
        <pt x="132" y="783" on="0"/>
        <pt x="131" y="784" on="0"/>
        <pt x="129" y="784" on="0"/>
        <pt x="127" y="785" on="0"/>
        <pt x="127" y="786" on="1"/>
        <pt x="128" y="786" on="0"/>
        <pt x="129" y="785" on="0"/>
        <pt x="131" y="784" on="0"/>
        <pt x="133" y="783" on="0"/>
        <pt x="134" y="784" on="1"/>
        <pt x="134" y="784" on="0"/>
        <pt x="134" y="785" on="0"/>
        <pt x="134" y="787" on="0"/>
        <pt x="134" y="788" on="0"/>
        <pt x="134" y="788" on="1"/>
        <pt x="135" y="788" on="0"/>
        <pt x="136" y="787" on="0"/>
        <pt x="135" y="786" on="0"/>
        <pt x="135" y="784" on="0"/>
        <pt x="136" y="783" on="1"/>
        <pt x="136" y="783" on="0"/>
        <pt x="138" y="783" on="0"/>
        <pt x="140" y="784" on="0"/>
        <pt x="141" y="785" on="0"/>
        <pt x="141" y="785" on="1"/>
        <pt x="142" y="784" on="0"/>
        <pt x="140" y="783" on="0"/>
        <pt x="138" y="782" on="0"/>
        <pt x="136" y="781" on="0"/>
      </contour>
    </TTGlyph>
    <TTGlyph name="T.3" xMin="617" yMin="715" xMax="632" yMax="731">
      <contour>
        <pt x="626" y="724" on="1"/>
        <pt x="626" y="723" on="0"/>
        <pt x="628" y="722" on="0"/>
        <pt x="630" y="721" on="0"/>
        <pt x="631" y="720" on="0"/>
        <pt x="631" y="719" on="1"/>
        <pt x="630" y="719" on="0"/>
        <pt x="629" y="719" on="0"/>
        <pt x="628" y="720" on="0"/>
        <pt x="626" y="722" on="0"/>
        <pt x="625" y="723" on="0"/>
        <pt x="625" y="722" on="1"/>
        <pt x="625" y="722" on="0"/>
        <pt x="625" y="720" on="0"/>
        <pt x="625" y="718" on="0"/>
        <pt x="625" y="716" on="0"/>
        <pt x="625" y="715" on="0"/>
        <pt x="624" y="715" on="1"/>
        <pt x="624" y="715" on="0"/>
        <pt x="623" y="716" on="0"/>
        <pt x="624" y="718" on="0"/>
        <pt x="624" y="721" on="0"/>
        <pt x="624" y="723" on="0"/>
        <pt x="623" y="723" on="1"/>
        <pt x="623" y="724" on="0"/>
        <pt x="621" y="723" on="0"/>
        <pt x="619" y="721" on="0"/>
        <pt x="617" y="720" on="0"/>
        <pt x="617" y="721" on="1"/>
        <pt x="617" y="721" on="0"/>
        <pt x="618" y="722" on="0"/>
        <pt x="620" y="723" on="0"/>
        <pt x="622" y="725" on="0"/>
        <pt x="622" y="725" on="1"/>
        <pt x="622" y="726" on="0"/>
        <pt x="621" y="727" on="0"/>
        <pt x="619" y="727" on="0"/>
        <pt x="617" y="728" on="0"/>
        <pt x="617" y="729" on="1"/>
        <pt x="618" y="729" on="0"/>
        <pt x="619" y="728" on="0"/>
        <pt x="621" y="727" on="0"/>
        <pt x="623" y="726" on="0"/>
        <pt x="624" y="727" on="1"/>
        <pt x="624" y="727" on="0"/>
        <pt x="624" y="728" on="0"/>
        <pt x="624" y="730" on="0"/>
        <pt x="624" y="731" on="0"/>
        <pt x="624" y="731" on="1"/>
        <pt x="625" y="731" on="0"/>
        <pt x="626" y="730" on="0"/>
        <pt x="625" y="729" on="0"/>
        <pt x="625" y="727" on="0"/>
        <pt x="626" y="726" on="1"/>
        <pt x="626" y="726" on="0"/>
        <pt x="628" y="726" on="0"/>
        <pt x="630" y="727" on="0"/>
        <pt x="631" y="728" on="0"/>
        <pt x="631" y="728" on="1"/>
        <pt x="632" y="727" on="0"/>
        <pt x="630" y="726" on="0"/>
        <pt x="628" y="725" on="0"/>
        <pt x="626" y="724" on="0"/>
      </contour>
    </TTGlyph>
    <TTGlyph name="U" xMin="-20" yMin="-8" xMax="965" yMax="820">
      <contour>
        <pt x="271" y="176" on="1"/>
        <pt x="270" y="176" on="0"/>
        <pt x="273" y="169" on="0"/>
        <pt x="273" y="165" on="1"/>
        <pt x="273" y="135" on="0"/>
        <pt x="326" y="85" on="0"/>
        <pt x="414" y="56" on="0"/>
        <pt x="468" y="56" on="1"/>
        <pt x="522" y="56" on="0"/>
        <pt x="604" y="89" on="0"/>
        <pt x="650" y="142" on="0"/>
        <pt x="650" y="172" on="1"/>
        <pt x="650" y="172" on="0"/>
        <pt x="651" y="177" on="1"/>
        <pt x="655" y="721" on="1"/>
        <pt x="497" y="721" on="1"/>
        <pt x="562" y="820" on="1"/>
        <pt x="965" y="820" on="1"/>
        <pt x="900" y="721" on="1"/>
        <pt x="725" y="721" on="1"/>
        <pt x="714" y="207" on="1"/>
        <pt x="702" y="152" on="1"/>
        <pt x="701" y="152" on="1"/>
        <pt x="698" y="121" on="0"/>
        <pt x="645" y="63" on="0"/>
        <pt x="561" y="18" on="0"/>
        <pt x="458" y="-8" on="0"/>
        <pt x="404" y="-8" on="1"/>
        <pt x="347" y="-8" on="0"/>
        <pt x="260" y="29" on="0"/>
        <pt x="200" y="77" on="0"/>
        <pt x="169" y="112" on="0"/>
        <pt x="169" y="111" on="1"/>
        <pt x="168" y="110" on="0"/>
        <pt x="150" y="160" on="0"/>
        <pt x="145" y="191" on="1"/>
        <pt x="138" y="721" on="1"/>
        <pt x="-20" y="721" on="1"/>
        <pt x="45" y="820" on="1"/>
        <pt x="448" y="820" on="1"/>
        <pt x="383" y="721" on="1"/>
        <pt x="275" y="721" on="1"/>
      </contour>
    </TTGlyph>
    <TTGlyph name="U.0" xMin="-20" yMin="-8" xMax="965" yMax="820">
      <component glyphName="U" x="0" y="0" flags="0x204"/>
    </TTGlyph>
    <TTGlyph name="U.1" xMin="433" yMin="768" xMax="448" yMax="784">
      <contour>
        <pt x="442" y="777" on="1"/>
        <pt x="442" y="776" on="0"/>
        <pt x="444" y="775" on="0"/>
        <pt x="446" y="774" on="0"/>
        <pt x="447" y="773" on="0"/>
        <pt x="447" y="772" on="1"/>
        <pt x="446" y="772" on="0"/>
        <pt x="445" y="772" on="0"/>
        <pt x="444" y="773" on="0"/>
        <pt x="442" y="775" on="0"/>
        <pt x="441" y="776" on="0"/>
        <pt x="441" y="775" on="1"/>
        <pt x="441" y="775" on="0"/>
        <pt x="441" y="773" on="0"/>
        <pt x="441" y="771" on="0"/>
        <pt x="441" y="769" on="0"/>
        <pt x="441" y="768" on="0"/>
        <pt x="440" y="768" on="1"/>
        <pt x="440" y="768" on="0"/>
        <pt x="439" y="769" on="0"/>
        <pt x="440" y="771" on="0"/>
        <pt x="440" y="774" on="0"/>
        <pt x="440" y="776" on="0"/>
        <pt x="439" y="776" on="1"/>
        <pt x="439" y="777" on="0"/>
        <pt x="437" y="776" on="0"/>
        <pt x="435" y="774" on="0"/>
        <pt x="433" y="773" on="0"/>
        <pt x="433" y="774" on="1"/>
        <pt x="433" y="774" on="0"/>
        <pt x="434" y="775" on="0"/>
        <pt x="436" y="776" on="0"/>
        <pt x="438" y="778" on="0"/>
        <pt x="438" y="778" on="1"/>
        <pt x="438" y="779" on="0"/>
        <pt x="437" y="780" on="0"/>
        <pt x="435" y="780" on="0"/>
        <pt x="433" y="781" on="0"/>
        <pt x="433" y="782" on="1"/>
        <pt x="434" y="782" on="0"/>
        <pt x="435" y="781" on="0"/>
        <pt x="437" y="780" on="0"/>
        <pt x="439" y="779" on="0"/>
        <pt x="440" y="780" on="1"/>
        <pt x="440" y="780" on="0"/>
        <pt x="440" y="781" on="0"/>
        <pt x="440" y="783" on="0"/>
        <pt x="440" y="784" on="0"/>
        <pt x="440" y="784" on="1"/>
        <pt x="441" y="784" on="0"/>
        <pt x="442" y="783" on="0"/>
        <pt x="441" y="782" on="0"/>
        <pt x="441" y="780" on="0"/>
        <pt x="442" y="779" on="1"/>
        <pt x="442" y="779" on="0"/>
        <pt x="444" y="779" on="0"/>
        <pt x="446" y="780" on="0"/>
        <pt x="447" y="781" on="0"/>
        <pt x="447" y="781" on="1"/>
        <pt x="448" y="780" on="0"/>
        <pt x="446" y="779" on="0"/>
        <pt x="444" y="778" on="0"/>
        <pt x="442" y="777" on="0"/>
      </contour>
    </TTGlyph>
    <TTGlyph name="U.2" xMin="476" yMin="17" xMax="491" yMax="33">
      <contour>
        <pt x="485" y="26" on="1"/>
        <pt x="485" y="25" on="0"/>
        <pt x="487" y="24" on="0"/>
        <pt x="489" y="23" on="0"/>
        <pt x="490" y="22" on="0"/>
        <pt x="490" y="21" on="1"/>
        <pt x="489" y="21" on="0"/>
        <pt x="488" y="21" on="0"/>
        <pt x="487" y="22" on="0"/>
        <pt x="485" y="24" on="0"/>
        <pt x="484" y="25" on="0"/>
        <pt x="484" y="24" on="1"/>
        <pt x="484" y="24" on="0"/>
        <pt x="484" y="22" on="0"/>
        <pt x="484" y="20" on="0"/>
        <pt x="484" y="18" on="0"/>
        <pt x="484" y="17" on="0"/>
        <pt x="483" y="17" on="1"/>
        <pt x="483" y="17" on="0"/>
        <pt x="482" y="18" on="0"/>
        <pt x="483" y="20" on="0"/>
        <pt x="483" y="23" on="0"/>
        <pt x="483" y="25" on="0"/>
        <pt x="482" y="25" on="1"/>
        <pt x="482" y="26" on="0"/>
        <pt x="480" y="25" on="0"/>
        <pt x="478" y="23" on="0"/>
        <pt x="476" y="22" on="0"/>
        <pt x="476" y="23" on="1"/>
        <pt x="476" y="23" on="0"/>
        <pt x="477" y="24" on="0"/>
        <pt x="479" y="25" on="0"/>
        <pt x="481" y="27" on="0"/>
        <pt x="481" y="27" on="1"/>
        <pt x="481" y="28" on="0"/>
        <pt x="480" y="29" on="0"/>
        <pt x="478" y="29" on="0"/>
        <pt x="476" y="30" on="0"/>
        <pt x="476" y="31" on="1"/>
        <pt x="477" y="31" on="0"/>
        <pt x="478" y="30" on="0"/>
        <pt x="480" y="29" on="0"/>
        <pt x="482" y="28" on="0"/>
        <pt x="483" y="29" on="1"/>
        <pt x="483" y="29" on="0"/>
        <pt x="483" y="30" on="0"/>
        <pt x="483" y="32" on="0"/>
        <pt x="483" y="33" on="0"/>
        <pt x="483" y="33" on="1"/>
        <pt x="484" y="33" on="0"/>
        <pt x="485" y="32" on="0"/>
        <pt x="484" y="31" on="0"/>
        <pt x="484" y="29" on="0"/>
        <pt x="485" y="28" on="1"/>
        <pt x="485" y="28" on="0"/>
        <pt x="487" y="28" on="0"/>
        <pt x="489" y="29" on="0"/>
        <pt x="490" y="30" on="0"/>
        <pt x="490" y="30" on="1"/>
        <pt x="491" y="29" on="0"/>
        <pt x="489" y="28" on="0"/>
        <pt x="487" y="27" on="0"/>
        <pt x="485" y="26" on="0"/>
      </contour>
    </TTGlyph>
    <TTGlyph name="U.3" xMin="738" yMin="159" xMax="753" yMax="175">
      <contour>
        <pt x="747" y="168" on="1"/>
        <pt x="747" y="167" on="0"/>
        <pt x="749" y="166" on="0"/>
        <pt x="751" y="165" on="0"/>
        <pt x="752" y="164" on="0"/>
        <pt x="752" y="163" on="1"/>
        <pt x="751" y="163" on="0"/>
        <pt x="750" y="163" on="0"/>
        <pt x="749" y="164" on="0"/>
        <pt x="747" y="166" on="0"/>
        <pt x="746" y="167" on="0"/>
        <pt x="746" y="166" on="1"/>
        <pt x="746" y="166" on="0"/>
        <pt x="746" y="164" on="0"/>
        <pt x="746" y="162" on="0"/>
        <pt x="746" y="160" on="0"/>
        <pt x="746" y="159" on="0"/>
        <pt x="745" y="159" on="1"/>
        <pt x="745" y="159" on="0"/>
        <pt x="744" y="160" on="0"/>
        <pt x="745" y="162" on="0"/>
        <pt x="745" y="165" on="0"/>
        <pt x="745" y="167" on="0"/>
        <pt x="744" y="167" on="1"/>
        <pt x="744" y="168" on="0"/>
        <pt x="742" y="167" on="0"/>
        <pt x="740" y="165" on="0"/>
        <pt x="738" y="164" on="0"/>
        <pt x="738" y="165" on="1"/>
        <pt x="738" y="165" on="0"/>
        <pt x="739" y="166" on="0"/>
        <pt x="741" y="167" on="0"/>
        <pt x="743" y="169" on="0"/>
        <pt x="743" y="169" on="1"/>
        <pt x="743" y="170" on="0"/>
        <pt x="742" y="171" on="0"/>
        <pt x="740" y="171" on="0"/>
        <pt x="738" y="172" on="0"/>
        <pt x="738" y="173" on="1"/>
        <pt x="739" y="173" on="0"/>
        <pt x="740" y="172" on="0"/>
        <pt x="742" y="171" on="0"/>
        <pt x="744" y="170" on="0"/>
        <pt x="745" y="171" on="1"/>
        <pt x="745" y="171" on="0"/>
        <pt x="745" y="172" on="0"/>
        <pt x="745" y="174" on="0"/>
        <pt x="745" y="175" on="0"/>
        <pt x="745" y="175" on="1"/>
        <pt x="746" y="175" on="0"/>
        <pt x="747" y="174" on="0"/>
        <pt x="746" y="173" on="0"/>
        <pt x="746" y="171" on="0"/>
        <pt x="747" y="170" on="1"/>
        <pt x="747" y="170" on="0"/>
        <pt x="749" y="170" on="0"/>
        <pt x="751" y="171" on="0"/>
        <pt x="752" y="172" on="0"/>
        <pt x="752" y="172" on="1"/>
        <pt x="753" y="171" on="0"/>
        <pt x="751" y="170" on="0"/>
        <pt x="749" y="169" on="0"/>
        <pt x="747" y="168" on="0"/>
      </contour>
    </TTGlyph>
    <TTGlyph name="V" xMin="-23" yMin="-9" xMax="962" yMax="820">
      <contour>
        <pt x="42" y="820" on="1"/>
        <pt x="445" y="820" on="1"/>
        <pt x="380" y="721" on="1"/>
        <pt x="208" y="717" on="1"/>
        <pt x="421" y="143" on="1"/>
        <pt x="645" y="719" on="1"/>
        <pt x="652" y="721" on="1"/>
        <pt x="494" y="721" on="1"/>
        <pt x="559" y="820" on="1"/>
        <pt x="962" y="820" on="1"/>
        <pt x="897" y="721" on="1"/>
        <pt x="723" y="721" on="1"/>
        <pt x="411" y="-9" on="1"/>
        <pt x="377" y="-8" on="1"/>
        <pt x="78" y="717" on="1"/>
        <pt x="-23" y="721" on="1"/>
      </contour>
    </TTGlyph>
    <TTGlyph name="V.0" xMin="-23" yMin="-9" xMax="962" yMax="820">
      <component glyphName="V" x="0" y="0" flags="0x204"/>
    </TTGlyph>
    <TTGlyph name="V.1" xMin="134" yMin="651" xMax="149" yMax="667">
      <contour>
        <pt x="143" y="660" on="1"/>
        <pt x="143" y="659" on="0"/>
        <pt x="145" y="658" on="0"/>
        <pt x="147" y="657" on="0"/>
        <pt x="148" y="656" on="0"/>
        <pt x="148" y="655" on="1"/>
        <pt x="147" y="655" on="0"/>
        <pt x="146" y="655" on="0"/>
        <pt x="145" y="656" on="0"/>
        <pt x="143" y="658" on="0"/>
        <pt x="142" y="659" on="0"/>
        <pt x="142" y="658" on="1"/>
        <pt x="142" y="658" on="0"/>
        <pt x="142" y="656" on="0"/>
        <pt x="142" y="654" on="0"/>
        <pt x="142" y="652" on="0"/>
        <pt x="142" y="651" on="0"/>
        <pt x="141" y="651" on="1"/>
        <pt x="141" y="651" on="0"/>
        <pt x="140" y="652" on="0"/>
        <pt x="141" y="654" on="0"/>
        <pt x="141" y="657" on="0"/>
        <pt x="141" y="659" on="0"/>
        <pt x="140" y="659" on="1"/>
        <pt x="140" y="660" on="0"/>
        <pt x="138" y="659" on="0"/>
        <pt x="136" y="657" on="0"/>
        <pt x="134" y="656" on="0"/>
        <pt x="134" y="657" on="1"/>
        <pt x="134" y="657" on="0"/>
        <pt x="135" y="658" on="0"/>
        <pt x="137" y="659" on="0"/>
        <pt x="139" y="661" on="0"/>
        <pt x="139" y="661" on="1"/>
        <pt x="139" y="662" on="0"/>
        <pt x="138" y="663" on="0"/>
        <pt x="136" y="663" on="0"/>
        <pt x="134" y="664" on="0"/>
        <pt x="134" y="665" on="1"/>
        <pt x="135" y="665" on="0"/>
        <pt x="136" y="664" on="0"/>
        <pt x="138" y="663" on="0"/>
        <pt x="140" y="662" on="0"/>
        <pt x="141" y="663" on="1"/>
        <pt x="141" y="663" on="0"/>
        <pt x="141" y="664" on="0"/>
        <pt x="141" y="666" on="0"/>
        <pt x="141" y="667" on="0"/>
        <pt x="141" y="667" on="1"/>
        <pt x="142" y="667" on="0"/>
        <pt x="143" y="666" on="0"/>
        <pt x="142" y="665" on="0"/>
        <pt x="142" y="663" on="0"/>
        <pt x="143" y="662" on="1"/>
        <pt x="143" y="662" on="0"/>
        <pt x="145" y="662" on="0"/>
        <pt x="147" y="663" on="0"/>
        <pt x="148" y="664" on="0"/>
        <pt x="148" y="664" on="1"/>
        <pt x="149" y="663" on="0"/>
        <pt x="147" y="662" on="0"/>
        <pt x="145" y="661" on="0"/>
        <pt x="143" y="660" on="0"/>
      </contour>
    </TTGlyph>
    <TTGlyph name="V.2" xMin="382" yMin="120" xMax="397" yMax="136">
      <contour>
        <pt x="391" y="129" on="1"/>
        <pt x="391" y="128" on="0"/>
        <pt x="393" y="127" on="0"/>
        <pt x="395" y="126" on="0"/>
        <pt x="396" y="125" on="0"/>
        <pt x="396" y="124" on="1"/>
        <pt x="395" y="124" on="0"/>
        <pt x="394" y="124" on="0"/>
        <pt x="393" y="125" on="0"/>
        <pt x="391" y="127" on="0"/>
        <pt x="390" y="128" on="0"/>
        <pt x="390" y="127" on="1"/>
        <pt x="390" y="127" on="0"/>
        <pt x="390" y="125" on="0"/>
        <pt x="390" y="123" on="0"/>
        <pt x="390" y="121" on="0"/>
        <pt x="390" y="120" on="0"/>
        <pt x="389" y="120" on="1"/>
        <pt x="389" y="120" on="0"/>
        <pt x="388" y="121" on="0"/>
        <pt x="389" y="123" on="0"/>
        <pt x="389" y="126" on="0"/>
        <pt x="389" y="128" on="0"/>
        <pt x="388" y="128" on="1"/>
        <pt x="388" y="129" on="0"/>
        <pt x="386" y="128" on="0"/>
        <pt x="384" y="126" on="0"/>
        <pt x="382" y="125" on="0"/>
        <pt x="382" y="126" on="1"/>
        <pt x="382" y="126" on="0"/>
        <pt x="383" y="127" on="0"/>
        <pt x="385" y="128" on="0"/>
        <pt x="387" y="130" on="0"/>
        <pt x="387" y="130" on="1"/>
        <pt x="387" y="131" on="0"/>
        <pt x="386" y="132" on="0"/>
        <pt x="384" y="132" on="0"/>
        <pt x="382" y="133" on="0"/>
        <pt x="382" y="134" on="1"/>
        <pt x="383" y="134" on="0"/>
        <pt x="384" y="133" on="0"/>
        <pt x="386" y="132" on="0"/>
        <pt x="388" y="131" on="0"/>
        <pt x="389" y="132" on="1"/>
        <pt x="389" y="132" on="0"/>
        <pt x="389" y="133" on="0"/>
        <pt x="389" y="135" on="0"/>
        <pt x="389" y="136" on="0"/>
        <pt x="389" y="136" on="1"/>
        <pt x="390" y="136" on="0"/>
        <pt x="391" y="135" on="0"/>
        <pt x="390" y="134" on="0"/>
        <pt x="390" y="132" on="0"/>
        <pt x="391" y="131" on="1"/>
        <pt x="391" y="131" on="0"/>
        <pt x="393" y="131" on="0"/>
        <pt x="395" y="132" on="0"/>
        <pt x="396" y="133" on="0"/>
        <pt x="396" y="133" on="1"/>
        <pt x="397" y="132" on="0"/>
        <pt x="395" y="131" on="0"/>
        <pt x="393" y="130" on="0"/>
        <pt x="391" y="129" on="0"/>
      </contour>
    </TTGlyph>
    <TTGlyph name="V.3" xMin="723" yMin="673" xMax="738" yMax="689">
      <contour>
        <pt x="732" y="682" on="1"/>
        <pt x="732" y="681" on="0"/>
        <pt x="734" y="680" on="0"/>
        <pt x="736" y="679" on="0"/>
        <pt x="737" y="678" on="0"/>
        <pt x="737" y="677" on="1"/>
        <pt x="736" y="677" on="0"/>
        <pt x="735" y="677" on="0"/>
        <pt x="734" y="678" on="0"/>
        <pt x="732" y="680" on="0"/>
        <pt x="731" y="681" on="0"/>
        <pt x="731" y="680" on="1"/>
        <pt x="731" y="680" on="0"/>
        <pt x="731" y="678" on="0"/>
        <pt x="731" y="676" on="0"/>
        <pt x="731" y="674" on="0"/>
        <pt x="731" y="673" on="0"/>
        <pt x="730" y="673" on="1"/>
        <pt x="730" y="673" on="0"/>
        <pt x="729" y="674" on="0"/>
        <pt x="730" y="676" on="0"/>
        <pt x="730" y="679" on="0"/>
        <pt x="730" y="681" on="0"/>
        <pt x="729" y="681" on="1"/>
        <pt x="729" y="682" on="0"/>
        <pt x="727" y="681" on="0"/>
        <pt x="725" y="679" on="0"/>
        <pt x="723" y="678" on="0"/>
        <pt x="723" y="679" on="1"/>
        <pt x="723" y="679" on="0"/>
        <pt x="724" y="680" on="0"/>
        <pt x="726" y="681" on="0"/>
        <pt x="728" y="683" on="0"/>
        <pt x="728" y="683" on="1"/>
        <pt x="728" y="684" on="0"/>
        <pt x="727" y="685" on="0"/>
        <pt x="725" y="685" on="0"/>
        <pt x="723" y="686" on="0"/>
        <pt x="723" y="687" on="1"/>
        <pt x="724" y="687" on="0"/>
        <pt x="725" y="686" on="0"/>
        <pt x="727" y="685" on="0"/>
        <pt x="729" y="684" on="0"/>
        <pt x="730" y="685" on="1"/>
        <pt x="730" y="685" on="0"/>
        <pt x="730" y="686" on="0"/>
        <pt x="730" y="688" on="0"/>
        <pt x="730" y="689" on="0"/>
        <pt x="730" y="689" on="1"/>
        <pt x="731" y="689" on="0"/>
        <pt x="732" y="688" on="0"/>
        <pt x="731" y="687" on="0"/>
        <pt x="731" y="685" on="0"/>
        <pt x="732" y="684" on="1"/>
        <pt x="732" y="684" on="0"/>
        <pt x="734" y="684" on="0"/>
        <pt x="736" y="685" on="0"/>
        <pt x="737" y="686" on="0"/>
        <pt x="737" y="686" on="1"/>
        <pt x="738" y="685" on="0"/>
        <pt x="736" y="684" on="0"/>
        <pt x="734" y="683" on="0"/>
        <pt x="732" y="682" on="0"/>
      </contour>
    </TTGlyph>
    <TTGlyph name="W" xMin="-23" yMin="-9" xMax="1390" yMax="820">
      <contour>
        <pt x="42" y="820" on="1"/>
        <pt x="445" y="820" on="1"/>
        <pt x="380" y="721" on="1"/>
        <pt x="208" y="717" on="1"/>
        <pt x="386" y="150" on="1"/>
        <pt x="558" y="636" on="1"/>
        <pt x="523" y="717" on="1"/>
        <pt x="513" y="721" on="1"/>
        <pt x="450" y="721" on="1"/>
        <pt x="515" y="820" on="1"/>
        <pt x="829" y="820" on="1"/>
        <pt x="764" y="721" on="1"/>
        <pt x="676" y="724" on="1"/>
        <pt x="849" y="143" on="1"/>
        <pt x="1073" y="719" on="1"/>
        <pt x="1080" y="721" on="1"/>
        <pt x="928" y="721" on="1"/>
        <pt x="993" y="820" on="1"/>
        <pt x="1390" y="820" on="1"/>
        <pt x="1325" y="721" on="1"/>
        <pt x="1151" y="721" on="1"/>
        <pt x="839" y="-9" on="1"/>
        <pt x="805" y="-8" on="1"/>
        <pt x="591" y="552" on="1"/>
        <pt x="387" y="-9" on="1"/>
        <pt x="353" y="-8" on="1"/>
        <pt x="78" y="717" on="1"/>
        <pt x="-23" y="721" on="1"/>
      </contour>
    </TTGlyph>
    <TTGlyph name="W.0" xMin="-23" yMin="-9" xMax="1390" yMax="820">
      <component glyphName="W" x="0" y="0" flags="0x204"/>
    </TTGlyph>
</ttFont>
